<svg width="16" height="16" viewBox="0 0 16 16" fill="none" xmlns="http://www.w3.org/2000/svg">
<path d="M3.00065 14.6673V11.334M3.00065 4.66732V1.33398M1.33398 3.00065H4.66732M1.33398 13.0007H4.66732M8.66732 2.00065L7.5112 5.00656C7.32319 5.49538 7.22919 5.73979 7.083 5.94537C6.95344 6.12758 6.79425 6.28678 6.61204 6.41634C6.40646 6.56252 6.16205 6.65652 5.67322 6.84453L2.66732 8.00065L5.67323 9.15677C6.16205 9.34478 6.40646 9.43878 6.61204 9.58496C6.79425 9.71452 6.95344 9.87372 7.083 10.0559C7.22919 10.2615 7.32319 10.5059 7.5112 10.9947L8.66732 14.0007L9.82344 10.9947C10.0114 10.5059 10.1054 10.2615 10.2516 10.0559C10.3812 9.87372 10.5404 9.71452 10.7226 9.58496C10.9282 9.43878 11.1726 9.34478 11.6614 9.15677L14.6673 8.00065L11.6614 6.84453C11.1726 6.65652 10.9282 6.56252 10.7226 6.41634C10.5404 6.28678 10.3812 6.12758 10.2516 5.94537C10.1054 5.73979 10.0114 5.49538 9.82344 5.00656L8.66732 2.00065Z" stroke="#344054" stroke-linecap="round" stroke-linejoin="round"/>
</svg>
