<svg width="20" height="20" viewBox="0 0 20 20" fill="none" xmlns="http://www.w3.org/2000/svg">
<g clip-path="url(#clip0_6912_27823)">
<path d="M1.66602 9.99935C1.66602 14.6017 5.39698 18.3327 9.99935 18.3327C11.3801 18.3327 12.4993 17.2134 12.4993 15.8327V15.416C12.4993 15.029 12.4993 14.8355 12.5207 14.673C12.6684 13.5512 13.5512 12.6684 14.673 12.5207C14.8355 12.4993 15.029 12.4993 15.416 12.4993H15.8327C17.2134 12.4993 18.3327 11.3801 18.3327 9.99935C18.3327 5.39698 14.6017 1.66602 9.99935 1.66602C5.39698 1.66602 1.66602 5.39698 1.66602 9.99935Z" stroke="#101828" stroke-width="1.5" stroke-linecap="round" stroke-linejoin="round"/>
<path d="M5.83268 10.8327C6.29292 10.8327 6.66602 10.4596 6.66602 9.99935C6.66602 9.53911 6.29292 9.16602 5.83268 9.16602C5.37245 9.16602 4.99935 9.53911 4.99935 9.99935C4.99935 10.4596 5.37245 10.8327 5.83268 10.8327Z" stroke="#101828" stroke-width="1.5" stroke-linecap="round" stroke-linejoin="round"/>
<path d="M13.3327 7.49935C13.7929 7.49935 14.166 7.12625 14.166 6.66602C14.166 6.20578 13.7929 5.83268 13.3327 5.83268C12.8724 5.83268 12.4993 6.20578 12.4993 6.66602C12.4993 7.12625 12.8724 7.49935 13.3327 7.49935Z" stroke="#101828" stroke-width="1.5" stroke-linecap="round" stroke-linejoin="round"/>
<path d="M8.33268 6.66602C8.79292 6.66602 9.16602 6.29292 9.16602 5.83268C9.16602 5.37245 8.79292 4.99935 8.33268 4.99935C7.87245 4.99935 7.49935 5.37245 7.49935 5.83268C7.49935 6.29292 7.87245 6.66602 8.33268 6.66602Z" stroke="#101828" stroke-width="1.5" stroke-linecap="round" stroke-linejoin="round"/>
</g>
<defs>
<clipPath id="clip0_6912_27823">
<rect width="20" height="20" fill="white"/>
</clipPath>
</defs>
</svg>
