<svg width="20" height="20" viewBox="0 0 20 20" fill="none" xmlns="http://www.w3.org/2000/svg">
<path d="M4.16667 7.4992V14.1659M7.91667 7.4992V14.1659M12.0833 7.4992V14.1659M15.8333 7.4992V14.1659M2.5 15.4992L2.5 16.1659C2.5 16.6326 2.5 16.8659 2.59083 17.0442C2.67072 17.201 2.79821 17.3285 2.95501 17.4084C3.13327 17.4992 3.36662 17.4992 3.83333 17.4992H16.1667C16.6334 17.4992 16.8667 17.4992 17.045 17.4084C17.2018 17.3285 17.3293 17.201 17.4092 17.0442C17.5 16.8659 17.5 16.6326 17.5 16.1659V15.4992C17.5 15.0325 17.5 14.7991 17.4092 14.6209C17.3293 14.4641 17.2018 14.3366 17.045 14.2567C16.8667 14.1659 16.6334 14.1659 16.1667 14.1659H3.83333C3.36662 14.1659 3.13327 14.1659 2.95501 14.2567C2.79821 14.3366 2.67072 14.4641 2.59083 14.6209C2.5 14.7991 2.5 15.0325 2.5 15.4992ZM9.71076 2.56348L3.54409 3.93385C3.17154 4.01664 2.98527 4.05803 2.84622 4.15821C2.72358 4.24656 2.62727 4.36662 2.56762 4.50551C2.5 4.66297 2.5 4.85379 2.5 5.23543L2.5 6.16587C2.5 6.63258 2.5 6.86593 2.59083 7.04419C2.67072 7.201 2.79821 7.32848 2.95501 7.40837C3.13327 7.4992 3.36662 7.4992 3.83333 7.4992H16.1667C16.6334 7.4992 16.8667 7.4992 17.045 7.40837C17.2018 7.32848 17.3293 7.201 17.4092 7.0442C17.5 6.86594 17.5 6.63258 17.5 6.16587V5.23543C17.5 4.85379 17.5 4.66297 17.4324 4.50551C17.3727 4.36662 17.2764 4.24656 17.1538 4.15821C17.0147 4.05803 16.8285 4.01664 16.4559 3.93385L10.2892 2.56348C10.1813 2.53949 10.1273 2.5275 10.0728 2.52272C10.0244 2.51847 9.97564 2.51847 9.9272 2.52272C9.87267 2.5275 9.8187 2.53949 9.71076 2.56348Z" stroke="#101828" stroke-width="1.5" stroke-linecap="round" stroke-linejoin="round"/>
<path d="M4.16667 7.4992V14.1659M7.91667 7.4992V14.1659M12.0833 7.4992V14.1659M15.8333 7.4992V14.1659M2.5 15.4992L2.5 16.1659C2.5 16.6326 2.5 16.8659 2.59083 17.0442C2.67072 17.201 2.79821 17.3285 2.95501 17.4084C3.13327 17.4992 3.36662 17.4992 3.83333 17.4992H16.1667C16.6334 17.4992 16.8667 17.4992 17.045 17.4084C17.2018 17.3285 17.3293 17.201 17.4092 17.0442C17.5 16.8659 17.5 16.6326 17.5 16.1659V15.4992C17.5 15.0325 17.5 14.7991 17.4092 14.6209C17.3293 14.4641 17.2018 14.3366 17.045 14.2567C16.8667 14.1659 16.6334 14.1659 16.1667 14.1659H3.83333C3.36662 14.1659 3.13327 14.1659 2.95501 14.2567C2.79821 14.3366 2.67072 14.4641 2.59083 14.6209C2.5 14.7991 2.5 15.0325 2.5 15.4992ZM9.71076 2.56348L3.54409 3.93385C3.17154 4.01664 2.98527 4.05803 2.84622 4.15821C2.72358 4.24656 2.62727 4.36662 2.56762 4.50551C2.5 4.66297 2.5 4.85379 2.5 5.23543L2.5 6.16587C2.5 6.63258 2.5 6.86593 2.59083 7.04419C2.67072 7.201 2.79821 7.32848 2.95501 7.40837C3.13327 7.4992 3.36662 7.4992 3.83333 7.4992H16.1667C16.6334 7.4992 16.8667 7.4992 17.045 7.40837C17.2018 7.32848 17.3293 7.201 17.4092 7.0442C17.5 6.86594 17.5 6.63258 17.5 6.16587V5.23543C17.5 4.85379 17.5 4.66297 17.4324 4.50551C17.3727 4.36662 17.2764 4.24656 17.1538 4.15821C17.0147 4.05803 16.8285 4.01664 16.4559 3.93385L10.2892 2.56348C10.1813 2.53949 10.1273 2.5275 10.0728 2.52272C10.0244 2.51847 9.97564 2.51847 9.9272 2.52272C9.87267 2.5275 9.8187 2.53949 9.71076 2.56348Z" stroke="black" stroke-opacity="0.2" stroke-width="1.5" stroke-linecap="round" stroke-linejoin="round"/>
</svg>
