<svg width="20" height="20" viewBox="0 0 20 20" fill="none" xmlns="http://www.w3.org/2000/svg">
<path d="M16.6673 8.33268V5.66602C16.6673 4.26588 16.6673 3.56582 16.3948 3.03104C16.1552 2.56063 15.7727 2.17818 15.3023 1.9385C14.7675 1.66602 14.0674 1.66602 12.6673 1.66602H7.33398C5.93385 1.66602 5.23379 1.66602 4.69901 1.9385C4.2286 2.17818 3.84615 2.56063 3.60647 3.03104C3.33398 3.56582 3.33398 4.26588 3.33398 5.66602V14.3327C3.33398 15.7328 3.33398 16.4329 3.60647 16.9677C3.84615 17.4381 4.2286 17.8205 4.69901 18.0602C5.23379 18.3327 5.93385 18.3327 7.33398 18.3327H10.0007M10.4173 9.16602H6.66732M7.50065 12.4993H6.66732M13.334 5.83268H6.66732M14.165 12.3582C13.4986 11.6007 12.3872 11.3969 11.5522 12.0906C10.7172 12.7842 10.5996 13.9439 11.2554 14.7643C11.9111 15.5847 14.165 17.4993 14.165 17.4993C14.165 17.4993 16.4189 15.5847 17.0747 14.7643C17.7304 13.9439 17.6272 12.7769 16.7779 12.0906C15.9285 11.4042 14.8315 11.6007 14.165 12.3582Z" stroke="#101828" stroke-width="1.5" stroke-linecap="round" stroke-linejoin="round"/>
</svg>
