<svg width="20" height="20" viewBox="0 0 20 20" fill="none" xmlns="http://www.w3.org/2000/svg">
<g clip-path="url(#clip0_6123_17034)">
<path d="M8.33366 12.5003L5.77095 15.0951C5.41348 15.457 5.23475 15.638 5.08112 15.6507C4.94784 15.6618 4.81734 15.6082 4.73029 15.5067C4.62996 15.3897 4.62996 15.1353 4.62996 14.6266V13.3267C4.62996 12.8703 4.25622 12.5401 3.80466 12.4739V12.4739C2.71178 12.3138 1.85347 11.4555 1.69339 10.3627C1.66699 10.1825 1.66699 9.96742 1.66699 9.53736V5.66699C1.66699 4.26686 1.66699 3.5668 1.93948 3.03202C2.17916 2.56161 2.56161 2.17916 3.03202 1.93948C3.5668 1.66699 4.26686 1.66699 5.66699 1.66699H11.8337C13.2338 1.66699 13.9339 1.66699 14.4686 1.93948C14.939 2.17916 15.3215 2.56161 15.5612 3.03202C15.8337 3.5668 15.8337 4.26686 15.8337 5.66699V9.16699M15.8337 18.3337L14.02 17.0727C13.765 16.8955 13.6376 16.8069 13.4988 16.744C13.3757 16.6882 13.2462 16.6477 13.1133 16.6232C12.9635 16.5956 12.8083 16.5956 12.4978 16.5956H11.0003C10.0669 16.5956 9.60019 16.5956 9.24368 16.4139C8.93007 16.2541 8.6751 15.9992 8.51532 15.6855C8.33366 15.329 8.33366 14.8623 8.33366 13.9289V11.8337C8.33366 10.9002 8.33366 10.4335 8.51532 10.077C8.6751 9.76341 8.93007 9.50844 9.24368 9.34865C9.60019 9.16699 10.0669 9.16699 11.0003 9.16699H15.667C16.6004 9.16699 17.0671 9.16699 17.4236 9.34865C17.7372 9.50844 17.9922 9.76341 18.152 10.077C18.3337 10.4335 18.3337 10.9002 18.3337 11.8337V14.0956C18.3337 14.8721 18.3337 15.2604 18.2068 15.5667C18.0376 15.9751 17.7132 16.2995 17.3048 16.4687C16.9985 16.5956 16.6102 16.5956 15.8337 16.5956V18.3337Z" stroke="#101828" stroke-width="1.5" stroke-linecap="round" stroke-linejoin="round"/>
</g>
<defs>
<clipPath id="clip0_6123_17034">
<rect width="20" height="20" fill="white"/>
</clipPath>
</defs>
</svg>
