<svg width="20" height="20" viewBox="0 0 20 20" fill="none" xmlns="http://www.w3.org/2000/svg">
<path d="M16.6663 8.75033V5.66699C16.6663 4.26686 16.6663 3.5668 16.3939 3.03202C16.1542 2.56161 15.7717 2.17916 15.3013 1.93948C14.7665 1.66699 14.0665 1.66699 12.6663 1.66699H7.33301C5.93288 1.66699 5.23281 1.66699 4.69803 1.93948C4.22763 2.17916 3.84517 2.56161 3.60549 3.03202C3.33301 3.5668 3.33301 4.26686 3.33301 5.66699V14.3337C3.33301 15.7338 3.33301 16.4339 3.60549 16.9686C3.84517 17.439 4.22763 17.8215 4.69803 18.0612C5.23281 18.3337 5.93288 18.3337 7.33301 18.3337H9.99967M11.6663 9.16699H6.66634M8.33301 12.5003H6.66634M13.333 5.83366H6.66634M14.9997 17.5003V12.5003M12.4997 15.0003H17.4997" stroke="#667085" stroke-width="1.66667" stroke-linecap="round" stroke-linejoin="round"/>
</svg>
