<svg width="20" height="20" viewBox="0 0 20 20" fill="none" xmlns="http://www.w3.org/2000/svg">
<path d="M16.6668 15.8337V13.3337H5.8335C4.45278 13.3337 3.3335 14.4529 3.3335 15.8337M7.3335 18.3337H14.0002C14.9336 18.3337 15.4003 18.3337 15.7568 18.152C16.0704 17.9922 16.3254 17.7372 16.4852 17.4236C16.6668 17.0671 16.6668 16.6004 16.6668 15.667V4.33366C16.6668 3.40024 16.6668 2.93353 16.4852 2.57701C16.3254 2.2634 16.0704 2.00844 15.7568 1.84865C15.4003 1.66699 14.9336 1.66699 14.0002 1.66699H7.3335C5.93336 1.66699 5.2333 1.66699 4.69852 1.93948C4.22811 2.17916 3.84566 2.56161 3.60598 3.03202C3.3335 3.5668 3.3335 4.26686 3.3335 5.66699V14.3337C3.3335 15.7338 3.3335 16.4339 3.60598 16.9686C3.84566 17.439 4.22811 17.8215 4.69852 18.0612C5.2333 18.3337 5.93336 18.3337 7.3335 18.3337Z" stroke="white" stroke-width="1.66667" stroke-linecap="round" stroke-linejoin="round"/>
</svg>
