<svg width="18" height="18" viewBox="0 0 18 18" fill="none" xmlns="http://www.w3.org/2000/svg">
<path d="M3.16667 6.4992V13.1659M6.91667 6.4992V13.1659M11.0833 6.4992V13.1659M14.8333 6.4992V13.1659M1.5 14.4992L1.5 15.1659C1.5 15.6326 1.5 15.8659 1.59083 16.0442C1.67072 16.201 1.79821 16.3285 1.95501 16.4084C2.13327 16.4992 2.36662 16.4992 2.83333 16.4992H15.1667C15.6334 16.4992 15.8667 16.4992 16.045 16.4084C16.2018 16.3285 16.3293 16.201 16.4092 16.0442C16.5 15.8659 16.5 15.6326 16.5 15.1659V14.4992C16.5 14.0325 16.5 13.7991 16.4092 13.6209C16.3293 13.4641 16.2018 13.3366 16.045 13.2567C15.8667 13.1659 15.6334 13.1659 15.1667 13.1659H2.83333C2.36662 13.1659 2.13327 13.1659 1.95501 13.2567C1.79821 13.3366 1.67072 13.4641 1.59083 13.6209C1.5 13.7991 1.5 14.0325 1.5 14.4992ZM8.71076 1.56348L2.54409 2.93385C2.17154 3.01664 1.98527 3.05803 1.84622 3.15821C1.72358 3.24656 1.62727 3.36662 1.56762 3.50551C1.5 3.66297 1.5 3.85379 1.5 4.23543L1.5 5.16587C1.5 5.63258 1.5 5.86593 1.59083 6.04419C1.67072 6.201 1.79821 6.32848 1.95501 6.40837C2.13327 6.4992 2.36662 6.4992 2.83333 6.4992H15.1667C15.6334 6.4992 15.8667 6.4992 16.045 6.40837C16.2018 6.32848 16.3293 6.201 16.4092 6.0442C16.5 5.86594 16.5 5.63258 16.5 5.16587V4.23543C16.5 3.85379 16.5 3.66297 16.4324 3.50551C16.3727 3.36662 16.2764 3.24656 16.1538 3.15821C16.0147 3.05803 15.8285 3.01664 15.4559 2.93385L9.28924 1.56348C9.1813 1.53949 9.12733 1.5275 9.0728 1.52272C9.02436 1.51847 8.97564 1.51847 8.9272 1.52272C8.87267 1.5275 8.8187 1.53949 8.71076 1.56348Z" stroke="#101828" stroke-width="1.5" stroke-linecap="round" stroke-linejoin="round"/>
<path d="M3.16667 6.4992V13.1659M6.91667 6.4992V13.1659M11.0833 6.4992V13.1659M14.8333 6.4992V13.1659M1.5 14.4992L1.5 15.1659C1.5 15.6326 1.5 15.8659 1.59083 16.0442C1.67072 16.201 1.79821 16.3285 1.95501 16.4084C2.13327 16.4992 2.36662 16.4992 2.83333 16.4992H15.1667C15.6334 16.4992 15.8667 16.4992 16.045 16.4084C16.2018 16.3285 16.3293 16.201 16.4092 16.0442C16.5 15.8659 16.5 15.6326 16.5 15.1659V14.4992C16.5 14.0325 16.5 13.7991 16.4092 13.6209C16.3293 13.4641 16.2018 13.3366 16.045 13.2567C15.8667 13.1659 15.6334 13.1659 15.1667 13.1659H2.83333C2.36662 13.1659 2.13327 13.1659 1.95501 13.2567C1.79821 13.3366 1.67072 13.4641 1.59083 13.6209C1.5 13.7991 1.5 14.0325 1.5 14.4992ZM8.71076 1.56348L2.54409 2.93385C2.17154 3.01664 1.98527 3.05803 1.84622 3.15821C1.72358 3.24656 1.62727 3.36662 1.56762 3.50551C1.5 3.66297 1.5 3.85379 1.5 4.23543L1.5 5.16587C1.5 5.63258 1.5 5.86593 1.59083 6.04419C1.67072 6.201 1.79821 6.32848 1.95501 6.40837C2.13327 6.4992 2.36662 6.4992 2.83333 6.4992H15.1667C15.6334 6.4992 15.8667 6.4992 16.045 6.40837C16.2018 6.32848 16.3293 6.201 16.4092 6.0442C16.5 5.86594 16.5 5.63258 16.5 5.16587V4.23543C16.5 3.85379 16.5 3.66297 16.4324 3.50551C16.3727 3.36662 16.2764 3.24656 16.1538 3.15821C16.0147 3.05803 15.8285 3.01664 15.4559 2.93385L9.28924 1.56348C9.1813 1.53949 9.12733 1.5275 9.0728 1.52272C9.02436 1.51847 8.97564 1.51847 8.9272 1.52272C8.87267 1.5275 8.8187 1.53949 8.71076 1.56348Z" stroke="black" stroke-opacity="0.2" stroke-width="1.5" stroke-linecap="round" stroke-linejoin="round"/>
</svg>
