<svg width="20" height="20" viewBox="0 0 20 20" fill="none" xmlns="http://www.w3.org/2000/svg">
<path d="M3.33368 18.1805C3.83583 18.3327 4.51407 18.3327 5.66699 18.3327H14.3337C15.4866 18.3327 16.1648 18.3327 16.667 18.1805M3.33368 18.1805C3.22601 18.1479 3.12644 18.1083 3.03202 18.0602C2.56161 17.8205 2.17916 17.4381 1.93948 16.9677C1.66699 16.4329 1.66699 15.7328 1.66699 14.3327V5.66602C1.66699 4.26588 1.66699 3.56582 1.93948 3.03104C2.17916 2.56063 2.56161 2.17818 3.03202 1.9385C3.5668 1.66602 4.26686 1.66602 5.66699 1.66602H14.3337C15.7338 1.66602 16.4339 1.66602 16.9686 1.9385C17.439 2.17818 17.8215 2.56063 18.0612 3.03104C18.3337 3.56582 18.3337 4.26588 18.3337 5.66602V14.3327C18.3337 15.7328 18.3337 16.4329 18.0612 16.9677C17.8215 17.4381 17.439 17.8205 16.9686 18.0602C16.8742 18.1083 16.7746 18.1479 16.667 18.1805M3.33368 18.1805C3.33395 17.5061 3.338 17.1492 3.39771 16.849C3.66073 15.5267 4.69439 14.4931 6.01669 14.2301C6.33869 14.166 6.7259 14.166 7.50033 14.166H12.5003C13.2748 14.166 13.662 14.166 13.984 14.2301C15.3063 14.4931 16.3399 15.5267 16.6029 16.849C16.6627 17.1492 16.6667 17.5061 16.667 18.1805M13.3337 7.91602C13.3337 9.75697 11.8413 11.2493 10.0003 11.2493C8.15938 11.2493 6.66699 9.75697 6.66699 7.91602C6.66699 6.07507 8.15938 4.58268 10.0003 4.58268C11.8413 4.58268 13.3337 6.07507 13.3337 7.91602Z" stroke="#101828" stroke-width="1.5" stroke-linecap="round" stroke-linejoin="round"/>
<path d="M3.33368 18.1805C3.83583 18.3327 4.51407 18.3327 5.66699 18.3327H14.3337C15.4866 18.3327 16.1648 18.3327 16.667 18.1805M3.33368 18.1805C3.22601 18.1479 3.12644 18.1083 3.03202 18.0602C2.56161 17.8205 2.17916 17.4381 1.93948 16.9677C1.66699 16.4329 1.66699 15.7328 1.66699 14.3327V5.66602C1.66699 4.26588 1.66699 3.56582 1.93948 3.03104C2.17916 2.56063 2.56161 2.17818 3.03202 1.9385C3.5668 1.66602 4.26686 1.66602 5.66699 1.66602H14.3337C15.7338 1.66602 16.4339 1.66602 16.9686 1.9385C17.439 2.17818 17.8215 2.56063 18.0612 3.03104C18.3337 3.56582 18.3337 4.26588 18.3337 5.66602V14.3327C18.3337 15.7328 18.3337 16.4329 18.0612 16.9677C17.8215 17.4381 17.439 17.8205 16.9686 18.0602C16.8742 18.1083 16.7746 18.1479 16.667 18.1805M3.33368 18.1805C3.33395 17.5061 3.338 17.1492 3.39771 16.849C3.66073 15.5267 4.69439 14.4931 6.01669 14.2301C6.33869 14.166 6.7259 14.166 7.50033 14.166H12.5003C13.2748 14.166 13.662 14.166 13.984 14.2301C15.3063 14.4931 16.3399 15.5267 16.6029 16.849C16.6627 17.1492 16.6667 17.5061 16.667 18.1805M13.3337 7.91602C13.3337 9.75697 11.8413 11.2493 10.0003 11.2493C8.15938 11.2493 6.66699 9.75697 6.66699 7.91602C6.66699 6.07507 8.15938 4.58268 10.0003 4.58268C11.8413 4.58268 13.3337 6.07507 13.3337 7.91602Z" stroke="black" stroke-opacity="0.2" stroke-width="1.5" stroke-linecap="round" stroke-linejoin="round"/>
</svg>
