<svg width="20" height="20" viewBox="0 0 20 20" fill="none" xmlns="http://www.w3.org/2000/svg">
<g clip-path="url(#clip0_8498_33862)">
<path d="M8.74935 1.66835C8.18681 1.67597 7.8491 1.70854 7.57603 1.84767C7.26243 2.00746 7.00746 2.26243 6.84767 2.57603C6.70854 2.8491 6.67597 3.18681 6.66835 3.74935M16.2493 1.66835C16.8119 1.67597 17.1496 1.70854 17.4227 1.84767C17.7363 2.00746 17.9912 2.26243 18.151 2.57603C18.2902 2.8491 18.3227 3.1868 18.3304 3.74934M18.3304 11.2493C18.3227 11.8119 18.2902 12.1496 18.151 12.4227C17.9912 12.7363 17.7363 12.9912 17.4227 13.151C17.1496 13.2902 16.8119 13.3227 16.2493 13.3304M18.3327 6.66601V8.33268M11.6661 1.66602H13.3326M4.33268 18.3327H10.666C11.5994 18.3327 12.0661 18.3327 12.4227 18.151C12.7363 17.9912 12.9912 17.7363 13.151 17.4227C13.3327 17.0661 13.3327 16.5994 13.3327 15.666V9.33268C13.3327 8.39926 13.3327 7.93255 13.151 7.57603C12.9912 7.26243 12.7363 7.00746 12.4227 6.84767C12.0661 6.66602 11.5994 6.66602 10.666 6.66602H4.33268C3.39926 6.66602 2.93255 6.66602 2.57603 6.84767C2.26243 7.00746 2.00746 7.26243 1.84767 7.57603C1.66602 7.93255 1.66602 8.39926 1.66602 9.33268V15.666C1.66602 16.5994 1.66602 17.0661 1.84767 17.4227C2.00746 17.7363 2.26243 17.9912 2.57603 18.151C2.93255 18.3327 3.39926 18.3327 4.33268 18.3327Z" stroke="#3054B9" stroke-width="1.66667" stroke-linecap="round" stroke-linejoin="round"/>
</g>
<defs>
<clipPath id="clip0_8498_33862">
<rect width="20" height="20" fill="white"/>
</clipPath>
</defs>
</svg>
