<svg width="20" height="20" viewBox="0 0 20 20" fill="none" xmlns="http://www.w3.org/2000/svg">
<path d="M16.6673 15.8327V13.3327H5.83398C4.45327 13.3327 3.33398 14.452 3.33398 15.8327M7.33398 18.3327H14.0007C14.9341 18.3327 15.4008 18.3327 15.7573 18.151C16.0709 17.9912 16.3259 17.7363 16.4857 17.4227C16.6673 17.0661 16.6673 16.5994 16.6673 15.666V4.33268C16.6673 3.39926 16.6673 2.93255 16.4857 2.57603C16.3259 2.26243 16.0709 2.00746 15.7573 1.84767C15.4008 1.66602 14.9341 1.66602 14.0007 1.66602H7.33398C5.93385 1.66602 5.23379 1.66602 4.69901 1.9385C4.2286 2.17818 3.84615 2.56063 3.60647 3.03104C3.33398 3.56582 3.33398 4.26588 3.33398 5.66602V14.3327C3.33398 15.7328 3.33398 16.4329 3.60647 16.9677C3.84615 17.4381 4.2286 17.8205 4.69901 18.0602C5.23379 18.3327 5.93385 18.3327 7.33398 18.3327Z" stroke="#475467" stroke-width="1.66667" stroke-linecap="round" stroke-linejoin="round"/>
</svg>
