<svg width="19" height="19" viewBox="0 0 19 19" fill="none" xmlns="http://www.w3.org/2000/svg">
<path d="M1.39637 15.0973C1.43466 14.7527 1.4538 14.5804 1.50594 14.4194C1.55219 14.2765 1.61753 14.1405 1.70021 14.0152C1.79339 13.8739 1.91596 13.7513 2.16112 13.5061L13.1664 2.5009C14.0868 1.58043 15.5792 1.58043 16.4997 2.5009C17.4202 3.42138 17.4202 4.91376 16.4997 5.83424L5.49445 16.8395C5.2493 17.0846 5.12672 17.2072 4.98541 17.3004C4.86005 17.383 4.72408 17.4484 4.58121 17.4946C4.42018 17.5468 4.24789 17.5659 3.90331 17.6042L1.08301 17.9176L1.39637 15.0973Z" stroke="#475467" stroke-width="1.66667" stroke-linecap="round" stroke-linejoin="round"/>
</svg>
