<svg width="40" height="40" viewBox="0 0 40 40" fill="none" xmlns="http://www.w3.org/2000/svg">
<path d="M36.8 32.25H3.2C2.54 32.25 2 31.71 2 31.05V9.45C2 8.79 2.54 8.25 3.2 8.25H36.8C37.46 8.25 38 8.79 38 9.45V31.05C38 31.71 37.46 32.25 36.8 32.25Z" fill="url(#paint0_linear_8272_61727)"/>
<path d="M38 10.11V9.45C38 8.79 37.46 8.25 36.8 8.25H3.2C2.54 8.25 2 8.79 2 9.45V10.05L19.97 23.88L38 10.11Z" fill="url(#paint1_linear_8272_61727)"/>
<path d="M14.0325 19.587L2.6025 32.067C2.3325 31.917 2.1225 31.647 2.0625 31.317L13.4025 18.957L14.0325 19.587Z" fill="#FFB300"/>
<path d="M37.9375 31.437C37.8475 31.737 37.6375 31.977 37.3375 32.127L25.9375 19.557L26.5975 18.957L37.9375 31.437Z" fill="#FFB300"/>
<path d="M38 9.74875V10.8887L19.97 24.4488L2 10.8287V9.71875L19.97 23.3388L38 9.74875Z" fill="#FFB300"/>
<path opacity="0.2" d="M36.8 9.15C36.98 9.15 37.1 9.3 37.1 9.45V31.05C37.1 31.23 36.98 31.35 36.8 31.35H3.2C3.02 31.35 2.9 31.23 2.9 31.05V9.45C2.9 9.3 3.02 9.15 3.2 9.15H36.8ZM36.8 8.25H3.2C2.54 8.25 2 8.79 2 9.45V31.05C2 31.71 2.54 32.25 3.2 32.25H36.8C37.46 32.25 38 31.71 38 31.05V9.45C38 8.79 37.46 8.25 36.8 8.25Z" fill="#444444"/>
<defs>
<linearGradient id="paint0_linear_8272_61727" x1="20" y1="12.0999" x2="20" y2="32.349" gradientUnits="userSpaceOnUse">
<stop stop-color="#FFC107"/>
<stop offset="1" stop-color="#FFD54F"/>
</linearGradient>
<linearGradient id="paint1_linear_8272_61727" x1="20" y1="3.58686" x2="20" y2="22.6962" gradientUnits="userSpaceOnUse">
<stop stop-color="#FFE082"/>
<stop offset="0.9931" stop-color="#FFCA28"/>
</linearGradient>
</defs>
</svg>
