<svg width="20" height="20" viewBox="0 0 20 20" fill="none" xmlns="http://www.w3.org/2000/svg">
<path d="M11.6663 9.16602H6.66634M8.33301 12.4993H6.66634M13.333 5.83268H6.66634M16.6663 5.66602V14.3327C16.6663 15.7328 16.6663 16.4329 16.3939 16.9677C16.1542 17.4381 15.7717 17.8205 15.3013 18.0602C14.7665 18.3327 14.0665 18.3327 12.6663 18.3327H7.33301C5.93288 18.3327 5.23281 18.3327 4.69803 18.0602C4.22763 17.8205 3.84517 17.4381 3.60549 16.9677C3.33301 16.4329 3.33301 15.7328 3.33301 14.3327V5.66602C3.33301 4.26588 3.33301 3.56582 3.60549 3.03104C3.84517 2.56063 4.22763 2.17818 4.69803 1.9385C5.23281 1.66602 5.93288 1.66602 7.33301 1.66602H12.6663C14.0665 1.66602 14.7665 1.66602 15.3013 1.9385C15.7717 2.17818 16.1542 2.56063 16.3939 3.03104C16.6663 3.56582 16.6663 4.26588 16.6663 5.66602Z" stroke="#3054B9" stroke-width="1.5" stroke-linecap="round" stroke-linejoin="round"/>
</svg>
