<svg width="400" height="150" viewBox="0 0 400 150" fill="none" xmlns="http://www.w3.org/2000/svg">
<g clip-path="url(#clip0_1001_208553)">
<rect width="400" height="150" rx="8" fill="#F1F3F5"/>
<g filter="url(#filter0_d_1001_208553)">
<mask id="path-3-inside-1_1001_208553" fill="white">
<path d="M66 -22.5816H333V61.7342C333 64.8386 330.483 67.3553 327.379 67.3553H71.6211C68.5166 67.3553 66 64.8386 66 61.7342V-22.5816Z"/>
</mask>
<path d="M66 -22.5816H333V61.7342C333 64.8386 330.483 67.3553 327.379 67.3553H71.6211C68.5166 67.3553 66 64.8386 66 61.7342V-22.5816Z" fill="white"/>
<rect x="80.0526" y="-8.52895" width="238.895" height="61.1316" rx="2.81053" fill="#868E96"/>
<g clip-path="url(#clip1_1001_208553)">
<path d="M92.9342 10.7934V3.18157C92.9342 2.71569 93.1193 2.2689 93.4487 1.93948C93.7781 1.61006 94.2249 1.42499 94.6908 1.42499H100.546C101.012 1.42499 101.459 1.61006 101.788 1.93948C102.118 2.2689 102.303 2.71569 102.303 3.18157V6.69472C102.303 7.1606 102.118 7.60739 101.788 7.93681C101.459 8.26624 101.012 8.4513 100.546 8.4513H95.2763L92.9342 10.7934Z" stroke="#868E96" stroke-width="0.702632" stroke-linecap="round" stroke-linejoin="round"/>
<path d="M96.1545 3.76709H96.1595" stroke="#868E96" stroke-width="0.702632" stroke-linecap="round" stroke-linejoin="round"/>
<path d="M99.0822 3.76709H99.0872" stroke="#868E96" stroke-width="0.702632" stroke-linecap="round" stroke-linejoin="round"/>
<path d="M96.1545 6.10921C96.3454 6.30395 96.5731 6.45867 96.8245 6.56429C97.0758 6.66991 97.3457 6.72431 97.6184 6.72431C97.891 6.72431 98.1609 6.66991 98.4123 6.56429C98.6636 6.45867 98.8914 6.30395 99.0822 6.10921" stroke="#868E96" stroke-width="0.702632" stroke-linecap="round" stroke-linejoin="round"/>
</g>
<path d="M113.126 6.8588C113.126 7.21561 113.038 7.52301 112.862 7.78101C112.689 8.039 112.44 8.23662 112.113 8.37385C111.789 8.51108 111.402 8.5797 110.952 8.5797C110.732 8.5797 110.522 8.56735 110.322 8.54265C110.122 8.51795 109.932 8.48226 109.754 8.43561C109.578 8.3862 109.418 8.32719 109.272 8.25858V7.32814C109.516 7.43518 109.79 7.53261 110.091 7.62044C110.393 7.70553 110.701 7.74807 111.014 7.74807C111.269 7.74807 111.48 7.71513 111.648 7.64926C111.818 7.58065 111.944 7.48458 112.026 7.36107C112.109 7.23482 112.15 7.08798 112.15 6.92056C112.15 6.74215 112.102 6.5912 112.006 6.46769C111.91 6.34418 111.764 6.23165 111.569 6.1301C111.377 6.0258 111.136 5.91464 110.845 5.79662C110.647 5.71702 110.458 5.62645 110.277 5.5249C110.098 5.42335 109.939 5.30395 109.799 5.16672C109.659 5.02949 109.548 4.86755 109.466 4.68092C109.386 4.49154 109.346 4.26922 109.346 4.01397C109.346 3.67363 109.427 3.3827 109.589 3.14117C109.754 2.89964 109.984 2.71437 110.281 2.58537C110.58 2.45637 110.929 2.39188 111.327 2.39188C111.642 2.39188 111.939 2.42481 112.216 2.49068C112.496 2.55655 112.77 2.64987 113.039 2.77064L112.726 3.56522C112.479 3.46366 112.239 3.3827 112.006 3.32231C111.775 3.26193 111.539 3.23174 111.298 3.23174C111.089 3.23174 110.912 3.2633 110.767 3.32643C110.621 3.38956 110.51 3.47876 110.433 3.59403C110.359 3.70657 110.322 3.84105 110.322 3.9975C110.322 4.17316 110.365 4.32137 110.45 4.44213C110.537 4.56015 110.672 4.66857 110.853 4.76737C111.037 4.86618 111.273 4.97597 111.561 5.09673C111.893 5.23397 112.175 5.37806 112.405 5.52902C112.639 5.67997 112.817 5.86112 112.94 6.07246C113.064 6.28105 113.126 6.54317 113.126 6.8588ZM115.884 7.79747C116.01 7.79747 116.135 7.78649 116.259 7.76454C116.382 7.73984 116.495 7.71102 116.596 7.67808V8.4109C116.489 8.45756 116.351 8.49736 116.18 8.5303C116.01 8.56323 115.833 8.5797 115.649 8.5797C115.391 8.5797 115.159 8.53716 114.954 8.45207C114.748 8.36424 114.584 8.21466 114.464 8.00332C114.343 7.79198 114.283 7.49968 114.283 7.12641V4.6768H113.661V4.24452L114.328 3.90281L114.645 2.92708H115.254V3.93986H116.559V4.6768H115.254V7.11405C115.254 7.34461 115.312 7.51615 115.427 7.62868C115.542 7.74121 115.695 7.79747 115.884 7.79747ZM119.309 3.8534C119.886 3.8534 120.321 3.98103 120.614 4.23628C120.911 4.49154 121.059 4.88951 121.059 5.43021V8.49736H120.372L120.186 7.85099H120.153C120.024 8.01567 119.891 8.15153 119.754 8.25858C119.617 8.36562 119.458 8.44521 119.276 8.49736C119.098 8.55225 118.88 8.5797 118.622 8.5797C118.35 8.5797 118.107 8.5303 117.893 8.43149C117.679 8.32994 117.51 8.17624 117.387 7.97039C117.263 7.76454 117.202 7.5038 117.202 7.18816C117.202 6.71882 117.376 6.36614 117.724 6.1301C118.076 5.89406 118.605 5.76368 119.314 5.73898L120.104 5.71016V5.47138C120.104 5.15574 120.03 4.93068 119.882 4.79619C119.736 4.66171 119.53 4.59446 119.264 4.59446C119.036 4.59446 118.815 4.6274 118.601 4.69327C118.387 4.75914 118.179 4.84011 117.976 4.93617L117.663 4.25275C117.885 4.13473 118.137 4.03867 118.42 3.96456C118.706 3.89046 119.002 3.8534 119.309 3.8534ZM120.1 6.31948L119.511 6.34006C119.028 6.35653 118.689 6.43887 118.494 6.58708C118.299 6.73529 118.202 6.9384 118.202 7.19639C118.202 7.42146 118.269 7.58613 118.404 7.69043C118.538 7.79198 118.715 7.84276 118.935 7.84276C119.27 7.84276 119.547 7.74807 119.766 7.55869C119.989 7.36656 120.1 7.08524 120.1 6.71471V6.31948ZM124.723 3.8534C124.8 3.8534 124.884 3.85752 124.974 3.86576C125.065 3.87399 125.143 3.88497 125.209 3.89869L125.118 4.80443C125.061 4.78796 124.989 4.77561 124.904 4.76737C124.822 4.75914 124.748 4.75502 124.682 4.75502C124.509 4.75502 124.344 4.78384 124.188 4.84148C124.032 4.89637 123.893 4.98146 123.772 5.09673C123.651 5.20926 123.557 5.35061 123.488 5.52078C123.42 5.69095 123.385 5.88857 123.385 6.11363V8.49736H122.414V3.93986H123.171L123.303 4.74267H123.348C123.439 4.58074 123.551 4.43253 123.686 4.29804C123.82 4.16355 123.974 4.05651 124.147 3.97691C124.323 3.89457 124.515 3.8534 124.723 3.8534ZM127.749 7.79747C127.875 7.79747 128 7.78649 128.124 7.76454C128.247 7.73984 128.36 7.71102 128.461 7.67808V8.4109C128.354 8.45756 128.216 8.49736 128.046 8.5303C127.875 8.56323 127.698 8.5797 127.515 8.5797C127.257 8.5797 127.025 8.53716 126.819 8.45207C126.613 8.36424 126.45 8.21466 126.329 8.00332C126.208 7.79198 126.148 7.49968 126.148 7.12641V4.6768H125.526V4.24452L126.193 3.90281L126.51 2.92708H127.119V3.93986H128.424V4.6768H127.119V7.11405C127.119 7.34461 127.177 7.51615 127.292 7.62868C127.408 7.74121 127.56 7.79747 127.749 7.79747ZM133.365 3.8534C133.941 3.8534 134.376 3.98103 134.67 4.23628C134.966 4.49154 135.115 4.88951 135.115 5.43021V8.49736H134.427L134.242 7.85099H134.209C134.08 8.01567 133.947 8.15153 133.809 8.25858C133.672 8.36562 133.513 8.44521 133.332 8.49736C133.153 8.55225 132.935 8.5797 132.677 8.5797C132.406 8.5797 132.163 8.5303 131.949 8.43149C131.734 8.32994 131.566 8.17624 131.442 7.97039C131.319 7.76454 131.257 7.5038 131.257 7.18816C131.257 6.71882 131.431 6.36614 131.78 6.1301C132.131 5.89406 132.661 5.76368 133.369 5.73898L134.159 5.71016V5.47138C134.159 5.15574 134.085 4.93068 133.937 4.79619C133.792 4.66171 133.586 4.59446 133.319 4.59446C133.092 4.59446 132.871 4.6274 132.657 4.69327C132.443 4.75914 132.234 4.84011 132.031 4.93617L131.718 4.25275C131.94 4.13473 132.193 4.03867 132.476 3.96456C132.761 3.89046 133.057 3.8534 133.365 3.8534ZM134.155 6.31948L133.567 6.34006C133.083 6.35653 132.744 6.43887 132.55 6.58708C132.355 6.73529 132.257 6.9384 132.257 7.19639C132.257 7.42146 132.325 7.58613 132.459 7.69043C132.594 7.79198 132.771 7.84276 132.99 7.84276C133.325 7.84276 133.602 7.74807 133.822 7.55869C134.044 7.36656 134.155 7.08524 134.155 6.71471V6.31948ZM143.781 8.49736H142.566L139.618 3.69284H139.581C139.592 3.85478 139.602 4.02632 139.61 4.20746C139.621 4.38861 139.629 4.57525 139.635 4.76737C139.643 4.9595 139.65 5.15437 139.656 5.35199V8.49736H138.758V2.47833H139.964L142.908 7.24991H142.937C142.931 7.10994 142.924 6.94937 142.916 6.76823C142.908 6.58708 142.9 6.40044 142.891 6.20832C142.886 6.01345 142.882 5.82544 142.879 5.64429V2.47833H143.781V8.49736ZM147.078 3.8534C147.485 3.8534 147.833 3.93712 148.124 4.10454C148.415 4.27196 148.639 4.50938 148.795 4.81678C148.952 5.12418 149.03 5.49196 149.03 5.92013V6.43887H145.987C145.998 6.88076 146.116 7.2211 146.342 7.45988C146.569 7.69867 146.888 7.81806 147.297 7.81806C147.588 7.81806 147.848 7.79061 148.079 7.73572C148.312 7.67808 148.552 7.59437 148.799 7.48458V8.27093C148.572 8.37797 148.34 8.45619 148.104 8.50559C147.868 8.555 147.585 8.5797 147.255 8.5797C146.808 8.5797 146.414 8.49324 146.074 8.32033C145.736 8.14467 145.471 7.88393 145.279 7.5381C145.09 7.19228 144.995 6.76274 144.995 6.24949C144.995 5.73898 145.082 5.30533 145.255 4.94852C145.428 4.59172 145.67 4.32 145.983 4.13336C146.296 3.94672 146.661 3.8534 147.078 3.8534ZM147.078 4.58211C146.774 4.58211 146.527 4.68092 146.337 4.87853C146.151 5.07615 146.041 5.36571 146.008 5.74722H148.083C148.08 5.51941 148.042 5.31768 147.968 5.14202C147.896 4.96636 147.787 4.82913 147.638 4.73032C147.493 4.63151 147.306 4.58211 147.078 4.58211ZM153.847 8.49324L153.27 6.373C153.243 6.2687 153.21 6.14245 153.172 5.99424C153.133 5.84602 153.095 5.6937 153.056 5.53725C153.018 5.37806 152.982 5.23122 152.949 5.09673C152.919 4.96224 152.896 4.85795 152.879 4.78384H152.846C152.833 4.85795 152.811 4.96224 152.78 5.09673C152.75 5.23122 152.716 5.37806 152.678 5.53725C152.639 5.69644 152.601 5.85151 152.562 6.00247C152.527 6.15343 152.494 6.28242 152.463 6.38947L151.858 8.49324H150.796L149.52 3.93574H150.5L151.093 6.20008C151.131 6.35378 151.168 6.51984 151.204 6.69824C151.242 6.87664 151.275 7.04681 151.302 7.20874C151.33 7.37068 151.351 7.5038 151.364 7.60809H151.397C151.408 7.53399 151.423 7.44067 151.442 7.32814C151.462 7.21286 151.484 7.09347 151.508 6.96996C151.533 6.84371 151.558 6.72569 151.582 6.6159C151.607 6.50337 151.63 6.41279 151.652 6.34418L152.352 3.93574H153.41L154.081 6.34418C154.112 6.44848 154.145 6.58022 154.18 6.73941C154.216 6.89585 154.247 7.05367 154.275 7.21286C154.305 7.36931 154.324 7.49968 154.333 7.60398H154.366C154.376 7.51066 154.396 7.3844 154.423 7.22521C154.453 7.06328 154.488 6.89174 154.526 6.71059C154.564 6.5267 154.604 6.35653 154.645 6.20008L155.251 3.93574H156.214L154.93 8.49324H153.847ZM161.85 3.23174C161.562 3.23174 161.304 3.28389 161.076 3.38819C160.851 3.49248 160.66 3.64344 160.504 3.84105C160.347 4.03592 160.228 4.27334 160.146 4.55329C160.063 4.8305 160.022 5.14339 160.022 5.49196C160.022 5.95855 160.088 6.36065 160.22 6.69824C160.352 7.03309 160.552 7.29108 160.821 7.47223C161.09 7.65063 161.43 7.73984 161.842 7.73984C162.097 7.73984 162.346 7.71513 162.587 7.66573C162.829 7.61633 163.078 7.54908 163.336 7.464V8.30386C163.092 8.39992 162.845 8.46991 162.595 8.51383C162.346 8.55774 162.057 8.5797 161.731 8.5797C161.116 8.5797 160.605 8.45207 160.199 8.19682C159.796 7.94157 159.494 7.58202 159.294 7.11817C159.096 6.65432 158.997 6.11088 158.997 5.48785C158.997 5.03223 159.06 4.61505 159.186 4.23628C159.313 3.85752 159.497 3.53091 159.738 3.25644C159.98 2.97923 160.277 2.76652 160.632 2.61831C160.988 2.46735 161.396 2.39188 161.854 2.39188C162.156 2.39188 162.453 2.42618 162.744 2.4948C163.037 2.56067 163.309 2.65536 163.559 2.77887L163.213 3.59403C163.004 3.49523 162.786 3.41014 162.558 3.33878C162.33 3.26742 162.094 3.23174 161.85 3.23174ZM168.565 6.20832C168.565 6.58708 168.516 6.9233 168.417 7.21698C168.318 7.51066 168.174 7.75905 167.984 7.96215C167.795 8.16251 167.567 8.31621 167.301 8.42325C167.035 8.52755 166.734 8.5797 166.399 8.5797C166.087 8.5797 165.8 8.52755 165.539 8.42325C165.278 8.31621 165.052 8.16251 164.86 7.96215C164.67 7.75905 164.523 7.51066 164.419 7.21698C164.315 6.9233 164.263 6.58708 164.263 6.20832C164.263 5.70605 164.349 5.28062 164.522 4.93205C164.698 4.58074 164.948 4.31313 165.271 4.12924C165.595 3.94535 165.981 3.8534 166.428 3.8534C166.848 3.8534 167.219 3.94535 167.54 4.12924C167.861 4.31313 168.112 4.58074 168.293 4.93205C168.474 5.28337 168.565 5.70879 168.565 6.20832ZM165.259 6.20832C165.259 6.54042 165.299 6.82449 165.378 7.06053C165.461 7.29657 165.587 7.47772 165.757 7.60398C165.927 7.72748 166.147 7.78924 166.416 7.78924C166.685 7.78924 166.904 7.72748 167.075 7.60398C167.245 7.47772 167.37 7.29657 167.449 7.06053C167.529 6.82449 167.569 6.54042 167.569 6.20832C167.569 5.87621 167.529 5.59489 167.449 5.36434C167.37 5.13104 167.245 4.95401 167.075 4.83325C166.904 4.70974 166.684 4.64798 166.412 4.64798C166.011 4.64798 165.719 4.78247 165.535 5.05145C165.351 5.32042 165.259 5.70605 165.259 6.20832ZM172.052 3.8534C172.565 3.8534 172.965 3.98652 173.25 4.25275C173.538 4.51624 173.682 4.94029 173.682 5.5249V8.49736H172.715V5.70605C172.715 5.35199 172.642 5.08713 172.497 4.91147C172.351 4.73307 172.126 4.64386 171.822 4.64386C171.38 4.64386 171.072 4.77973 170.899 5.05145C170.729 5.32317 170.644 5.71702 170.644 6.23302V8.49736H169.677V3.93986H170.43L170.566 4.55741H170.619C170.718 4.39822 170.84 4.26785 170.986 4.16629C171.134 4.062 171.299 3.98378 171.48 3.93163C171.664 3.87948 171.854 3.8534 172.052 3.8534ZM176.078 8.49736L174.345 3.93986H175.37L176.309 6.6159C176.369 6.78607 176.424 6.96996 176.474 7.16757C176.523 7.36519 176.557 7.53124 176.577 7.66573H176.61C176.629 7.52575 176.666 7.35833 176.721 7.16346C176.776 6.96584 176.832 6.78332 176.89 6.6159L177.828 3.93986H178.849L177.116 8.49736H176.078ZM181.356 3.8534C181.763 3.8534 182.111 3.93712 182.402 4.10454C182.693 4.27196 182.917 4.50938 183.073 4.81678C183.23 5.12418 183.308 5.49196 183.308 5.92013V6.43887H180.265C180.276 6.88076 180.394 7.2211 180.62 7.45988C180.847 7.69867 181.166 7.81806 181.575 7.81806C181.866 7.81806 182.126 7.79061 182.357 7.73572C182.59 7.67808 182.83 7.59437 183.077 7.48458V8.27093C182.85 8.37797 182.618 8.45619 182.382 8.50559C182.146 8.555 181.863 8.5797 181.533 8.5797C181.086 8.5797 180.692 8.49324 180.352 8.32033C180.014 8.14467 179.749 7.88393 179.557 7.5381C179.368 7.19228 179.273 6.76274 179.273 6.24949C179.273 5.73898 179.36 5.30533 179.533 4.94852C179.706 4.59172 179.948 4.32 180.261 4.13336C180.574 3.94672 180.939 3.8534 181.356 3.8534ZM181.356 4.58211C181.052 4.58211 180.805 4.68092 180.615 4.87853C180.429 5.07615 180.319 5.36571 180.286 5.74722H182.361C182.358 5.51941 182.32 5.31768 182.246 5.14202C182.174 4.96636 182.065 4.82913 181.916 4.73032C181.771 4.63151 181.584 4.58211 181.356 4.58211ZM186.709 3.8534C186.785 3.8534 186.869 3.85752 186.96 3.86576C187.05 3.87399 187.128 3.88497 187.194 3.89869L187.104 4.80443C187.046 4.78796 186.975 4.77561 186.89 4.76737C186.807 4.75914 186.733 4.75502 186.667 4.75502C186.494 4.75502 186.33 4.78384 186.173 4.84148C186.017 4.89637 185.878 4.98146 185.758 5.09673C185.637 5.20926 185.542 5.35061 185.473 5.52078C185.405 5.69095 185.371 5.88857 185.371 6.11363V8.49736H184.399V3.93986H185.156L185.288 4.74267H185.333C185.424 4.58074 185.537 4.43253 185.671 4.29804C185.806 4.16355 185.959 4.05651 186.132 3.97691C186.308 3.89457 186.5 3.8534 186.709 3.8534ZM191.101 7.19639C191.101 7.49556 191.029 7.74807 190.883 7.95392C190.738 8.15977 190.525 8.31621 190.245 8.42325C189.968 8.52755 189.627 8.5797 189.224 8.5797C188.906 8.5797 188.631 8.55637 188.401 8.50971C188.173 8.4658 187.957 8.39718 187.754 8.30386V7.46811C187.971 7.56967 188.214 7.6575 188.483 7.7316C188.755 7.80571 189.011 7.84276 189.253 7.84276C189.571 7.84276 189.8 7.79336 189.94 7.69455C190.08 7.593 190.15 7.45851 190.15 7.29108C190.15 7.19228 190.122 7.10445 190.064 7.0276C190.009 6.948 189.905 6.86704 189.751 6.7847C189.6 6.69961 189.378 6.59806 189.084 6.48004C188.796 6.36476 188.553 6.24949 188.355 6.13421C188.158 6.01894 188.008 5.88033 187.907 5.7184C187.805 5.55372 187.754 5.34375 187.754 5.0885C187.754 4.68503 187.913 4.37901 188.232 4.17041C188.553 3.95907 188.977 3.8534 189.504 3.8534C189.784 3.8534 190.047 3.88222 190.294 3.93986C190.544 3.99475 190.788 4.07572 191.027 4.18276L190.723 4.91147C190.517 4.8209 190.31 4.74679 190.101 4.68915C189.895 4.62877 189.685 4.59858 189.471 4.59858C189.221 4.59858 189.031 4.637 188.899 4.71385C188.77 4.7907 188.705 4.90049 188.705 5.04321C188.705 5.15025 188.737 5.24083 188.8 5.31493C188.863 5.38904 188.971 5.46314 189.125 5.53725C189.282 5.61136 189.498 5.7033 189.776 5.81309C190.047 5.91738 190.282 6.02717 190.48 6.14245C190.68 6.25498 190.834 6.39358 190.941 6.55826C191.048 6.72294 191.101 6.93565 191.101 7.19639ZM193.934 3.8534C194.51 3.8534 194.945 3.98103 195.239 4.23628C195.535 4.49154 195.684 4.88951 195.684 5.43021V8.49736H194.996L194.811 7.85099H194.778C194.649 8.01567 194.516 8.15153 194.378 8.25858C194.241 8.36562 194.082 8.44521 193.901 8.49736C193.722 8.55225 193.504 8.5797 193.246 8.5797C192.975 8.5797 192.732 8.5303 192.518 8.43149C192.304 8.32994 192.135 8.17624 192.011 7.97039C191.888 7.76454 191.826 7.5038 191.826 7.18816C191.826 6.71882 192 6.36614 192.349 6.1301C192.7 5.89406 193.23 5.76368 193.938 5.73898L194.728 5.71016V5.47138C194.728 5.15574 194.654 4.93068 194.506 4.79619C194.361 4.66171 194.155 4.59446 193.889 4.59446C193.661 4.59446 193.44 4.6274 193.226 4.69327C193.012 4.75914 192.803 4.84011 192.6 4.93617L192.287 4.25275C192.509 4.13473 192.762 4.03867 193.045 3.96456C193.33 3.89046 193.626 3.8534 193.934 3.8534ZM194.724 6.31948L194.136 6.34006C193.653 6.35653 193.314 6.43887 193.119 6.58708C192.924 6.73529 192.826 6.9384 192.826 7.19639C192.826 7.42146 192.894 7.58613 193.028 7.69043C193.163 7.79198 193.34 7.84276 193.559 7.84276C193.894 7.84276 194.171 7.74807 194.391 7.55869C194.613 7.36656 194.724 7.08524 194.724 6.71471V6.31948ZM198.734 7.79747C198.86 7.79747 198.985 7.78649 199.109 7.76454C199.232 7.73984 199.345 7.71102 199.446 7.67808V8.4109C199.339 8.45756 199.201 8.49736 199.031 8.5303C198.86 8.56323 198.683 8.5797 198.5 8.5797C198.242 8.5797 198.01 8.53716 197.804 8.45207C197.598 8.36424 197.435 8.21466 197.314 8.00332C197.193 7.79198 197.133 7.49968 197.133 7.12641V4.6768H196.511V4.24452L197.178 3.90281L197.495 2.92708H198.104V3.93986H199.409V4.6768H198.104V7.11405C198.104 7.34461 198.162 7.51615 198.277 7.62868C198.393 7.74121 198.545 7.79747 198.734 7.79747ZM201.34 3.93986V8.49736H200.373V3.93986H201.34ZM200.863 2.19426C201.011 2.19426 201.139 2.23406 201.246 2.31365C201.355 2.39325 201.41 2.53048 201.41 2.72535C201.41 2.91748 201.355 3.05471 201.246 3.13705C201.139 3.21664 201.011 3.25644 200.863 3.25644C200.709 3.25644 200.579 3.21664 200.472 3.13705C200.367 3.05471 200.315 2.91748 200.315 2.72535C200.315 2.53048 200.367 2.39325 200.472 2.31365C200.579 2.23406 200.709 2.19426 200.863 2.19426ZM206.762 6.20832C206.762 6.58708 206.713 6.9233 206.614 7.21698C206.515 7.51066 206.371 7.75905 206.182 7.96215C205.992 8.16251 205.765 8.31621 205.498 8.42325C205.232 8.52755 204.932 8.5797 204.597 8.5797C204.284 8.5797 203.997 8.52755 203.736 8.42325C203.476 8.31621 203.249 8.16251 203.057 7.96215C202.868 7.75905 202.721 7.51066 202.617 7.21698C202.512 6.9233 202.46 6.58708 202.46 6.20832C202.46 5.70605 202.547 5.28062 202.719 4.93205C202.895 4.58074 203.145 4.31313 203.469 4.12924C203.793 3.94535 204.178 3.8534 204.626 3.8534C205.046 3.8534 205.416 3.94535 205.737 4.12924C206.058 4.31313 206.309 4.58074 206.491 4.93205C206.672 5.28337 206.762 5.70879 206.762 6.20832ZM203.456 6.20832C203.456 6.54042 203.496 6.82449 203.576 7.06053C203.658 7.29657 203.784 7.47772 203.955 7.60398C204.125 7.72748 204.344 7.78924 204.613 7.78924C204.882 7.78924 205.102 7.72748 205.272 7.60398C205.442 7.47772 205.567 7.29657 205.647 7.06053C205.726 6.82449 205.766 6.54042 205.766 6.20832C205.766 5.87621 205.726 5.59489 205.647 5.36434C205.567 5.13104 205.442 4.95401 205.272 4.83325C205.102 4.70974 204.881 4.64798 204.609 4.64798C204.208 4.64798 203.916 4.78247 203.732 5.05145C203.548 5.32042 203.456 5.70605 203.456 6.20832ZM210.249 3.8534C210.763 3.8534 211.162 3.98652 211.447 4.25275C211.736 4.51624 211.88 4.94029 211.88 5.5249V8.49736H210.912V5.70605C210.912 5.35199 210.84 5.08713 210.694 4.91147C210.549 4.73307 210.324 4.64386 210.019 4.64386C209.577 4.64386 209.27 4.77973 209.097 5.05145C208.927 5.32317 208.841 5.71702 208.841 6.23302V8.49736H207.874V3.93986H208.627L208.763 4.55741H208.817C208.916 4.39822 209.038 4.26785 209.183 4.16629C209.331 4.062 209.496 3.98378 209.677 3.93163C209.861 3.87948 210.052 3.8534 210.249 3.8534ZM217.215 2.47833C217.734 2.47833 218.162 2.54146 218.5 2.66771C218.84 2.79397 219.093 2.98609 219.257 3.24409C219.425 3.50209 219.509 3.83007 219.509 4.22805C219.509 4.52447 219.454 4.77698 219.344 4.98557C219.234 5.19417 219.09 5.36708 218.912 5.50431C218.733 5.64155 218.542 5.75133 218.339 5.83367L220.048 8.49736H218.932L217.479 6.08481H216.511V8.49736H215.523V2.47833H217.215ZM217.149 3.30173H216.511V5.26965H217.195C217.653 5.26965 217.985 5.18456 218.191 5.01439C218.4 4.84422 218.504 4.59309 218.504 4.26099C218.504 3.91241 218.393 3.6654 218.17 3.51993C217.951 3.37446 217.611 3.30173 217.149 3.30173ZM221.777 3.93986V8.49736H220.809V3.93986H221.777ZM221.299 2.19426C221.448 2.19426 221.575 2.23406 221.682 2.31365C221.792 2.39325 221.847 2.53048 221.847 2.72535C221.847 2.91748 221.792 3.05471 221.682 3.13705C221.575 3.21664 221.448 3.25644 221.299 3.25644C221.146 3.25644 221.015 3.21664 220.908 3.13705C220.804 3.05471 220.752 2.91748 220.752 2.72535C220.752 2.53048 220.804 2.39325 220.908 2.31365C221.015 2.23406 221.146 2.19426 221.299 2.19426ZM224.465 10.5229C223.848 10.5229 223.374 10.4118 223.045 10.1894C222.716 9.96712 222.551 9.6556 222.551 9.25488C222.551 8.97493 222.639 8.73752 222.814 8.54265C222.99 8.35052 223.241 8.21741 223.568 8.1433C223.444 8.08841 223.337 8.00332 223.247 7.88805C223.159 7.77003 223.115 7.63966 223.115 7.49693C223.115 7.32676 223.163 7.1813 223.259 7.06053C223.355 6.93977 223.499 6.82312 223.691 6.71059C223.453 6.60904 223.26 6.44436 223.115 6.21655C222.972 5.986 222.901 5.71565 222.901 5.40551C222.901 5.07615 222.971 4.79619 223.111 4.56564C223.251 4.33235 223.455 4.15532 223.724 4.03455C223.993 3.91104 224.319 3.84929 224.7 3.84929C224.782 3.84929 224.872 3.85478 224.968 3.86576C225.066 3.87399 225.157 3.88497 225.239 3.89869C225.324 3.90967 225.389 3.92202 225.433 3.93574H227.01V4.47507L226.236 4.61916C226.31 4.72346 226.369 4.84285 226.413 4.97734C226.457 5.10908 226.479 5.25318 226.479 5.40962C226.479 5.8817 226.315 6.2536 225.989 6.52533C225.665 6.7943 225.217 6.92879 224.647 6.92879C224.509 6.9233 224.376 6.91232 224.247 6.89585C224.148 6.95624 224.073 7.02348 224.021 7.09759C223.969 7.16895 223.943 7.24991 223.943 7.34049C223.943 7.41459 223.969 7.47498 224.021 7.52164C224.073 7.56555 224.15 7.59849 224.251 7.62044C224.356 7.6424 224.482 7.65338 224.63 7.65338H225.416C225.916 7.65338 226.297 7.75905 226.561 7.97039C226.824 8.18172 226.956 8.49187 226.956 8.90082C226.956 9.41956 226.742 9.81891 226.314 10.0989C225.886 10.3816 225.27 10.5229 224.465 10.5229ZM224.502 9.84361C224.84 9.84361 225.124 9.81068 225.355 9.74481C225.585 9.67893 225.759 9.58424 225.877 9.46073C225.996 9.33997 226.055 9.19587 226.055 9.02845C226.055 8.88024 226.017 8.76634 225.943 8.68674C225.869 8.60715 225.758 8.55225 225.61 8.52206C225.462 8.49187 225.278 8.47678 225.058 8.47678H224.342C224.163 8.47678 224.006 8.50422 223.868 8.55911C223.731 8.61675 223.624 8.69909 223.547 8.80613C223.473 8.91318 223.436 9.04217 223.436 9.19313C223.436 9.40172 223.528 9.56229 223.712 9.67482C223.899 9.78735 224.162 9.84361 224.502 9.84361ZM224.692 6.29477C224.975 6.29477 225.184 6.21792 225.322 6.06422C225.459 5.90778 225.528 5.68821 225.528 5.40551C225.528 5.09811 225.456 4.86755 225.313 4.71385C225.173 4.56015 224.965 4.4833 224.688 4.4833C224.416 4.4833 224.209 4.56153 224.066 4.71797C223.926 4.87442 223.856 5.10634 223.856 5.41374C223.856 5.69095 223.926 5.90778 224.066 6.06422C224.209 6.21792 224.417 6.29477 224.692 6.29477ZM228.809 2.09134V3.70108C228.809 3.8685 228.803 4.03181 228.792 4.191C228.784 4.35019 228.774 4.4737 228.763 4.56153H228.817C228.913 4.40234 229.031 4.27196 229.171 4.17041C229.311 4.06612 229.468 3.98789 229.64 3.93574C229.816 3.8836 230.003 3.85752 230.2 3.85752C230.549 3.85752 230.845 3.91653 231.09 4.03455C231.334 4.14983 231.521 4.3296 231.65 4.57388C231.781 4.81815 231.847 5.13516 231.847 5.5249V8.49736H230.88V5.70605C230.88 5.35199 230.807 5.08713 230.661 4.91147C230.516 4.73307 230.291 4.64386 229.986 4.64386C229.693 4.64386 229.459 4.70562 229.286 4.82913C229.116 4.94989 228.994 5.12967 228.92 5.36845C228.846 5.60449 228.809 5.89268 228.809 6.23302V8.49736H227.841V2.09134H228.809ZM234.898 7.79747C235.024 7.79747 235.149 7.78649 235.272 7.76454C235.396 7.73984 235.508 7.71102 235.61 7.67808V8.4109C235.503 8.45756 235.364 8.49736 235.194 8.5303C235.024 8.56323 234.847 8.5797 234.663 8.5797C234.405 8.5797 234.173 8.53716 233.967 8.45207C233.762 8.36424 233.598 8.21466 233.477 8.00332C233.357 7.79198 233.296 7.49968 233.296 7.12641V4.6768H232.675V4.24452L233.342 3.90281L233.659 2.92708H234.268V3.93986H235.573V4.6768H234.268V7.11405C234.268 7.34461 234.326 7.51615 234.441 7.62868C234.556 7.74121 234.708 7.79747 234.898 7.79747ZM243.848 8.49736H242.634L239.686 3.69284H239.649C239.66 3.85478 239.669 4.02632 239.678 4.20746C239.689 4.38861 239.697 4.57525 239.702 4.76737C239.711 4.9595 239.717 5.15437 239.723 5.35199V8.49736H238.825V2.47833H240.032L242.975 7.24991H243.004C242.999 7.10994 242.992 6.94937 242.984 6.76823C242.975 6.58708 242.967 6.40044 242.959 6.20832C242.953 6.01345 242.949 5.82544 242.947 5.64429V2.47833H243.848V8.49736ZM249.365 6.20832C249.365 6.58708 249.315 6.9233 249.217 7.21698C249.118 7.51066 248.974 7.75905 248.784 7.96215C248.595 8.16251 248.367 8.31621 248.101 8.42325C247.835 8.52755 247.534 8.5797 247.199 8.5797C246.886 8.5797 246.6 8.52755 246.339 8.42325C246.078 8.31621 245.852 8.16251 245.66 7.96215C245.47 7.75905 245.323 7.51066 245.219 7.21698C245.115 6.9233 245.063 6.58708 245.063 6.20832C245.063 5.70605 245.149 5.28062 245.322 4.93205C245.498 4.58074 245.747 4.31313 246.071 4.12924C246.395 3.94535 246.781 3.8534 247.228 3.8534C247.648 3.8534 248.019 3.94535 248.34 4.12924C248.661 4.31313 248.912 4.58074 249.093 4.93205C249.274 5.28337 249.365 5.70879 249.365 6.20832ZM246.059 6.20832C246.059 6.54042 246.099 6.82449 246.178 7.06053C246.261 7.29657 246.387 7.47772 246.557 7.60398C246.727 7.72748 246.947 7.78924 247.216 7.78924C247.485 7.78924 247.704 7.72748 247.875 7.60398C248.045 7.47772 248.17 7.29657 248.249 7.06053C248.329 6.82449 248.369 6.54042 248.369 6.20832C248.369 5.87621 248.329 5.59489 248.249 5.36434C248.17 5.13104 248.045 4.95401 247.875 4.83325C247.704 4.70974 247.483 4.64798 247.212 4.64798C246.811 4.64798 246.519 4.78247 246.335 5.05145C246.151 5.32042 246.059 5.70605 246.059 6.20832ZM254.202 8.49324L253.626 6.373C253.599 6.2687 253.566 6.14245 253.527 5.99424C253.489 5.84602 253.45 5.6937 253.412 5.53725C253.373 5.37806 253.338 5.23122 253.305 5.09673C253.275 4.96224 253.251 4.85795 253.235 4.78384H253.202C253.188 4.85795 253.166 4.96224 253.136 5.09673C253.106 5.23122 253.072 5.37806 253.033 5.53725C252.995 5.69644 252.956 5.85151 252.918 6.00247C252.882 6.15343 252.849 6.28242 252.819 6.38947L252.214 8.49324H251.152L249.875 3.93574H250.855L251.448 6.20008C251.486 6.35378 251.524 6.51984 251.559 6.69824C251.598 6.87664 251.631 7.04681 251.658 7.20874C251.685 7.37068 251.706 7.5038 251.72 7.60809H251.753C251.764 7.53399 251.779 7.44067 251.798 7.32814C251.817 7.21286 251.839 7.09347 251.864 6.96996C251.889 6.84371 251.913 6.72569 251.938 6.6159C251.963 6.50337 251.986 6.41279 252.008 6.34418L252.708 3.93574H253.766L254.437 6.34418C254.467 6.44848 254.5 6.58022 254.536 6.73941C254.571 6.89585 254.603 7.05367 254.63 7.21286C254.661 7.36931 254.68 7.49968 254.688 7.60398H254.721C254.732 7.51066 254.751 7.3844 254.779 7.22521C254.809 7.06328 254.843 6.89174 254.882 6.71059C254.92 6.5267 254.96 6.35653 255.001 6.20008L255.606 3.93574H256.57L255.285 8.49324H254.202Z" fill="#868E96"/>
<path d="M98.5009 23.5573L96.9282 29.5763H95.8495L94.845 25.9698C94.8203 25.882 94.7928 25.7777 94.7626 25.6569C94.7324 25.5362 94.7023 25.4127 94.6721 25.2864C94.6446 25.1602 94.6199 25.0449 94.598 24.9406C94.5787 24.8335 94.565 24.7512 94.5568 24.6936C94.5513 24.7512 94.5389 24.8322 94.5197 24.9365C94.5005 25.0408 94.4772 25.156 94.4497 25.2823C94.425 25.4058 94.3976 25.5293 94.3674 25.6528C94.3372 25.7736 94.3098 25.8806 94.2851 25.9739L93.297 29.5763H92.2225L90.6539 23.5573H91.6461L92.5148 27.0855C92.5422 27.1981 92.5697 27.3202 92.5971 27.4519C92.6273 27.5809 92.6547 27.7113 92.6794 27.8431C92.7069 27.9748 92.7316 28.1038 92.7535 28.2301C92.7755 28.3536 92.7933 28.4661 92.8071 28.5676C92.8208 28.4634 92.8386 28.3481 92.8606 28.2218C92.8825 28.0928 92.9059 27.9625 92.9306 27.8307C92.958 27.6962 92.9855 27.5672 93.0129 27.4437C93.0431 27.3202 93.0733 27.209 93.1035 27.1102L94.0833 23.5573H95.0467L96.0471 27.1226C96.0773 27.2241 96.1061 27.338 96.1336 27.4643C96.1638 27.5906 96.1926 27.7196 96.22 27.8513C96.2475 27.983 96.2722 28.1107 96.2942 28.2342C96.3161 28.3577 96.334 28.4688 96.3477 28.5676C96.3669 28.4332 96.3916 28.2795 96.4218 28.1065C96.452 27.9336 96.4863 27.758 96.5247 27.5796C96.5631 27.4012 96.6016 27.2365 96.64 27.0855L97.5045 23.5573H98.5009ZM101.07 24.9324C101.476 24.9324 101.825 25.0161 102.116 25.1835C102.406 25.3509 102.63 25.5883 102.787 25.8957C102.943 26.2031 103.021 26.5709 103.021 26.9991V27.5178H99.9789C99.9898 27.9597 100.108 28.3 100.333 28.5388C100.561 28.7776 100.879 28.897 101.288 28.897C101.579 28.897 101.84 28.8696 102.07 28.8147C102.304 28.757 102.544 28.6733 102.791 28.5635V29.3499C102.563 29.4569 102.331 29.5351 102.095 29.5845C101.859 29.6339 101.576 29.6586 101.247 29.6586C100.8 29.6586 100.406 29.5722 100.065 29.3993C99.7277 29.2236 99.4629 28.9629 99.2707 28.6171C99.0813 28.2712 98.9867 27.8417 98.9867 27.3284C98.9867 26.8179 99.0731 26.3843 99.246 26.0275C99.4189 25.6707 99.6618 25.3989 99.9747 25.2123C100.288 25.0257 100.653 24.9324 101.07 24.9324ZM101.07 25.6611C100.765 25.6611 100.518 25.7599 100.329 25.9575C100.142 26.1551 100.032 26.4447 99.9994 26.8262H102.074C102.072 26.5984 102.033 26.3966 101.959 26.221C101.888 26.0453 101.778 25.9081 101.63 25.8093C101.484 25.7105 101.298 25.6611 101.07 25.6611ZM108.089 24.9324C108.666 24.9324 109.101 25.06 109.394 25.3152C109.691 25.5705 109.839 25.9685 109.839 26.5092V29.5763H109.151L108.966 28.9299H108.933C108.804 29.0946 108.671 29.2305 108.534 29.3375C108.397 29.4446 108.238 29.5242 108.056 29.5763C107.878 29.6312 107.66 29.6586 107.402 29.6586C107.13 29.6586 106.887 29.6092 106.673 29.5104C106.459 29.4089 106.29 29.2552 106.167 29.0493C106.043 28.8435 105.981 28.5827 105.981 28.2671C105.981 27.7978 106.156 27.4451 106.504 27.209C106.856 26.973 107.385 26.8426 108.093 26.8179L108.884 26.7891V26.5503C108.884 26.2347 108.81 26.0096 108.662 25.8751C108.516 25.7407 108.31 25.6734 108.044 25.6734C107.816 25.6734 107.595 25.7063 107.381 25.7722C107.167 25.8381 106.959 25.9191 106.755 26.0151L106.443 25.3317C106.665 25.2137 106.917 25.1176 107.2 25.0435C107.485 24.9694 107.782 24.9324 108.089 24.9324ZM108.88 27.3984L108.291 27.419C107.808 27.4355 107.469 27.5178 107.274 27.666C107.079 27.8142 106.982 28.0173 106.982 28.2753C106.982 28.5004 107.049 28.6651 107.184 28.7694C107.318 28.8709 107.495 28.9217 107.715 28.9217C108.05 28.9217 108.327 28.827 108.546 28.6376C108.769 28.4455 108.88 28.1642 108.88 27.7937V27.3984ZM113.503 24.9324C113.58 24.9324 113.664 24.9365 113.754 24.9447C113.845 24.9529 113.923 24.9639 113.989 24.9776L113.898 25.8834C113.841 25.8669 113.769 25.8546 113.684 25.8463C113.602 25.8381 113.528 25.834 113.462 25.834C113.289 25.834 113.124 25.8628 112.968 25.9204C112.811 25.9753 112.673 26.0604 112.552 26.1757C112.431 26.2882 112.337 26.4296 112.268 26.5997C112.199 26.7699 112.165 26.9675 112.165 27.1926V29.5763H111.194V25.0188H111.951L112.083 25.8216H112.128C112.219 25.6597 112.331 25.5115 112.466 25.377C112.6 25.2425 112.754 25.1355 112.927 25.0559C113.102 24.9735 113.295 24.9324 113.503 24.9324ZM116.649 24.9324C117.055 24.9324 117.403 25.0161 117.694 25.1835C117.985 25.3509 118.209 25.5883 118.365 25.8957C118.522 26.2031 118.6 26.5709 118.6 26.9991V27.5178H115.558C115.568 27.9597 115.687 28.3 115.912 28.5388C116.139 28.7776 116.458 28.897 116.867 28.897C117.158 28.897 117.418 28.8696 117.649 28.8147C117.882 28.757 118.122 28.6733 118.369 28.5635V29.3499C118.142 29.4569 117.91 29.5351 117.674 29.5845C117.438 29.6339 117.155 29.6586 116.826 29.6586C116.378 29.6586 115.984 29.5722 115.644 29.3993C115.306 29.2236 115.042 28.9629 114.849 28.6171C114.66 28.2712 114.565 27.8417 114.565 27.3284C114.565 26.8179 114.652 26.3843 114.825 26.0275C114.998 25.6707 115.241 25.3989 115.553 25.2123C115.866 25.0257 116.231 24.9324 116.649 24.9324ZM116.649 25.6611C116.344 25.6611 116.097 25.7599 115.907 25.9575C115.721 26.1551 115.611 26.4447 115.578 26.8262H117.653C117.65 26.5984 117.612 26.3966 117.538 26.221C117.466 26.0453 117.357 25.9081 117.208 25.8093C117.063 25.7105 116.876 25.6611 116.649 25.6611ZM122.849 23.1703V24.78C122.849 24.9474 122.843 25.1108 122.832 25.2699C122.824 25.4291 122.814 25.5526 122.803 25.6405H122.857C122.953 25.4813 123.071 25.3509 123.211 25.2494C123.351 25.1451 123.507 25.0668 123.68 25.0147C123.856 24.9625 124.043 24.9365 124.24 24.9365C124.589 24.9365 124.885 24.9955 125.129 25.1135C125.374 25.2288 125.56 25.4086 125.689 25.6528C125.821 25.8971 125.887 26.2141 125.887 26.6038V29.5763H124.92V26.785C124.92 26.4309 124.847 26.1661 124.701 25.9904C124.556 25.812 124.331 25.7228 124.026 25.7228C123.732 25.7228 123.499 25.7846 123.326 25.9081C123.156 26.0288 123.034 26.2086 122.96 26.4474C122.886 26.6834 122.849 26.9716 122.849 27.312V29.5763H121.881V23.1703H122.849ZM129.057 24.9324C129.463 24.9324 129.812 25.0161 130.103 25.1835C130.394 25.3509 130.617 25.5883 130.774 25.8957C130.93 26.2031 131.009 26.5709 131.009 26.9991V27.5178H127.966C127.977 27.9597 128.095 28.3 128.32 28.5388C128.548 28.7776 128.866 28.897 129.275 28.897C129.566 28.897 129.827 28.8696 130.058 28.8147C130.291 28.757 130.531 28.6733 130.778 28.5635V29.3499C130.55 29.4569 130.318 29.5351 130.082 29.5845C129.846 29.6339 129.563 29.6586 129.234 29.6586C128.787 29.6586 128.393 29.5722 128.053 29.3993C127.715 29.2236 127.45 28.9629 127.258 28.6171C127.069 28.2712 126.974 27.8417 126.974 27.3284C126.974 26.8179 127.06 26.3843 127.233 26.0275C127.406 25.6707 127.649 25.3989 127.962 25.2123C128.275 25.0257 128.64 24.9324 129.057 24.9324ZM129.057 25.6611C128.752 25.6611 128.505 25.7599 128.316 25.9575C128.129 26.1551 128.02 26.4447 127.987 26.8262H130.062C130.059 26.5984 130.02 26.3966 129.946 26.221C129.875 26.0453 129.765 25.9081 129.617 25.8093C129.472 25.7105 129.285 25.6611 129.057 25.6611ZM134.409 24.9324C134.486 24.9324 134.57 24.9365 134.66 24.9447C134.751 24.9529 134.829 24.9639 134.895 24.9776L134.804 25.8834C134.747 25.8669 134.675 25.8546 134.59 25.8463C134.508 25.8381 134.434 25.834 134.368 25.834C134.195 25.834 134.03 25.8628 133.874 25.9204C133.718 25.9753 133.579 26.0604 133.458 26.1757C133.337 26.2882 133.243 26.4296 133.174 26.5997C133.105 26.7699 133.071 26.9675 133.071 27.1926V29.5763H132.1V25.0188H132.857L132.989 25.8216H133.034C133.125 25.6597 133.237 25.5115 133.372 25.377C133.506 25.2425 133.66 25.1355 133.833 25.0559C134.008 24.9735 134.201 24.9324 134.409 24.9324ZM137.555 24.9324C137.961 24.9324 138.309 25.0161 138.6 25.1835C138.891 25.3509 139.115 25.5883 139.271 25.8957C139.428 26.2031 139.506 26.5709 139.506 26.9991V27.5178H136.464C136.475 27.9597 136.593 28.3 136.818 28.5388C137.045 28.7776 137.364 28.897 137.773 28.897C138.064 28.897 138.324 28.8696 138.555 28.8147C138.788 28.757 139.028 28.6733 139.275 28.5635V29.3499C139.048 29.4569 138.816 29.5351 138.58 29.5845C138.344 29.6339 138.061 29.6586 137.732 29.6586C137.284 29.6586 136.89 29.5722 136.55 29.3993C136.212 29.2236 135.948 28.9629 135.755 28.6171C135.566 28.2712 135.471 27.8417 135.471 27.3284C135.471 26.8179 135.558 26.3843 135.731 26.0275C135.904 25.6707 136.147 25.3989 136.459 25.2123C136.772 25.0257 137.137 24.9324 137.555 24.9324ZM137.555 25.6611C137.25 25.6611 137.003 25.7599 136.813 25.9575C136.627 26.1551 136.517 26.4447 136.484 26.8262H138.559C138.556 26.5984 138.518 26.3966 138.444 26.221C138.372 26.0453 138.263 25.9081 138.114 25.8093C137.969 25.7105 137.782 25.6611 137.555 25.6611ZM145.85 28.2753C145.85 28.5745 145.778 28.827 145.632 29.0329C145.487 29.2387 145.274 29.3952 144.994 29.5022C144.717 29.6065 144.376 29.6586 143.973 29.6586C143.655 29.6586 143.38 29.6353 143.15 29.5887C142.922 29.5447 142.706 29.4761 142.503 29.3828V28.5471C142.72 28.6486 142.963 28.7364 143.232 28.8106C143.504 28.8847 143.76 28.9217 144.002 28.9217C144.32 28.9217 144.549 28.8723 144.689 28.7735C144.829 28.6719 144.899 28.5375 144.899 28.37C144.899 28.2712 144.87 28.1834 144.813 28.1065C144.758 28.027 144.654 27.946 144.5 27.8636C144.349 27.7786 144.127 27.677 143.833 27.559C143.545 27.4437 143.302 27.3284 143.104 27.2132C142.907 27.0979 142.757 26.9593 142.655 26.7973C142.554 26.6327 142.503 26.4227 142.503 26.1674C142.503 25.764 142.662 25.458 142.981 25.2494C143.302 25.038 143.726 24.9324 144.253 24.9324C144.533 24.9324 144.796 24.9612 145.043 25.0188C145.293 25.0737 145.537 25.1547 145.776 25.2617L145.472 25.9904C145.266 25.8998 145.058 25.8257 144.85 25.7681C144.644 25.7077 144.434 25.6775 144.22 25.6775C143.97 25.6775 143.779 25.716 143.648 25.7928C143.519 25.8697 143.454 25.9794 143.454 26.1222C143.454 26.2292 143.486 26.3198 143.549 26.3939C143.612 26.468 143.72 26.5421 143.874 26.6162C144.031 26.6903 144.247 26.7823 144.525 26.892C144.796 26.9963 145.031 27.1061 145.229 27.2214C145.429 27.3339 145.583 27.4725 145.69 27.6372C145.797 27.8019 145.85 28.0146 145.85 28.2753ZM148.592 28.8764C148.718 28.8764 148.843 28.8654 148.967 28.8435C149.09 28.8188 149.203 28.79 149.304 28.757V29.4899C149.197 29.5365 149.059 29.5763 148.889 29.6092C148.718 29.6422 148.541 29.6586 148.358 29.6586C148.1 29.6586 147.868 29.6161 147.662 29.531C147.456 29.4432 147.293 29.2936 147.172 29.0823C147.051 28.8709 146.991 28.5786 146.991 28.2054V25.7557H146.369V25.3235L147.036 24.9818L147.353 24.006H147.962V25.0188H149.267V25.7557H147.962V28.193C147.962 28.4236 148.02 28.5951 148.135 28.7076C148.25 28.8202 148.403 28.8764 148.592 28.8764ZM152.018 24.9324C152.594 24.9324 153.029 25.06 153.323 25.3152C153.619 25.5705 153.767 25.9685 153.767 26.5092V29.5763H153.08L152.894 28.9299H152.861C152.732 29.0946 152.599 29.2305 152.462 29.3375C152.325 29.4446 152.166 29.5242 151.985 29.5763C151.806 29.6312 151.588 29.6586 151.33 29.6586C151.058 29.6586 150.815 29.6092 150.601 29.5104C150.387 29.4089 150.218 29.2552 150.095 29.0493C149.971 28.8435 149.91 28.5827 149.91 28.2671C149.91 27.7978 150.084 27.4451 150.432 27.209C150.784 26.973 151.314 26.8426 152.022 26.8179L152.812 26.7891V26.5503C152.812 26.2347 152.738 26.0096 152.59 25.8751C152.444 25.7407 152.238 25.6734 151.972 25.6734C151.744 25.6734 151.523 25.7063 151.309 25.7722C151.095 25.8381 150.887 25.9191 150.684 26.0151L150.371 25.3317C150.593 25.2137 150.846 25.1176 151.128 25.0435C151.414 24.9694 151.71 24.9324 152.018 24.9324ZM152.808 27.3984L152.219 27.419C151.736 27.4355 151.397 27.5178 151.202 27.666C151.007 27.8142 150.91 28.0173 150.91 28.2753C150.91 28.5004 150.977 28.6651 151.112 28.7694C151.246 28.8709 151.423 28.9217 151.643 28.9217C151.978 28.9217 152.255 28.827 152.474 28.6376C152.697 28.4455 152.808 28.1642 152.808 27.7937V27.3984ZM157.497 24.9324C158.01 24.9324 158.41 25.0655 158.695 25.3317C158.983 25.5952 159.128 26.0192 159.128 26.6038V29.5763H158.16V26.785C158.16 26.4309 158.087 26.1661 157.942 25.9904C157.796 25.812 157.571 25.7228 157.267 25.7228C156.825 25.7228 156.517 25.8587 156.344 26.1304C156.174 26.4021 156.089 26.796 156.089 27.312V29.5763H155.122V25.0188H155.875L156.011 25.6364H156.065C156.163 25.4772 156.285 25.3468 156.431 25.2452C156.579 25.1409 156.744 25.0627 156.925 25.0106C157.109 24.9584 157.3 24.9324 157.497 24.9324ZM162.014 29.6586C161.47 29.6586 161.034 29.461 160.704 29.0658C160.378 28.6678 160.214 28.0818 160.214 27.3079C160.214 26.5256 160.38 25.9342 160.713 25.5334C161.047 25.1327 161.488 24.9324 162.034 24.9324C162.265 24.9324 162.466 24.9639 162.639 25.027C162.812 25.0874 162.96 25.1698 163.084 25.2741C163.21 25.3784 163.317 25.495 163.405 25.624H163.45C163.437 25.5389 163.42 25.4168 163.401 25.2576C163.384 25.0957 163.376 24.9461 163.376 24.8088V23.1703H164.348V29.5763H163.59L163.417 28.9546H163.376C163.294 29.0864 163.19 29.2058 163.063 29.3128C162.94 29.4171 162.792 29.5008 162.619 29.564C162.449 29.6271 162.247 29.6586 162.014 29.6586ZM162.285 28.8723C162.7 28.8723 162.992 28.7529 163.162 28.5141C163.332 28.2753 163.42 27.9172 163.426 27.4396V27.312C163.426 26.8015 163.343 26.4103 163.179 26.1386C163.014 25.8642 162.713 25.7269 162.277 25.7269C161.928 25.7269 161.662 25.8683 161.478 26.151C161.297 26.4309 161.207 26.822 161.207 27.3243C161.207 27.8266 161.297 28.2108 161.478 28.4771C161.662 28.7406 161.931 28.8723 162.285 28.8723ZM166.703 25.0188V29.5763H165.735V25.0188H166.703ZM166.225 23.2732C166.373 23.2732 166.501 23.313 166.608 23.3926C166.718 23.4722 166.773 23.6094 166.773 23.8043C166.773 23.9964 166.718 24.1337 166.608 24.216C166.501 24.2956 166.373 24.3354 166.225 24.3354C166.072 24.3354 165.941 24.2956 165.834 24.216C165.73 24.1337 165.678 23.9964 165.678 23.8043C165.678 23.6094 165.73 23.4722 165.834 23.3926C165.941 23.313 166.072 23.2732 166.225 23.2732ZM170.466 24.9324C170.979 24.9324 171.378 25.0655 171.664 25.3317C171.952 25.5952 172.096 26.0192 172.096 26.6038V29.5763H171.129V26.785C171.129 26.4309 171.056 26.1661 170.91 25.9904C170.765 25.812 170.54 25.7228 170.235 25.7228C169.793 25.7228 169.486 25.8587 169.313 26.1304C169.143 26.4021 169.058 26.796 169.058 27.312V29.5763H168.09V25.0188H168.844L168.979 25.6364H169.033C169.132 25.4772 169.254 25.3468 169.399 25.2452C169.548 25.1409 169.712 25.0627 169.893 25.0106C170.077 24.9584 170.268 24.9324 170.466 24.9324ZM174.751 31.6019C174.134 31.6019 173.66 31.4907 173.331 31.2684C173.002 31.0461 172.837 30.7346 172.837 30.3338C172.837 30.0539 172.925 29.8165 173.101 29.6216C173.276 29.4295 173.527 29.2964 173.854 29.2222C173.73 29.1674 173.623 29.0823 173.533 28.967C173.445 28.849 173.401 28.7186 173.401 28.5759C173.401 28.4057 173.449 28.2602 173.545 28.1395C173.641 28.0187 173.785 27.9021 173.977 27.7895C173.739 27.688 173.547 27.5233 173.401 27.2955C173.258 27.065 173.187 26.7946 173.187 26.4845C173.187 26.1551 173.257 25.8751 173.397 25.6446C173.537 25.4113 173.741 25.2343 174.01 25.1135C174.279 24.99 174.605 24.9282 174.986 24.9282C175.068 24.9282 175.158 24.9337 175.254 24.9447C175.353 24.9529 175.443 24.9639 175.525 24.9776C175.611 24.9886 175.675 25.001 175.719 25.0147H177.296V25.554L176.522 25.6981C176.596 25.8024 176.655 25.9218 176.699 26.0563C176.743 26.188 176.765 26.3321 176.765 26.4886C176.765 26.9607 176.601 27.3326 176.275 27.6043C175.951 27.8733 175.504 28.0077 174.933 28.0077C174.795 28.0022 174.662 27.9913 174.533 27.9748C174.434 28.0352 174.359 28.1024 174.307 28.1765C174.255 28.2479 174.229 28.3289 174.229 28.4194C174.229 28.4935 174.255 28.5539 174.307 28.6006C174.359 28.6445 174.436 28.6774 174.537 28.6994C174.642 28.7213 174.768 28.7323 174.916 28.7323H175.703C176.202 28.7323 176.584 28.838 176.847 29.0493C177.111 29.2607 177.242 29.5708 177.242 29.9798C177.242 30.4985 177.028 30.8979 176.6 31.1778C176.172 31.4605 175.556 31.6019 174.751 31.6019ZM174.789 30.9226C175.126 30.9226 175.41 30.8896 175.641 30.8238C175.871 30.7579 176.046 30.6632 176.164 30.5397C176.282 30.4189 176.341 30.2748 176.341 30.1074C176.341 29.9592 176.304 29.8453 176.229 29.7657C176.155 29.6861 176.044 29.6312 175.896 29.601C175.748 29.5708 175.564 29.5557 175.344 29.5557H174.628C174.45 29.5557 174.292 29.5832 174.155 29.6381C174.017 29.6957 173.91 29.778 173.833 29.8851C173.759 29.9921 173.722 30.1211 173.722 30.2721C173.722 30.4807 173.814 30.6412 173.998 30.7538C174.185 30.8663 174.448 30.9226 174.789 30.9226ZM174.978 27.3737C175.261 27.3737 175.471 27.2969 175.608 27.1432C175.745 26.9867 175.814 26.7672 175.814 26.4845C175.814 26.1771 175.742 25.9465 175.6 25.7928C175.46 25.6391 175.251 25.5623 174.974 25.5623C174.702 25.5623 174.495 25.6405 174.352 25.7969C174.212 25.9534 174.142 26.1853 174.142 26.4927C174.142 26.7699 174.212 26.9867 174.352 27.1432C174.495 27.2969 174.703 27.3737 174.978 27.3737ZM181.285 23.1703V24.7142C181.285 24.8926 181.28 25.0682 181.269 25.2411C181.26 25.4113 181.252 25.5444 181.244 25.6405H181.285C181.409 25.4429 181.58 25.2768 181.8 25.1423C182.022 25.0051 182.306 24.9365 182.652 24.9365C183.193 24.9365 183.628 25.1355 183.957 25.5334C184.286 25.9287 184.451 26.5146 184.451 27.2914C184.451 27.8074 184.376 28.241 184.225 28.5924C184.074 28.9437 183.861 29.2099 183.587 29.391C183.315 29.5694 182.995 29.6586 182.627 29.6586C182.281 29.6586 182.001 29.5955 181.787 29.4693C181.576 29.3403 181.41 29.1907 181.289 29.0205H181.219L181.042 29.5763H180.318V23.1703H181.285ZM182.397 25.7228C182.122 25.7228 181.904 25.7777 181.742 25.8875C181.583 25.9973 181.468 26.162 181.396 26.3815C181.325 26.5984 181.288 26.8742 181.285 27.209V27.2955C181.285 27.8033 181.365 28.1916 181.524 28.4606C181.686 28.7296 181.98 28.8641 182.405 28.8641C182.743 28.8641 183.002 28.7282 183.183 28.4565C183.364 28.182 183.455 27.7895 183.455 27.279C183.455 26.763 183.364 26.3747 183.183 26.1139C183.005 25.8532 182.743 25.7228 182.397 25.7228ZM184.883 25.0188H185.937L186.872 27.6207C186.913 27.7388 186.95 27.8554 186.983 27.9707C187.019 28.0832 187.049 28.1944 187.074 28.3042C187.101 28.4139 187.123 28.5237 187.139 28.6335H187.164C187.192 28.4908 187.23 28.3316 187.279 28.156C187.332 27.9775 187.389 27.7991 187.452 27.6207L188.35 25.0188H189.391L187.436 30.2021C187.323 30.4985 187.185 30.751 187.02 30.9596C186.858 31.171 186.666 31.3301 186.444 31.4372C186.221 31.547 185.968 31.6019 185.682 31.6019C185.545 31.6019 185.425 31.5936 185.324 31.5772C185.222 31.5634 185.136 31.5483 185.065 31.5319V30.7579C185.122 30.7716 185.195 30.784 185.283 30.7949C185.371 30.8059 185.461 30.8114 185.554 30.8114C185.727 30.8114 185.877 30.7771 186.003 30.7085C186.129 30.6399 186.236 30.5424 186.324 30.4162C186.412 30.2927 186.485 30.1513 186.543 29.9921L186.703 29.564L184.883 25.0188ZM193.97 28.8764C194.096 28.8764 194.221 28.8654 194.344 28.8435C194.468 28.8188 194.58 28.79 194.682 28.757V29.4899C194.575 29.5365 194.436 29.5763 194.266 29.6092C194.096 29.6422 193.919 29.6586 193.735 29.6586C193.477 29.6586 193.245 29.6161 193.039 29.531C192.833 29.4432 192.67 29.2936 192.549 29.0823C192.428 28.8709 192.368 28.5786 192.368 28.2054V25.7557H191.746V25.3235L192.413 24.9818L192.73 24.006H193.34V25.0188H194.645V25.7557H193.34V28.193C193.34 28.4236 193.397 28.5951 193.513 28.7076C193.628 28.8202 193.78 28.8764 193.97 28.8764ZM199.643 27.2873C199.643 27.666 199.593 28.0022 199.495 28.2959C199.396 28.5896 199.252 28.838 199.062 29.0411C198.873 29.2415 198.645 29.3952 198.379 29.5022C198.113 29.6065 197.812 29.6586 197.477 29.6586C197.164 29.6586 196.878 29.6065 196.617 29.5022C196.356 29.3952 196.13 29.2415 195.937 29.0411C195.748 28.838 195.601 28.5896 195.497 28.2959C195.393 28.0022 195.341 27.666 195.341 27.2873C195.341 26.785 195.427 26.3596 195.6 26.011C195.776 25.6597 196.025 25.3921 196.349 25.2082C196.673 25.0243 197.059 24.9324 197.506 24.9324C197.926 24.9324 198.297 25.0243 198.618 25.2082C198.939 25.3921 199.19 25.6597 199.371 26.011C199.552 26.3623 199.643 26.7877 199.643 27.2873ZM196.337 27.2873C196.337 27.6194 196.377 27.9034 196.456 28.1395C196.539 28.3755 196.665 28.5567 196.835 28.6829C197.005 28.8064 197.225 28.8682 197.494 28.8682C197.763 28.8682 197.982 28.8064 198.152 28.6829C198.323 28.5567 198.447 28.3755 198.527 28.1395C198.607 27.9034 198.646 27.6194 198.646 27.2873C198.646 26.9552 198.607 26.6738 198.527 26.4433C198.447 26.21 198.323 26.033 198.152 25.9122C197.982 25.7887 197.761 25.7269 197.49 25.7269C197.089 25.7269 196.797 25.8614 196.613 26.1304C196.429 26.3994 196.337 26.785 196.337 27.2873ZM204.731 24.9324C205.308 24.9324 205.743 25.06 206.036 25.3152C206.333 25.5705 206.481 25.9685 206.481 26.5092V29.5763H205.794L205.608 28.9299H205.575C205.446 29.0946 205.313 29.2305 205.176 29.3375C205.039 29.4446 204.88 29.5242 204.698 29.5763C204.52 29.6312 204.302 29.6586 204.044 29.6586C203.772 29.6586 203.529 29.6092 203.315 29.5104C203.101 29.4089 202.932 29.2552 202.809 29.0493C202.685 28.8435 202.623 28.5827 202.623 28.2671C202.623 27.7978 202.798 27.4451 203.146 27.209C203.498 26.973 204.027 26.8426 204.735 26.8179L205.526 26.7891V26.5503C205.526 26.2347 205.452 26.0096 205.304 25.8751C205.158 25.7407 204.952 25.6734 204.686 25.6734C204.458 25.6734 204.237 25.7063 204.023 25.7722C203.809 25.8381 203.601 25.9191 203.397 26.0151L203.085 25.3317C203.307 25.2137 203.559 25.1176 203.842 25.0435C204.128 24.9694 204.424 24.9324 204.731 24.9324ZM205.522 27.3984L204.933 27.419C204.45 27.4355 204.111 27.5178 203.916 27.666C203.721 27.8142 203.624 28.0173 203.624 28.2753C203.624 28.5004 203.691 28.6651 203.826 28.7694C203.96 28.8709 204.137 28.9217 204.357 28.9217C204.692 28.9217 204.969 28.827 205.188 28.6376C205.411 28.4455 205.522 28.1642 205.522 27.7937V27.3984ZM210.211 24.9324C210.724 24.9324 211.124 25.0655 211.409 25.3317C211.697 25.5952 211.841 26.0192 211.841 26.6038V29.5763H210.874V26.785C210.874 26.4309 210.801 26.1661 210.656 25.9904C210.51 25.812 210.285 25.7228 209.98 25.7228C209.539 25.7228 209.231 25.8587 209.058 26.1304C208.888 26.4021 208.803 26.796 208.803 27.312V29.5763H207.836V25.0188H208.589L208.725 25.6364H208.778C208.877 25.4772 208.999 25.3468 209.145 25.2452C209.293 25.1409 209.458 25.0627 209.639 25.0106C209.823 24.9584 210.013 24.9324 210.211 24.9324ZM216.259 28.2753C216.259 28.5745 216.186 28.827 216.041 29.0329C215.895 29.2387 215.683 29.3952 215.403 29.5022C215.125 29.6065 214.785 29.6586 214.382 29.6586C214.063 29.6586 213.789 29.6353 213.558 29.5887C213.33 29.5447 213.115 29.4761 212.912 29.3828V28.5471C213.129 28.6486 213.372 28.7364 213.64 28.8106C213.912 28.8847 214.169 28.9217 214.41 28.9217C214.729 28.9217 214.958 28.8723 215.098 28.7735C215.238 28.6719 215.308 28.5375 215.308 28.37C215.308 28.2712 215.279 28.1834 215.221 28.1065C215.167 28.027 215.062 27.946 214.909 27.8636C214.758 27.7786 214.535 27.677 214.242 27.559C213.953 27.4437 213.71 27.3284 213.513 27.2132C213.315 27.0979 213.166 26.9593 213.064 26.7973C212.963 26.6327 212.912 26.4227 212.912 26.1674C212.912 25.764 213.071 25.458 213.389 25.2494C213.71 25.038 214.135 24.9324 214.662 24.9324C214.941 24.9324 215.205 24.9612 215.452 25.0188C215.702 25.0737 215.946 25.1547 216.185 25.2617L215.88 25.9904C215.674 25.8998 215.467 25.8257 215.258 25.7681C215.053 25.7077 214.843 25.6775 214.629 25.6775C214.379 25.6775 214.188 25.716 214.056 25.7928C213.927 25.8697 213.863 25.9794 213.863 26.1222C213.863 26.2292 213.894 26.3198 213.958 26.3939C214.021 26.468 214.129 26.5421 214.283 26.6162C214.439 26.6903 214.656 26.7823 214.933 26.892C215.205 26.9963 215.44 27.1061 215.637 27.2214C215.838 27.3339 215.991 27.4725 216.098 27.6372C216.205 27.8019 216.259 28.0146 216.259 28.2753ZM221.03 29.5722L220.454 27.4519C220.427 27.3476 220.394 27.2214 220.355 27.0732C220.317 26.925 220.278 26.7726 220.24 26.6162C220.202 26.457 220.166 26.3102 220.133 26.1757C220.103 26.0412 220.079 25.9369 220.063 25.8628H220.03C220.016 25.9369 219.994 26.0412 219.964 26.1757C219.934 26.3102 219.9 26.457 219.861 26.6162C219.823 26.7754 219.784 26.9305 219.746 27.0814C219.71 27.2324 219.677 27.3614 219.647 27.4684L219.042 29.5722H217.98L216.704 25.0147H217.683L218.276 27.279C218.315 27.4327 218.352 27.5988 218.387 27.7772C218.426 27.9556 218.459 28.1258 218.486 28.2877C218.514 28.4496 218.534 28.5827 218.548 28.687H218.581C218.592 28.6129 218.607 28.5196 218.626 28.4071C218.645 28.2918 218.667 28.1724 218.692 28.0489C218.717 27.9227 218.741 27.8046 218.766 27.6948C218.791 27.5823 218.814 27.4917 218.836 27.4231L219.536 25.0147H220.594L221.265 27.4231C221.295 27.5274 221.328 27.6592 221.364 27.8184C221.4 27.9748 221.431 28.1326 221.459 28.2918C221.489 28.4483 221.508 28.5786 221.516 28.6829H221.549C221.56 28.5896 221.579 28.4634 221.607 28.3042C221.637 28.1422 221.671 27.9707 221.71 27.7895C221.748 27.6056 221.788 27.4355 221.829 27.279L222.434 25.0147H223.398L222.113 29.5722H221.03ZM225.996 24.9324C226.402 24.9324 226.75 25.0161 227.041 25.1835C227.332 25.3509 227.556 25.5883 227.712 25.8957C227.869 26.2031 227.947 26.5709 227.947 26.9991V27.5178H224.905C224.916 27.9597 225.034 28.3 225.259 28.5388C225.486 28.7776 225.805 28.897 226.214 28.897C226.505 28.897 226.765 28.8696 226.996 28.8147C227.229 28.757 227.469 28.6733 227.716 28.5635V29.3499C227.489 29.4569 227.257 29.5351 227.021 29.5845C226.785 29.6339 226.502 29.6586 226.173 29.6586C225.725 29.6586 225.331 29.5722 224.991 29.3993C224.653 29.2236 224.389 28.9629 224.196 28.6171C224.007 28.2712 223.912 27.8417 223.912 27.3284C223.912 26.8179 223.999 26.3843 224.172 26.0275C224.345 25.6707 224.588 25.3989 224.9 25.2123C225.213 25.0257 225.578 24.9324 225.996 24.9324ZM225.996 25.6611C225.691 25.6611 225.444 25.7599 225.255 25.9575C225.068 26.1551 224.958 26.4447 224.925 26.8262H227C226.997 26.5984 226.959 26.3966 226.885 26.221C226.813 26.0453 226.704 25.9081 226.555 25.8093C226.41 25.7105 226.223 25.6611 225.996 25.6611ZM231.348 24.9324C231.424 24.9324 231.508 24.9365 231.599 24.9447C231.689 24.9529 231.768 24.9639 231.833 24.9776L231.743 25.8834C231.685 25.8669 231.614 25.8546 231.529 25.8463C231.446 25.8381 231.372 25.834 231.306 25.834C231.134 25.834 230.969 25.8628 230.812 25.9204C230.656 25.9753 230.517 26.0604 230.397 26.1757C230.276 26.2882 230.181 26.4296 230.113 26.5997C230.044 26.7699 230.01 26.9675 230.01 27.1926V29.5763H229.038V25.0188H229.796L229.927 25.8216H229.973C230.063 25.6597 230.176 25.5115 230.31 25.377C230.445 25.2425 230.598 25.1355 230.771 25.0559C230.947 24.9735 231.139 24.9324 231.348 24.9324ZM234.18 25.0188H235.234L236.169 27.6207C236.21 27.7388 236.247 27.8554 236.28 27.9707C236.315 28.0832 236.346 28.1944 236.37 28.3042C236.398 28.4139 236.42 28.5237 236.436 28.6335H236.461C236.488 28.4908 236.527 28.3316 236.576 28.156C236.628 27.9775 236.686 27.7991 236.749 27.6207L237.647 25.0188H238.688L236.733 30.2021C236.62 30.4985 236.482 30.751 236.317 30.9596C236.155 31.171 235.963 31.3301 235.74 31.4372C235.518 31.547 235.264 31.6019 234.979 31.6019C234.842 31.6019 234.722 31.5936 234.621 31.5772C234.519 31.5634 234.433 31.5483 234.361 31.5319V30.7579C234.419 30.7716 234.492 30.784 234.579 30.7949C234.667 30.8059 234.758 30.8114 234.851 30.8114C235.024 30.8114 235.174 30.7771 235.3 30.7085C235.426 30.6399 235.533 30.5424 235.621 30.4162C235.709 30.2927 235.782 30.1513 235.839 29.9921L236 29.564L234.18 25.0188ZM243.415 27.2873C243.415 27.666 243.365 28.0022 243.266 28.2959C243.167 28.5896 243.023 28.838 242.834 29.0411C242.645 29.2415 242.417 29.3952 242.151 29.5022C241.884 29.6065 241.584 29.6586 241.249 29.6586C240.936 29.6586 240.649 29.6065 240.389 29.5022C240.128 29.3952 239.901 29.2415 239.709 29.0411C239.52 28.838 239.373 28.5896 239.269 28.2959C239.164 28.0022 239.112 27.666 239.112 27.2873C239.112 26.785 239.199 26.3596 239.372 26.011C239.547 25.6597 239.797 25.3921 240.121 25.2082C240.445 25.0243 240.83 24.9324 241.278 24.9324C241.698 24.9324 242.068 25.0243 242.389 25.2082C242.711 25.3921 242.962 25.6597 243.143 26.011C243.324 26.3623 243.415 26.7877 243.415 27.2873ZM240.109 27.2873C240.109 27.6194 240.148 27.9034 240.228 28.1395C240.31 28.3755 240.437 28.5567 240.607 28.6829C240.777 28.8064 240.996 28.8682 241.265 28.8682C241.534 28.8682 241.754 28.8064 241.924 28.6829C242.094 28.5567 242.219 28.3755 242.299 28.1395C242.378 27.9034 242.418 27.6194 242.418 27.2873C242.418 26.9552 242.378 26.6738 242.299 26.4433C242.219 26.21 242.094 26.033 241.924 25.9122C241.754 25.7887 241.533 25.7269 241.261 25.7269C240.861 25.7269 240.568 25.8614 240.384 26.1304C240.201 26.3994 240.109 26.785 240.109 27.2873ZM248.499 25.0188V29.5763H247.737L247.606 28.9629H247.552C247.456 29.1193 247.334 29.2497 247.186 29.354C247.037 29.4555 246.873 29.531 246.692 29.5804C246.51 29.6326 246.32 29.6586 246.119 29.6586C245.776 29.6586 245.483 29.601 245.238 29.4857C244.997 29.3677 244.812 29.1866 244.683 28.9423C244.554 28.698 244.489 28.3824 244.489 27.9954V25.0188H245.461V27.8142C245.461 28.1683 245.532 28.4332 245.675 28.6088C245.82 28.7845 246.045 28.8723 246.35 28.8723C246.644 28.8723 246.877 28.8119 247.05 28.6912C247.223 28.5704 247.345 28.392 247.416 28.156C247.49 27.9199 247.527 27.6303 247.527 27.2873V25.0188H248.499ZM252.196 24.9324C252.273 24.9324 252.357 24.9365 252.447 24.9447C252.538 24.9529 252.616 24.9639 252.682 24.9776L252.591 25.8834C252.534 25.8669 252.462 25.8546 252.377 25.8463C252.295 25.8381 252.221 25.834 252.155 25.834C251.982 25.834 251.817 25.8628 251.661 25.9204C251.504 25.9753 251.366 26.0604 251.245 26.1757C251.124 26.2882 251.03 26.4296 250.961 26.5997C250.892 26.7699 250.858 26.9675 250.858 27.1926V29.5763H249.886V25.0188H250.644L250.776 25.8216H250.821C250.912 25.6597 251.024 25.5115 251.159 25.377C251.293 25.2425 251.447 25.1355 251.62 25.0559C251.795 24.9735 251.987 24.9324 252.196 24.9324ZM258.61 31.5977V29.6628C258.61 29.553 258.613 29.4336 258.619 29.3046C258.627 29.1756 258.639 29.0576 258.656 28.9505H258.606C258.483 29.1509 258.311 29.3197 258.092 29.4569C257.872 29.5914 257.585 29.6586 257.231 29.6586C256.696 29.6586 256.265 29.461 255.938 29.0658C255.612 28.6678 255.448 28.0805 255.448 27.3037C255.448 26.7877 255.524 26.3541 255.675 26.0028C255.826 25.6515 256.037 25.3852 256.309 25.2041C256.583 25.0229 256.902 24.9324 257.264 24.9324C257.613 24.9324 257.895 25.001 258.112 25.1382C258.332 25.2727 258.507 25.4387 258.639 25.6364H258.672L258.779 25.0188H259.582V31.5977H258.61ZM257.519 28.8805C257.794 28.8805 258.013 28.8284 258.178 28.7241C258.343 28.6198 258.462 28.462 258.536 28.2506C258.61 28.0366 258.65 27.7717 258.656 27.4561V27.3079C258.656 26.7919 258.572 26.3994 258.404 26.1304C258.237 25.8614 257.939 25.7269 257.511 25.7269C257.149 25.7269 256.88 25.8683 256.704 26.151C256.528 26.4309 256.441 26.8207 256.441 27.3202C256.441 27.8252 256.528 28.2122 256.704 28.4812C256.883 28.7474 257.154 28.8805 257.519 28.8805ZM264.942 25.0188V29.5763H264.181L264.049 28.9629H263.995C263.899 29.1193 263.777 29.2497 263.629 29.354C263.481 29.4555 263.316 29.531 263.135 29.5804C262.954 29.6326 262.763 29.6586 262.563 29.6586C262.22 29.6586 261.926 29.601 261.682 29.4857C261.44 29.3677 261.255 29.1866 261.126 28.9423C260.997 28.698 260.932 28.3824 260.932 27.9954V25.0188H261.904V27.8142C261.904 28.1683 261.975 28.4332 262.118 28.6088C262.263 28.7845 262.488 28.8723 262.793 28.8723C263.087 28.8723 263.32 28.8119 263.493 28.6912C263.666 28.5704 263.788 28.392 263.859 28.156C263.934 27.9199 263.971 27.6303 263.971 27.2873V25.0188H264.942ZM268.145 24.9324C268.551 24.9324 268.9 25.0161 269.191 25.1835C269.482 25.3509 269.706 25.5883 269.862 25.8957C270.018 26.2031 270.097 26.5709 270.097 26.9991V27.5178H267.054C267.065 27.9597 267.183 28.3 267.408 28.5388C267.636 28.7776 267.954 28.897 268.363 28.897C268.654 28.897 268.915 28.8696 269.146 28.8147C269.379 28.757 269.619 28.6733 269.866 28.5635V29.3499C269.638 29.4569 269.406 29.5351 269.17 29.5845C268.934 29.6339 268.652 29.6586 268.322 29.6586C267.875 29.6586 267.481 29.5722 267.141 29.3993C266.803 29.2236 266.538 28.9629 266.346 28.6171C266.157 28.2712 266.062 27.8417 266.062 27.3284C266.062 26.8179 266.148 26.3843 266.321 26.0275C266.494 25.6707 266.737 25.3989 267.05 25.2123C267.363 25.0257 267.728 24.9324 268.145 24.9324ZM268.145 25.6611C267.841 25.6611 267.594 25.7599 267.404 25.9575C267.218 26.1551 267.108 26.4447 267.075 26.8262H269.15C269.147 26.5984 269.109 26.3966 269.034 26.221C268.963 26.0453 268.853 25.9081 268.705 25.8093C268.56 25.7105 268.373 25.6611 268.145 25.6611ZM273.497 24.9324C273.574 24.9324 273.658 24.9365 273.748 24.9447C273.839 24.9529 273.917 24.9639 273.983 24.9776L273.893 25.8834C273.835 25.8669 273.764 25.8546 273.678 25.8463C273.596 25.8381 273.522 25.834 273.456 25.834C273.283 25.834 273.119 25.8628 272.962 25.9204C272.806 25.9753 272.667 26.0604 272.546 26.1757C272.426 26.2882 272.331 26.4296 272.262 26.5997C272.194 26.7699 272.159 26.9675 272.159 27.1926V29.5763H271.188V25.0188H271.945L272.077 25.8216H272.122C272.213 25.6597 272.325 25.5115 272.46 25.377C272.594 25.2425 272.748 25.1355 272.921 25.0559C273.097 24.9735 273.289 24.9324 273.497 24.9324ZM275.795 25.0188V29.5763H274.827V25.0188H275.795ZM275.317 23.2732C275.465 23.2732 275.593 23.313 275.7 23.3926C275.81 23.4722 275.865 23.6094 275.865 23.8043C275.865 23.9964 275.81 24.1337 275.7 24.216C275.593 24.2956 275.465 24.3354 275.317 24.3354C275.163 24.3354 275.033 24.2956 274.926 24.216C274.822 24.1337 274.769 23.9964 274.769 23.8043C274.769 23.6094 274.822 23.4722 274.926 23.3926C275.033 23.313 275.163 23.2732 275.317 23.2732ZM278.998 24.9324C279.404 24.9324 279.752 25.0161 280.043 25.1835C280.334 25.3509 280.558 25.5883 280.714 25.8957C280.871 26.2031 280.949 26.5709 280.949 26.9991V27.5178H277.907C277.918 27.9597 278.036 28.3 278.261 28.5388C278.488 28.7776 278.807 28.897 279.216 28.897C279.507 28.897 279.767 28.8696 279.998 28.8147C280.231 28.757 280.471 28.6733 280.718 28.5635V29.3499C280.491 29.4569 280.259 29.5351 280.023 29.5845C279.787 29.6339 279.504 29.6586 279.175 29.6586C278.727 29.6586 278.333 29.5722 277.993 29.3993C277.655 29.2236 277.391 28.9629 277.198 28.6171C277.009 28.2712 276.914 27.8417 276.914 27.3284C276.914 26.8179 277.001 26.3843 277.174 26.0275C277.347 25.6707 277.59 25.3989 277.902 25.2123C278.215 25.0257 278.58 24.9324 278.998 24.9324ZM278.998 25.6611C278.693 25.6611 278.446 25.7599 278.257 25.9575C278.07 26.1551 277.96 26.4447 277.927 26.8262H280.002C279.999 26.5984 279.961 26.3966 279.887 26.221C279.816 26.0453 279.706 25.9081 279.558 25.8093C279.412 25.7105 279.225 25.6611 278.998 25.6611ZM285.103 28.2753C285.103 28.5745 285.03 28.827 284.885 29.0329C284.739 29.2387 284.527 29.3952 284.247 29.5022C283.97 29.6065 283.629 29.6586 283.226 29.6586C282.907 29.6586 282.633 29.6353 282.402 29.5887C282.175 29.5447 281.959 29.4761 281.756 29.3828V28.5471C281.973 28.6486 282.216 28.7364 282.485 28.8106C282.756 28.8847 283.013 28.9217 283.255 28.9217C283.573 28.9217 283.802 28.8723 283.942 28.7735C284.082 28.6719 284.152 28.5375 284.152 28.37C284.152 28.2712 284.123 28.1834 284.066 28.1065C284.011 28.027 283.906 27.946 283.753 27.8636C283.602 27.7786 283.379 27.677 283.086 27.559C282.798 27.4437 282.555 27.3284 282.357 27.2132C282.159 27.0979 282.01 26.9593 281.908 26.7973C281.807 26.6327 281.756 26.4227 281.756 26.1674C281.756 25.764 281.915 25.458 282.234 25.2494C282.555 25.038 282.979 24.9324 283.506 24.9324C283.786 24.9324 284.049 24.9612 284.296 25.0188C284.546 25.0737 284.79 25.1547 285.029 25.2617L284.724 25.9904C284.518 25.8998 284.311 25.8257 284.103 25.7681C283.897 25.7077 283.687 25.6775 283.473 25.6775C283.223 25.6775 283.032 25.716 282.9 25.7928C282.771 25.8697 282.707 25.9794 282.707 26.1222C282.707 26.2292 282.739 26.3198 282.802 26.3939C282.865 26.468 282.973 26.5421 283.127 26.6162C283.283 26.6903 283.5 26.7823 283.777 26.892C284.049 26.9963 284.284 27.1061 284.481 27.2214C284.682 27.3339 284.835 27.4725 284.943 27.6372C285.05 27.8019 285.103 28.0146 285.103 28.2753ZM286.009 29.0658C286.009 28.8407 286.066 28.6829 286.182 28.5924C286.3 28.499 286.442 28.4524 286.61 28.4524C286.777 28.4524 286.92 28.499 287.038 28.5924C287.159 28.6829 287.219 28.8407 287.219 29.0658C287.219 29.2854 287.159 29.4446 287.038 29.5434C286.92 29.6394 286.777 29.6875 286.61 29.6875C286.442 29.6875 286.3 29.6394 286.182 29.5434C286.066 29.4446 286.009 29.2854 286.009 29.0658ZM297.87 23.5573L296.297 29.5763H295.219L294.214 25.9698C294.189 25.882 294.162 25.7777 294.132 25.6569C294.101 25.5362 294.071 25.4127 294.041 25.2864C294.014 25.1602 293.989 25.0449 293.967 24.9406C293.948 24.8335 293.934 24.7512 293.926 24.6936C293.92 24.7512 293.908 24.8322 293.889 24.9365C293.87 25.0408 293.846 25.156 293.819 25.2823C293.794 25.4058 293.767 25.5293 293.736 25.6528C293.706 25.7736 293.679 25.8806 293.654 25.9739L292.666 29.5763H291.591L290.023 23.5573H291.015L291.884 27.0855C291.911 27.1981 291.939 27.3202 291.966 27.4519C291.996 27.5809 292.024 27.7113 292.048 27.8431C292.076 27.9748 292.101 28.1038 292.123 28.2301C292.144 28.3536 292.162 28.4661 292.176 28.5676C292.19 28.4634 292.208 28.3481 292.23 28.2218C292.252 28.0928 292.275 27.9625 292.3 27.8307C292.327 27.6962 292.354 27.5672 292.382 27.4437C292.412 27.3202 292.442 27.209 292.472 27.1102L293.452 23.5573H294.416L295.416 27.1226C295.446 27.2241 295.475 27.338 295.503 27.4643C295.533 27.5906 295.562 27.7196 295.589 27.8513C295.616 27.983 295.641 28.1107 295.663 28.2342C295.685 28.3577 295.703 28.4688 295.717 28.5676C295.736 28.4332 295.761 28.2795 295.791 28.1065C295.821 27.9336 295.855 27.758 295.894 27.5796C295.932 27.4012 295.971 27.2365 296.009 27.0855L296.874 23.5573H297.87ZM300.439 24.9324C300.845 24.9324 301.194 25.0161 301.485 25.1835C301.775 25.3509 301.999 25.5883 302.156 25.8957C302.312 26.2031 302.39 26.5709 302.39 26.9991V27.5178H299.348C299.359 27.9597 299.477 28.3 299.702 28.5388C299.93 28.7776 300.248 28.897 300.657 28.897C300.948 28.897 301.209 28.8696 301.439 28.8147C301.673 28.757 301.913 28.6733 302.16 28.5635V29.3499C301.932 29.4569 301.7 29.5351 301.464 29.5845C301.228 29.6339 300.945 29.6586 300.616 29.6586C300.168 29.6586 299.775 29.5722 299.434 29.3993C299.097 29.2236 298.832 28.9629 298.64 28.6171C298.45 28.2712 298.356 27.8417 298.356 27.3284C298.356 26.8179 298.442 26.3843 298.615 26.0275C298.788 25.6707 299.031 25.3989 299.344 25.2123C299.657 25.0257 300.022 24.9324 300.439 24.9324ZM300.439 25.6611C300.134 25.6611 299.887 25.7599 299.698 25.9575C299.511 26.1551 299.401 26.4447 299.368 26.8262H301.443C301.441 26.5984 301.402 26.3966 301.328 26.221C301.257 26.0453 301.147 25.9081 300.999 25.8093C300.853 25.7105 300.667 25.6611 300.439 25.6611ZM93.5934 37.9324C93.6703 37.9324 93.754 37.9365 93.8445 37.9447C93.9351 37.9529 94.0133 37.9639 94.0792 37.9776L93.9886 38.8834C93.931 38.8669 93.8596 38.8546 93.7746 38.8463C93.6922 38.8381 93.6181 38.834 93.5522 38.834C93.3793 38.834 93.2147 38.8628 93.0582 38.9204C92.9018 38.9753 92.7632 39.0604 92.6424 39.1757C92.5216 39.2882 92.4269 39.4296 92.3583 39.5997C92.2897 39.7699 92.2554 39.9675 92.2554 40.1926V42.5763H91.2838V38.0188H92.0413L92.1731 38.8216H92.2183C92.3089 38.6597 92.4214 38.5115 92.5559 38.377C92.6904 38.2425 92.8441 38.1355 93.017 38.0559C93.1927 37.9735 93.3848 37.9324 93.5934 37.9324ZM96.7388 37.9324C97.145 37.9324 97.4936 38.0161 97.7845 38.1835C98.0754 38.3509 98.2991 38.5883 98.4556 38.8957C98.612 39.2031 98.6902 39.5709 98.6902 39.9991V40.5178H95.6478C95.6588 40.9597 95.7768 41.3 96.0018 41.5388C96.2297 41.7776 96.548 41.897 96.957 41.897C97.2479 41.897 97.5087 41.8696 97.7392 41.8147C97.9725 41.757 98.2127 41.6733 98.4597 41.5635V42.3499C98.2319 42.4569 98 42.5351 97.7639 42.5845C97.5279 42.6339 97.2452 42.6586 96.9158 42.6586C96.4684 42.6586 96.0746 42.5722 95.7342 42.3993C95.3967 42.2236 95.1318 41.9629 94.9397 41.6171C94.7503 41.2712 94.6556 40.8417 94.6556 40.3284C94.6556 39.8179 94.7421 39.3843 94.915 39.0275C95.0879 38.6707 95.3308 38.3989 95.6437 38.2123C95.9566 38.0257 96.3216 37.9324 96.7388 37.9324ZM96.7388 38.6611C96.4341 38.6611 96.1871 38.7599 95.9977 38.9575C95.8111 39.1551 95.7013 39.4447 95.6684 39.8262H97.7433C97.7406 39.5984 97.7022 39.3966 97.6281 39.221C97.5567 39.0453 97.4469 38.9081 97.2987 38.8093C97.1532 38.7105 96.9666 38.6611 96.7388 38.6611ZM102.12 37.9324C102.66 37.9324 103.094 38.13 103.421 38.5252C103.75 38.9204 103.915 39.5078 103.915 40.2873C103.915 40.8033 103.838 41.2383 103.684 41.5924C103.533 41.9437 103.32 42.2099 103.046 42.391C102.774 42.5694 102.457 42.6586 102.095 42.6586C101.864 42.6586 101.664 42.6285 101.494 42.5681C101.324 42.5077 101.178 42.4295 101.058 42.3334C100.937 42.2346 100.835 42.1276 100.753 42.0123H100.695C100.709 42.1221 100.721 42.2442 100.732 42.3787C100.746 42.5104 100.753 42.6312 100.753 42.741V44.5977H99.7812V38.0188H100.572L100.708 38.6487H100.753C100.838 38.5197 100.941 38.4003 101.062 38.2905C101.185 38.1807 101.333 38.0943 101.506 38.0312C101.682 37.9653 101.886 37.9324 102.12 37.9324ZM101.86 38.7228C101.594 38.7228 101.38 38.7763 101.218 38.8834C101.059 38.9877 100.942 39.1455 100.868 39.3568C100.797 39.5682 100.758 39.833 100.753 40.1514V40.2873C100.753 40.6249 100.787 40.9117 100.856 41.1477C100.927 41.381 101.044 41.5594 101.206 41.6829C101.37 41.8037 101.593 41.8641 101.873 41.8641C102.109 41.8641 102.304 41.7996 102.457 41.6706C102.614 41.5416 102.73 41.3577 102.807 41.1189C102.884 40.8801 102.922 40.5988 102.922 40.2749C102.922 39.7836 102.835 39.4021 102.659 39.1304C102.486 38.8587 102.22 38.7228 101.86 38.7228ZM106.006 42.5763H105.035V36.1703H106.006V42.5763ZM106.702 38.0188H107.756L108.69 40.6207C108.732 40.7388 108.769 40.8554 108.802 40.9707C108.837 41.0832 108.867 41.1944 108.892 41.3042C108.92 41.4139 108.942 41.5237 108.958 41.6335H108.983C109.01 41.4908 109.049 41.3316 109.098 41.156C109.15 40.9775 109.208 40.7991 109.271 40.6207L110.168 38.0188H111.21L109.254 43.2021C109.142 43.4985 109.003 43.751 108.839 43.9596C108.677 44.171 108.485 44.3301 108.262 44.4372C108.04 44.547 107.786 44.6019 107.501 44.6019C107.363 44.6019 107.244 44.5936 107.142 44.5772C107.041 44.5634 106.954 44.5483 106.883 44.5319V43.7579C106.941 43.7716 107.013 43.784 107.101 43.7949C107.189 43.8059 107.28 43.8114 107.373 43.8114C107.546 43.8114 107.695 43.7771 107.822 43.7085C107.948 43.6399 108.055 43.5424 108.143 43.4162C108.231 43.2927 108.303 43.1513 108.361 42.9921L108.522 42.564L106.702 38.0188ZM117.818 42.5722L117.241 40.4519C117.214 40.3476 117.181 40.2214 117.143 40.0732C117.104 39.925 117.066 39.7726 117.027 39.6162C116.989 39.457 116.953 39.3102 116.92 39.1757C116.89 39.0412 116.867 38.9369 116.85 38.8628H116.817C116.804 38.9369 116.782 39.0412 116.751 39.1757C116.721 39.3102 116.687 39.457 116.649 39.6162C116.61 39.7754 116.572 39.9305 116.533 40.0814C116.498 40.2324 116.465 40.3614 116.434 40.4684L115.829 42.5722H114.767L113.491 38.0147H114.471L115.063 40.279C115.102 40.4327 115.139 40.5988 115.175 40.7772C115.213 40.9556 115.246 41.1258 115.273 41.2877C115.301 41.4496 115.321 41.5827 115.335 41.687H115.368C115.379 41.6129 115.394 41.5196 115.413 41.4071C115.433 41.2918 115.455 41.1724 115.479 41.0489C115.504 40.9227 115.529 40.8046 115.553 40.6948C115.578 40.5823 115.601 40.4917 115.623 40.4231L116.323 38.0147H117.381L118.052 40.4231C118.083 40.5274 118.116 40.6592 118.151 40.8184C118.187 40.9748 118.218 41.1326 118.246 41.2918C118.276 41.4483 118.295 41.5786 118.304 41.6829H118.336C118.347 41.5896 118.367 41.4634 118.394 41.3042C118.424 41.1422 118.459 40.9707 118.497 40.7895C118.535 40.6056 118.575 40.4355 118.616 40.279L119.222 38.0147H120.185L118.901 42.5722H117.818ZM121.935 38.0188V42.5763H120.967V38.0188H121.935ZM121.457 36.2732C121.605 36.2732 121.733 36.313 121.84 36.3926C121.95 36.4722 122.005 36.6094 122.005 36.8043C122.005 36.9964 121.95 37.1337 121.84 37.216C121.733 37.2956 121.605 37.3354 121.457 37.3354C121.303 37.3354 121.173 37.2956 121.066 37.216C120.962 37.1337 120.91 36.9964 120.91 36.8043C120.91 36.6094 120.962 36.4722 121.066 36.3926C121.173 36.313 121.303 36.2732 121.457 36.2732ZM125.018 41.8764C125.145 41.8764 125.269 41.8654 125.393 41.8435C125.516 41.8188 125.629 41.79 125.731 41.757V42.4899C125.624 42.5365 125.485 42.5763 125.315 42.6092C125.145 42.6422 124.968 42.6586 124.784 42.6586C124.526 42.6586 124.294 42.6161 124.088 42.531C123.882 42.4432 123.719 42.2936 123.598 42.0823C123.477 41.8709 123.417 41.5786 123.417 41.2054V38.7557H122.795V38.3235L123.462 37.9818L123.779 37.006H124.388V38.0188H125.694V38.7557H124.388V41.193C124.388 41.4236 124.446 41.5951 124.561 41.7076C124.677 41.8202 124.829 41.8764 125.018 41.8764ZM127.624 36.1703V37.78C127.624 37.9474 127.619 38.1108 127.608 38.2699C127.6 38.4291 127.59 38.5526 127.579 38.6405H127.633C127.729 38.4813 127.847 38.3509 127.987 38.2494C128.127 38.1451 128.283 38.0668 128.456 38.0147C128.632 37.9625 128.818 37.9365 129.016 37.9365C129.364 37.9365 129.661 37.9955 129.905 38.1135C130.149 38.2288 130.336 38.4086 130.465 38.6528C130.597 38.8971 130.663 39.2141 130.663 39.6038V42.5763H129.695V39.785C129.695 39.4309 129.622 39.1661 129.477 38.9904C129.332 38.812 129.107 38.7228 128.802 38.7228C128.508 38.7228 128.275 38.7846 128.102 38.9081C127.932 39.0288 127.81 39.2086 127.736 39.4474C127.661 39.6834 127.624 39.9716 127.624 40.312V42.5763H126.657V36.1703H127.624ZM132.985 38.0188V42.5763H132.017V38.0188H132.985ZM132.507 36.2732C132.655 36.2732 132.783 36.313 132.89 36.3926C133 36.4722 133.055 36.6094 133.055 36.8043C133.055 36.9964 133 37.1337 132.89 37.216C132.783 37.2956 132.655 37.3354 132.507 37.3354C132.353 37.3354 132.223 37.2956 132.116 37.216C132.012 37.1337 131.96 36.9964 131.96 36.8043C131.96 36.6094 132.012 36.4722 132.116 36.3926C132.223 36.313 132.353 36.2732 132.507 36.2732ZM136.748 37.9324C137.261 37.9324 137.66 38.0655 137.946 38.3317C138.234 38.5952 138.378 39.0192 138.378 39.6038V42.5763H137.41V39.785C137.41 39.4309 137.338 39.1661 137.192 38.9904C137.047 38.812 136.822 38.7228 136.517 38.7228C136.075 38.7228 135.768 38.8587 135.595 39.1304C135.425 39.4021 135.34 39.796 135.34 40.312V42.5763H134.372V38.0188H135.126L135.261 38.6364H135.315C135.414 38.4772 135.536 38.3468 135.681 38.2452C135.83 38.1409 135.994 38.0627 136.175 38.0106C136.359 37.9584 136.55 37.9324 136.748 37.9324ZM143.619 41.8764C143.745 41.8764 143.87 41.8654 143.994 41.8435C144.117 41.8188 144.23 41.79 144.331 41.757V42.4899C144.224 42.5365 144.085 42.5763 143.915 42.6092C143.745 42.6422 143.568 42.6586 143.384 42.6586C143.126 42.6586 142.894 42.6161 142.688 42.531C142.483 42.4432 142.319 42.2936 142.199 42.0823C142.078 41.8709 142.017 41.5786 142.017 41.2054V38.7557H141.396V38.3235L142.063 37.9818L142.38 37.006H142.989V38.0188H144.294V38.7557H142.989V41.193C142.989 41.4236 143.047 41.5951 143.162 41.7076C143.277 41.8202 143.429 41.8764 143.619 41.8764ZM146.225 36.1703V37.78C146.225 37.9474 146.219 38.1108 146.208 38.2699C146.2 38.4291 146.191 38.5526 146.18 38.6405H146.233C146.329 38.4813 146.447 38.3509 146.587 38.2494C146.727 38.1451 146.884 38.0668 147.057 38.0147C147.232 37.9625 147.419 37.9365 147.616 37.9365C147.965 37.9365 148.261 37.9955 148.506 38.1135C148.75 38.2288 148.937 38.4086 149.066 38.6528C149.197 38.8971 149.263 39.2141 149.263 39.6038V42.5763H148.296V39.785C148.296 39.4309 148.223 39.1661 148.078 38.9904C147.932 38.812 147.707 38.7228 147.402 38.7228C147.109 38.7228 146.875 38.7846 146.702 38.9081C146.532 39.0288 146.41 39.2086 146.336 39.4474C146.262 39.6834 146.225 39.9716 146.225 40.312V42.5763H145.257V36.1703H146.225ZM152.433 37.9324C152.84 37.9324 153.188 38.0161 153.479 38.1835C153.77 38.3509 153.994 38.5883 154.15 38.8957C154.307 39.2031 154.385 39.5709 154.385 39.9991V40.5178H151.342C151.353 40.9597 151.471 41.3 151.696 41.5388C151.924 41.7776 152.243 41.897 152.652 41.897C152.942 41.897 153.203 41.8696 153.434 41.8147C153.667 41.757 153.907 41.6733 154.154 41.5635V42.3499C153.926 42.4569 153.694 42.5351 153.458 42.5845C153.222 42.6339 152.94 42.6586 152.61 42.6586C152.163 42.6586 151.769 42.5722 151.429 42.3993C151.091 42.2236 150.826 41.9629 150.634 41.6171C150.445 41.2712 150.35 40.8417 150.35 40.3284C150.35 39.8179 150.437 39.3843 150.61 39.0275C150.782 38.6707 151.025 38.3989 151.338 38.2123C151.651 38.0257 152.016 37.9324 152.433 37.9324ZM152.433 38.6611C152.129 38.6611 151.882 38.7599 151.692 38.9575C151.506 39.1551 151.396 39.4447 151.363 39.8262H153.438C153.435 39.5984 153.397 39.3966 153.323 39.221C153.251 39.0453 153.141 38.9081 152.993 38.8093C152.848 38.7105 152.661 38.6611 152.433 38.6611ZM158.634 36.1703V37.78C158.634 37.9474 158.628 38.1108 158.617 38.2699C158.609 38.4291 158.599 38.5526 158.588 38.6405H158.642C158.738 38.4813 158.856 38.3509 158.996 38.2494C159.136 38.1451 159.292 38.0668 159.465 38.0147C159.641 37.9625 159.827 37.9365 160.025 37.9365C160.374 37.9365 160.67 37.9955 160.914 38.1135C161.159 38.2288 161.345 38.4086 161.474 38.6528C161.606 38.8971 161.672 39.2141 161.672 39.6038V42.5763H160.704V39.785C160.704 39.4309 160.632 39.1661 160.486 38.9904C160.341 38.812 160.116 38.7228 159.811 38.7228C159.517 38.7228 159.284 38.7846 159.111 38.9081C158.941 39.0288 158.819 39.2086 158.745 39.4474C158.671 39.6834 158.634 39.9716 158.634 40.312V42.5763H157.666V36.1703H158.634ZM167.061 40.2873C167.061 40.666 167.012 41.0022 166.913 41.2959C166.814 41.5896 166.67 41.838 166.48 42.0411C166.291 42.2415 166.063 42.3952 165.797 42.5022C165.531 42.6065 165.23 42.6586 164.895 42.6586C164.583 42.6586 164.296 42.6065 164.035 42.5022C163.774 42.3952 163.548 42.2415 163.356 42.0411C163.166 41.838 163.019 41.5896 162.915 41.2959C162.811 41.0022 162.759 40.666 162.759 40.2873C162.759 39.785 162.845 39.3596 163.018 39.011C163.194 38.6597 163.444 38.3921 163.767 38.2082C164.091 38.0243 164.477 37.9324 164.924 37.9324C165.344 37.9324 165.715 38.0243 166.036 38.2082C166.357 38.3921 166.608 38.6597 166.789 39.011C166.97 39.3623 167.061 39.7877 167.061 40.2873ZM163.755 40.2873C163.755 40.6194 163.795 40.9034 163.874 41.1395C163.957 41.3755 164.083 41.5567 164.253 41.6829C164.423 41.8064 164.643 41.8682 164.912 41.8682C165.181 41.8682 165.4 41.8064 165.571 41.6829C165.741 41.5567 165.866 41.3755 165.945 41.1395C166.025 40.9034 166.065 40.6194 166.065 40.2873C166.065 39.9552 166.025 39.6738 165.945 39.4433C165.866 39.21 165.741 39.033 165.571 38.9122C165.4 38.7887 165.179 38.7269 164.908 38.7269C164.507 38.7269 164.215 38.8614 164.031 39.1304C163.847 39.3994 163.755 39.785 163.755 40.2873ZM172.145 38.0188V42.5763H171.384L171.252 41.9629H171.199C171.102 42.1193 170.98 42.2497 170.832 42.354C170.684 42.4555 170.519 42.531 170.338 42.5804C170.157 42.6326 169.966 42.6586 169.766 42.6586C169.423 42.6586 169.129 42.601 168.885 42.4857C168.643 42.3677 168.458 42.1866 168.329 41.9423C168.2 41.698 168.135 41.3824 168.135 40.9954V38.0188H169.107V40.8142C169.107 41.1683 169.178 41.4332 169.321 41.6088C169.467 41.7845 169.692 41.8723 169.996 41.8723C170.29 41.8723 170.523 41.8119 170.696 41.6912C170.869 41.5704 170.991 41.392 171.063 41.156C171.137 40.9199 171.174 40.6303 171.174 40.2873V38.0188H172.145ZM175.842 37.9324C175.919 37.9324 176.003 37.9365 176.094 37.9447C176.184 37.9529 176.262 37.9639 176.328 37.9776L176.238 38.8834C176.18 38.8669 176.109 38.8546 176.024 38.8463C175.941 38.8381 175.867 38.834 175.801 38.834C175.628 38.834 175.464 38.8628 175.307 38.9204C175.151 38.9753 175.012 39.0604 174.891 39.1757C174.771 39.2882 174.676 39.4296 174.607 39.5997C174.539 39.7699 174.504 39.9675 174.504 40.1926V42.5763H173.533V38.0188H174.29L174.422 38.8216H174.467C174.558 38.6597 174.671 38.5115 174.805 38.377C174.939 38.2425 175.093 38.1355 175.266 38.0559C175.442 37.9735 175.634 37.9324 175.842 37.9324ZM177.032 42.0658C177.032 41.8407 177.09 41.6829 177.205 41.5924C177.323 41.499 177.466 41.4524 177.633 41.4524C177.801 41.4524 177.944 41.499 178.062 41.5924C178.182 41.6829 178.243 41.8407 178.243 42.0658C178.243 42.2854 178.182 42.4446 178.062 42.5434C177.944 42.6394 177.801 42.6875 177.633 42.6875C177.466 42.6875 177.323 42.6394 177.205 42.5434C177.09 42.4446 177.032 42.2854 177.032 42.0658Z" fill="#868E96"/>
<path d="M66 -23.2842H333V-21.8789H66V-23.2842ZM333 67.3553H66H333ZM66 67.3553V-22.5816V67.3553ZM333 -22.5816V67.3553V-22.5816Z" fill="black" fill-opacity="0.2" mask="url(#path-3-inside-1_1001_208553)"/>
</g>
<g filter="url(#filter1_ddd_1001_208553)">
<rect x="285.957" y="74.3816" width="47.0434" height="47.0677" rx="5.62105" fill="#FA5252" shape-rendering="crispEdges"/>
<path fill-rule="evenodd" clip-rule="evenodd" d="M307.52 83.5859C306.701 83.6911 305.105 84.1051 304.257 84.4326C300.269 85.9726 297.149 89.2181 295.797 93.2326C295.196 95.0157 295.08 95.7774 295.08 97.9114C295.08 99.5427 295.104 99.8901 295.271 100.688C295.983 104.071 297.661 106.884 300.259 109.05C302.591 110.995 305.646 112.187 308.612 112.309C309.823 112.359 309.995 112.318 310.231 111.918C310.506 111.452 310.334 110.775 309.897 110.609C309.769 110.561 309.274 110.502 308.795 110.479C307.789 110.429 306.234 110.115 305.257 109.764C302.76 108.867 300.48 107.093 299.039 104.928C297.603 102.768 296.916 100.482 296.92 97.87C296.922 96.3728 297.134 95.1004 297.611 93.7264C298.397 91.4642 300.003 89.2957 301.999 87.8032C302.769 87.2276 304.543 86.2808 305.324 86.0281C307.829 85.2182 310.225 85.1203 312.566 85.7321C314.795 86.3147 316.472 87.2578 318.194 88.8978C320.492 91.0862 321.842 94.0318 322.023 97.2488C322.08 98.2738 322.084 98.2871 322.349 98.5537C322.567 98.7721 322.684 98.823 322.966 98.823C323.251 98.823 323.365 98.7722 323.596 98.5412C323.871 98.2656 323.878 98.2443 323.877 97.5675C323.875 95.5906 323.296 93.255 322.337 91.3493C321.017 88.7293 318.629 86.3464 315.991 85.018C314.664 84.3496 312.708 83.7511 311.283 83.5773C310.457 83.4766 308.334 83.4815 307.52 83.5859ZM308.28 89.5511C307.146 89.6973 305.459 90.3652 304.569 91.0205C303.37 91.9037 302.362 93.154 301.766 94.5007C301.062 96.0893 300.884 98.1018 301.298 99.8175C302.012 102.783 304.376 105.233 307.21 105.945C308.332 106.226 309.016 106.27 313.171 106.321L317.257 106.372L317.546 106.083L317.836 105.793L317.811 101.086L317.787 96.3783L317.507 95.5081C317.017 93.9784 316.464 93.0444 315.406 91.96C313.584 90.0916 310.962 89.2055 308.28 89.5511ZM311.323 91.6077C313.386 92.2632 314.998 93.854 315.695 95.9225L315.96 96.7098L315.987 100.584L316.015 104.458L313.876 104.453C310.416 104.444 308.363 104.338 307.648 104.132C305.448 103.497 303.686 101.665 303.159 99.4644C302.957 98.6245 302.94 97.2678 303.12 96.4044C303.364 95.2327 304.098 93.9726 305.04 93.1076C305.946 92.2756 306.953 91.7592 308.339 91.4158C308.43 91.3932 309.008 91.3858 309.624 91.3991C310.501 91.4183 310.867 91.4632 311.323 91.6077ZM305.513 97.0354C304.9 97.3021 304.647 98.1668 305.001 98.7816C305.453 99.564 306.537 99.6025 307.028 98.8534C307.243 98.526 307.23 97.7451 307.006 97.4391C306.664 96.9725 306.043 96.8047 305.513 97.0354ZM308.883 97.0684C308.154 97.4593 308.093 98.6922 308.777 99.1959C308.941 99.3169 309.132 99.3617 309.485 99.3617C309.935 99.3617 309.987 99.341 310.246 99.0581C310.399 98.8911 310.569 98.6041 310.624 98.4202C310.716 98.115 310.705 98.0464 310.504 97.6342C310.169 96.9508 309.523 96.7251 308.883 97.0684ZM312.364 97.0622C311.968 97.2641 311.761 97.5822 311.721 98.0503C311.613 99.2959 313.142 99.9009 313.857 98.896C314.287 98.2922 314.037 97.3043 313.385 97.0319C313.017 96.8781 312.707 96.8873 312.364 97.0622Z" fill="#FA5252"/>
</g>
</g>
<rect x="0.5" y="0.5" width="399" height="149" rx="7.5" stroke="#CED4DA"/>
<defs>
<filter id="filter0_d_1001_208553" x="48.4342" y="-178.566" width="302.132" height="263.487" filterUnits="userSpaceOnUse" color-interpolation-filters="sRGB">
<feFlood flood-opacity="0" result="BackgroundImageFix"/>
<feColorMatrix in="SourceAlpha" type="matrix" values="0 0 0 0 0 0 0 0 0 0 0 0 0 0 0 0 0 0 127 0" result="hardAlpha"/>
<feOffset/>
<feGaussianBlur stdDeviation="8.7829"/>
<feComposite in2="hardAlpha" operator="out"/>
<feColorMatrix type="matrix" values="0 0 0 0 0 0 0 0 0 0 0 0 0 0 0 0 0 0 0.1 0"/>
<feBlend mode="normal" in2="BackgroundImageFix" result="effect1_dropShadow_1001_208553"/>
<feBlend mode="normal" in="SourceGraphic" in2="effect1_dropShadow_1001_208553" result="shape"/>
</filter>
<filter id="filter1_ddd_1001_208553" x="278.93" y="72.9763" width="61.096" height="62.5256" filterUnits="userSpaceOnUse" color-interpolation-filters="sRGB">
<feFlood flood-opacity="0" result="BackgroundImageFix"/>
<feColorMatrix in="SourceAlpha" type="matrix" values="0 0 0 0 0 0 0 0 0 0 0 0 0 0 0 0 0 0 127 0" result="hardAlpha"/>
<feOffset dy="0.702632"/>
<feGaussianBlur stdDeviation="1.05395"/>
<feComposite in2="hardAlpha" operator="out"/>
<feColorMatrix type="matrix" values="0 0 0 0 0 0 0 0 0 0 0 0 0 0 0 0 0 0 0.05 0"/>
<feBlend mode="normal" in2="BackgroundImageFix" result="effect1_dropShadow_1001_208553"/>
<feColorMatrix in="SourceAlpha" type="matrix" values="0 0 0 0 0 0 0 0 0 0 0 0 0 0 0 0 0 0 127 0" result="hardAlpha"/>
<feMorphology radius="3.51316" operator="erode" in="SourceAlpha" result="effect2_dropShadow_1001_208553"/>
<feOffset dy="7.02632"/>
<feGaussianBlur stdDeviation="5.26974"/>
<feComposite in2="hardAlpha" operator="out"/>
<feColorMatrix type="matrix" values="0 0 0 0 0 0 0 0 0 0 0 0 0 0 0 0 0 0 0.05 0"/>
<feBlend mode="normal" in2="effect1_dropShadow_1001_208553" result="effect2_dropShadow_1001_208553"/>
<feColorMatrix in="SourceAlpha" type="matrix" values="0 0 0 0 0 0 0 0 0 0 0 0 0 0 0 0 0 0 127 0" result="hardAlpha"/>
<feMorphology radius="3.51316" operator="erode" in="SourceAlpha" result="effect3_dropShadow_1001_208553"/>
<feOffset dy="4.91842"/>
<feGaussianBlur stdDeviation="2.45921"/>
<feComposite in2="hardAlpha" operator="out"/>
<feColorMatrix type="matrix" values="0 0 0 0 0 0 0 0 0 0 0 0 0 0 0 0 0 0 0.04 0"/>
<feBlend mode="normal" in2="effect2_dropShadow_1001_208553" result="effect3_dropShadow_1001_208553"/>
<feBlend mode="normal" in="SourceGraphic" in2="effect3_dropShadow_1001_208553" result="shape"/>
</filter>
<clipPath id="clip0_1001_208553">
<rect width="400" height="150" rx="8" fill="white"/>
</clipPath>
<clipPath id="clip1_1001_208553">
<rect width="14.0526" height="14.0526" fill="white" transform="translate(90.5921 -1.50264)"/>
</clipPath>
</defs>
</svg>
