<svg width="20" height="20" viewBox="0 0 20 20" fill="none" xmlns="http://www.w3.org/2000/svg">
<g clip-path="url(#clip0_8479_40905)">
<path d="M1.6665 9.99935H18.3332M1.6665 9.99935C1.6665 14.6017 5.39746 18.3327 9.99984 18.3327M1.6665 9.99935C1.6665 5.39698 5.39746 1.66602 9.99984 1.66602M18.3332 9.99935C18.3332 14.6017 14.6022 18.3327 9.99984 18.3327M18.3332 9.99935C18.3332 5.39698 14.6022 1.66602 9.99984 1.66602M9.99984 1.66602C12.0842 3.94798 13.2688 6.90938 13.3332 9.99935C13.2688 13.0893 12.0842 16.0507 9.99984 18.3327M9.99984 1.66602C7.91544 3.94798 6.73088 6.90938 6.6665 9.99935C6.73088 13.0893 7.91544 16.0507 9.99984 18.3327" stroke="#667085" stroke-width="1.5" stroke-linecap="round" stroke-linejoin="round"/>
</g>
<defs>
<clipPath id="clip0_8479_40905">
<rect width="20" height="20" fill="white"/>
</clipPath>
</defs>
</svg>
