<svg width="20" height="20" viewBox="0 0 20 20" fill="none" xmlns="http://www.w3.org/2000/svg">
<g clip-path="url(#clip0_6912_28677)">
<path d="M17.666 18.3327C17.8994 18.3327 18.016 18.3327 18.1052 18.2873C18.1836 18.2473 18.2473 18.1836 18.2873 18.1052C18.3327 18.016 18.3327 17.8994 18.3327 17.666V8.99935C18.3327 8.766 18.3327 8.64932 18.2873 8.56019C18.2473 8.48179 18.1836 8.41805 18.1052 8.3781C18.016 8.33268 17.8994 8.33268 17.666 8.33268L15.666 8.33268C15.4327 8.33268 15.316 8.33268 15.2269 8.3781C15.1485 8.41804 15.0847 8.48179 15.0448 8.56019C14.9993 8.64932 14.9993 8.766 14.9993 8.99935V10.9993C14.9993 11.2327 14.9993 11.3494 14.9539 11.4385C14.914 11.5169 14.8502 11.5807 14.7718 11.6206C14.6827 11.666 14.566 11.666 14.3327 11.666H12.3327C12.0993 11.666 11.9826 11.666 11.8935 11.7114C11.8151 11.7514 11.7514 11.8151 11.7114 11.8935C11.666 11.9826 11.666 12.0993 11.666 12.3327V14.3327C11.666 14.566 11.666 14.6827 11.6206 14.7718C11.5807 14.8502 11.5169 14.914 11.4385 14.9539C11.3494 14.9993 11.2327 14.9993 10.9993 14.9993H8.99935C8.76599 14.9993 8.64932 14.9993 8.56019 15.0448C8.48179 15.0847 8.41804 15.1485 8.3781 15.2269C8.33268 15.316 8.33268 15.4327 8.33268 15.666V17.666C8.33268 17.8994 8.33268 18.016 8.3781 18.1052C8.41804 18.1836 8.48179 18.2473 8.56019 18.2873C8.64932 18.3327 8.76599 18.3327 8.99935 18.3327L17.666 18.3327Z" stroke="#101828" stroke-width="1.5" stroke-linecap="round" stroke-linejoin="round"/>
<path d="M8.33268 5.66602C8.33268 5.43266 8.33268 5.31598 8.3781 5.22685C8.41804 5.14845 8.48179 5.08471 8.56019 5.04476C8.64932 4.99935 8.76599 4.99935 8.99935 4.99935H10.9993C11.2327 4.99935 11.3494 4.99935 11.4385 5.04476C11.5169 5.08471 11.5807 5.14845 11.6206 5.22685C11.666 5.31598 11.666 5.43266 11.666 5.66602V7.66602C11.666 7.89937 11.666 8.01605 11.6206 8.10518C11.5807 8.18358 11.5169 8.24732 11.4385 8.28727C11.3494 8.33268 11.2327 8.33268 10.9993 8.33268H8.99935C8.76599 8.33268 8.64932 8.33268 8.56019 8.28727C8.48179 8.24732 8.41804 8.18358 8.3781 8.10518C8.33268 8.01605 8.33268 7.89937 8.33268 7.66602V5.66602Z" stroke="#101828" stroke-width="1.5" stroke-linecap="round" stroke-linejoin="round"/>
<path d="M2.49935 10.666C2.49935 10.4327 2.49935 10.316 2.54476 10.2269C2.58471 10.1485 2.64845 10.0847 2.72685 10.0448C2.81598 9.99935 2.93266 9.99935 3.16602 9.99935H5.16602C5.39937 9.99935 5.51605 9.99935 5.60518 10.0448C5.68358 10.0847 5.74732 10.1485 5.78727 10.2269C5.83268 10.316 5.83268 10.4327 5.83268 10.666V12.666C5.83268 12.8994 5.83268 13.016 5.78727 13.1052C5.74732 13.1836 5.68358 13.2473 5.60518 13.2873C5.51605 13.3327 5.39937 13.3327 5.16602 13.3327H3.16602C2.93266 13.3327 2.81598 13.3327 2.72685 13.2873C2.64845 13.2473 2.58471 13.1836 2.54476 13.1052C2.49935 13.016 2.49935 12.8994 2.49935 12.666V10.666Z" stroke="#101828" stroke-width="1.5" stroke-linecap="round" stroke-linejoin="round"/>
<path d="M1.66602 2.33268C1.66602 2.09933 1.66602 1.98265 1.71143 1.89352C1.75138 1.81512 1.81512 1.75138 1.89352 1.71143C1.98265 1.66602 2.09933 1.66602 2.33268 1.66602H4.33268C4.56604 1.66602 4.68272 1.66602 4.77185 1.71143C4.85025 1.75138 4.91399 1.81512 4.95394 1.89352C4.99935 1.98265 4.99935 2.09933 4.99935 2.33268V4.33268C4.99935 4.56604 4.99935 4.68272 4.95394 4.77185C4.91399 4.85025 4.85025 4.91399 4.77185 4.95394C4.68272 4.99935 4.56604 4.99935 4.33268 4.99935H2.33268C2.09933 4.99935 1.98265 4.99935 1.89352 4.95394C1.81512 4.91399 1.75138 4.85025 1.71143 4.77185C1.66602 4.68272 1.66602 4.56604 1.66602 4.33268V2.33268Z" stroke="#101828" stroke-width="1.5" stroke-linecap="round" stroke-linejoin="round"/>
</g>
<defs>
<clipPath id="clip0_6912_28677">
<rect width="20" height="20" fill="white"/>
</clipPath>
</defs>
</svg>
