<svg width="20" height="20" viewBox="0 0 20 20" fill="none" xmlns="http://www.w3.org/2000/svg">
<g clip-path="url(#clip0_6123_17890)">
<path d="M10.0003 12.5003C11.381 12.5003 12.5003 11.381 12.5003 10.0003C12.5003 8.61961 11.381 7.50033 10.0003 7.50033C8.61961 7.50033 7.50033 8.61961 7.50033 10.0003C7.50033 11.381 8.61961 12.5003 10.0003 12.5003Z" stroke="#667085" stroke-width="1.67" stroke-linecap="round" stroke-linejoin="round"/>
<path d="M15.6064 12.2731C15.5055 12.5016 15.4755 12.755 15.52 13.0008C15.5646 13.2465 15.6817 13.4733 15.8564 13.6518L15.9018 13.6973C16.0427 13.838 16.1545 14.0051 16.2307 14.1891C16.307 14.373 16.3462 14.5702 16.3462 14.7693C16.3462 14.9684 16.307 15.1655 16.2307 15.3495C16.1545 15.5334 16.0427 15.7005 15.9018 15.8412C15.7611 15.9821 15.594 16.0939 15.4101 16.1701C15.2261 16.2464 15.029 16.2856 14.8299 16.2856C14.6308 16.2856 14.4336 16.2464 14.2497 16.1701C14.0657 16.0939 13.8986 15.9821 13.7579 15.8412L13.7124 15.7958C13.5339 15.6211 13.3071 15.504 13.0614 15.4594C12.8156 15.4149 12.5622 15.4449 12.3337 15.5458C12.1096 15.6418 11.9185 15.8013 11.7839 16.0045C11.6493 16.2078 11.5771 16.4459 11.5761 16.6897V16.8185C11.5761 17.2204 11.4165 17.6057 11.1323 17.8899C10.8482 18.174 10.4628 18.3337 10.0609 18.3337C9.65909 18.3337 9.2737 18.174 8.98956 17.8899C8.70541 17.6057 8.54578 17.2204 8.54578 16.8185V16.7503C8.53991 16.4996 8.45875 16.2564 8.31283 16.0524C8.16692 15.8484 7.963 15.693 7.7276 15.6064C7.4991 15.5055 7.24563 15.4755 6.99988 15.52C6.75413 15.5646 6.52736 15.6817 6.34881 15.8564L6.30336 15.9018C6.16264 16.0427 5.99554 16.1545 5.8116 16.2307C5.62766 16.307 5.4305 16.3462 5.23139 16.3462C5.03227 16.3462 4.83511 16.307 4.65117 16.2307C4.46724 16.1545 4.30013 16.0427 4.15942 15.9018C4.01854 15.7611 3.90679 15.594 3.83054 15.4101C3.75429 15.2261 3.71504 15.029 3.71504 14.8299C3.71504 14.6308 3.75429 14.4336 3.83054 14.2497C3.90679 14.0657 4.01854 13.8986 4.15942 13.7579L4.20487 13.7124C4.37952 13.5339 4.49668 13.3071 4.54124 13.0614C4.5858 12.8156 4.55572 12.5622 4.45487 12.3337C4.35884 12.1096 4.19938 11.9185 3.99613 11.7839C3.79288 11.6493 3.55471 11.5771 3.31093 11.5761H3.18214C2.7803 11.5761 2.39492 11.4165 2.11077 11.1323C1.82662 10.8482 1.66699 10.4628 1.66699 10.0609C1.66699 9.65909 1.82662 9.2737 2.11077 8.98956C2.39492 8.70541 2.7803 8.54578 3.18214 8.54578H3.25033C3.50108 8.53991 3.74427 8.45875 3.94828 8.31283C4.15229 8.16692 4.30769 7.963 4.39427 7.7276C4.49511 7.4991 4.52519 7.24563 4.48063 6.99988C4.43607 6.75413 4.31891 6.52736 4.14427 6.34881L4.09881 6.30336C3.95794 6.16264 3.84618 5.99554 3.76993 5.8116C3.69368 5.62766 3.65444 5.4305 3.65444 5.23139C3.65444 5.03227 3.69368 4.83511 3.76993 4.65117C3.84618 4.46724 3.95794 4.30013 4.09881 4.15942C4.23953 4.01854 4.40663 3.90679 4.59057 3.83054C4.7745 3.75429 4.97167 3.71504 5.17078 3.71504C5.36989 3.71504 5.56706 3.75429 5.75099 3.83054C5.93493 3.90679 6.10203 4.01854 6.24275 4.15942L6.2882 4.20487C6.46675 4.37952 6.69352 4.49668 6.93927 4.54124C7.18503 4.5858 7.4385 4.55572 7.66699 4.45487H7.7276C7.95167 4.35884 8.14276 4.19938 8.27737 3.99613C8.41197 3.79288 8.4842 3.55471 8.48517 3.31093V3.18214C8.48517 2.7803 8.64481 2.39492 8.92895 2.11077C9.2131 1.82662 9.59848 1.66699 10.0003 1.66699C10.4022 1.66699 10.7876 1.82662 11.0717 2.11077C11.3558 2.39492 11.5155 2.7803 11.5155 3.18214V3.25033C11.5164 3.4941 11.5887 3.73228 11.7233 3.93553C11.8579 4.13878 12.049 4.29823 12.2731 4.39427C12.5016 4.49511 12.755 4.52519 13.0008 4.48063C13.2465 4.43607 13.4733 4.31891 13.6518 4.14427L13.6973 4.09881C13.838 3.95794 14.0051 3.84618 14.1891 3.76993C14.373 3.69368 14.5702 3.65444 14.7693 3.65444C14.9684 3.65444 15.1655 3.69368 15.3495 3.76993C15.5334 3.84618 15.7005 3.95794 15.8412 4.09881C15.9821 4.23953 16.0939 4.40663 16.1701 4.59057C16.2464 4.7745 16.2856 4.97167 16.2856 5.17078C16.2856 5.36989 16.2464 5.56706 16.1701 5.75099C16.0939 5.93493 15.9821 6.10203 15.8412 6.24275L15.7958 6.2882C15.6211 6.46675 15.504 6.69352 15.4594 6.93927C15.4149 7.18503 15.4449 7.4385 15.5458 7.66699V7.7276C15.6418 7.95167 15.8013 8.14276 16.0045 8.27737C16.2078 8.41197 16.4459 8.4842 16.6897 8.48517H16.8185C17.2204 8.48517 17.6057 8.64481 17.8899 8.92895C18.174 9.2131 18.3337 9.59848 18.3337 10.0003C18.3337 10.4022 18.174 10.7876 17.8899 11.0717C17.6057 11.3558 17.2204 11.5155 16.8185 11.5155H16.7503C16.5065 11.5164 16.2684 11.5887 16.0651 11.7233C15.8619 11.8579 15.7024 12.049 15.6064 12.2731Z" stroke="#667085" stroke-width="1.67" stroke-linecap="round" stroke-linejoin="round"/>
</g>
<defs>
<clipPath id="clip0_6123_17890">
<rect width="20" height="20" fill="white"/>
</clipPath>
</defs>
</svg>
