<svg width="238" height="99" viewBox="0 0 238 99" fill="none" xmlns="http://www.w3.org/2000/svg">
<rect width="237.667" height="99" fill="#F8F9FA"/>
<rect x="97" y="9" width="45" height="81" rx="2.94737" fill="#E9ECEF"/>
<g clip-path="url(#clip0_1532_212703)">
<path d="M127.013 39.3334C127.716 39.3343 128.391 39.6142 128.888 40.1118C129.386 40.6093 129.666 41.2838 129.667 41.9874V58.0128C129.666 58.7164 129.386 59.3909 128.888 59.8885C128.391 60.386 127.716 60.6659 127.013 60.6668H110.987C110.284 60.6659 109.609 60.386 109.112 59.8885C108.614 59.3909 108.334 58.7164 108.333 58.0128V41.9874C108.334 41.2838 108.614 40.6093 109.112 40.1118C109.609 39.6142 110.284 39.3343 110.987 39.3334H127.013ZM127.013 36.6668H110.987C110.289 36.6667 109.597 36.8043 108.951 37.0716C108.306 37.339 107.719 37.7309 107.225 38.225C106.731 38.7191 106.339 39.3056 106.072 39.9512C105.804 40.5968 105.667 41.2887 105.667 41.9874V58.0128C105.667 58.7115 105.804 59.4034 106.072 60.049C106.339 60.6946 106.731 61.2812 107.225 61.7753C107.719 62.2693 108.306 62.6613 108.951 62.9286C109.597 63.196 110.289 63.3335 110.987 63.3334H127.013C127.711 63.3335 128.403 63.196 129.049 62.9286C129.694 62.6613 130.281 62.2693 130.775 61.7753C131.269 61.2812 131.661 60.6946 131.929 60.049C132.196 59.4034 132.333 58.7115 132.333 58.0128V41.9874C132.333 41.2887 132.196 40.5968 131.929 39.9512C131.661 39.3056 131.269 38.7191 130.775 38.225C130.281 37.7309 129.694 37.339 129.049 37.0716C128.403 36.8043 127.711 36.6667 127.013 36.6668Z" fill="#ADB5BD"/>
<path d="M119 56.6668C115.324 56.6668 112.333 53.6761 112.333 50.0001C112.333 46.3241 115.324 43.3334 119 43.3334C122.676 43.3334 125.667 46.3241 125.667 50.0001C125.667 53.6761 122.676 56.6668 119 56.6668ZM119 46.0001C116.794 46.0001 115 47.7941 115 50.0001C115 52.2061 116.794 54.0001 119 54.0001C121.206 54.0001 123 52.2061 123 50.0001C123 47.7941 121.206 46.0001 119 46.0001Z" fill="#ADB5BD"/>
<path d="M126.333 44.0001C127.07 44.0001 127.667 43.4031 127.667 42.6668C127.667 41.9304 127.07 41.3334 126.333 41.3334C125.597 41.3334 125 41.9304 125 42.6668C125 43.4031 125.597 44.0001 126.333 44.0001Z" fill="#ADB5BD"/>
</g>
<defs>
<clipPath id="clip0_1532_212703">
<rect width="32" height="32" fill="white" transform="translate(103 34)"/>
</clipPath>
</defs>
</svg>
