<svg width="19" height="19" viewBox="0 0 19 19" fill="none" xmlns="http://www.w3.org/2000/svg">
<path d="M1.39735 15.0973C1.43564 14.7527 1.45478 14.5804 1.50691 14.4194C1.55316 14.2765 1.61851 14.1405 1.70118 14.0152C1.79436 13.8739 1.91694 13.7513 2.16209 13.5061L13.1673 2.5009C14.0878 1.58043 15.5802 1.58043 16.5007 2.5009C17.4211 3.42138 17.4211 4.91376 16.5007 5.83424L5.49542 16.8395C5.25027 17.0846 5.1277 17.2072 4.98639 17.3004C4.86102 17.383 4.72506 17.4484 4.58219 17.4946C4.42115 17.5468 4.24887 17.5659 3.90429 17.6042L1.08398 17.9176L1.39735 15.0973Z" stroke="#475467" stroke-width="1.66667" stroke-linecap="round" stroke-linejoin="round"/>
</svg>
