<svg width="16" height="20" viewBox="0 0 16 20" fill="none" xmlns="http://www.w3.org/2000/svg">
<path d="M9.66732 1.89063V5.33274C9.66732 5.79945 9.66732 6.03281 9.75815 6.21107C9.83804 6.36787 9.96552 6.49535 10.1223 6.57525C10.3006 6.66608 10.5339 6.66608 11.0007 6.66608H14.4428M11.334 10.8327H4.66732M11.334 14.166H4.66732M6.33398 7.49935H4.66732M9.66732 1.66602H5.33398C3.93385 1.66602 3.23379 1.66602 2.69901 1.9385C2.2286 2.17818 1.84615 2.56063 1.60647 3.03104C1.33398 3.56582 1.33398 4.26588 1.33398 5.66602V14.3327C1.33398 15.7328 1.33398 16.4329 1.60647 16.9677C1.84615 17.4381 2.2286 17.8205 2.69901 18.0602C3.23379 18.3327 3.93385 18.3327 5.33398 18.3327H10.6673C12.0674 18.3327 12.7675 18.3327 13.3023 18.0602C13.7727 17.8205 14.1552 17.4381 14.3948 16.9677C14.6673 16.4329 14.6673 15.7328 14.6673 14.3327V6.66602L9.66732 1.66602Z" stroke="#000" stroke-width="1.66667" stroke-linecap="round" stroke-linejoin="round"/>
</svg>
