<svg width="20" height="20" viewBox="0 0 20 20" fill="none" xmlns="http://www.w3.org/2000/svg">
<g clip-path="url(#clip0_9050_36588)">
<path d="M16.666 12.7012C17.671 12.0285 18.3327 10.8829 18.3327 9.58268C18.3327 7.62971 16.8398 6.02543 14.9329 5.84882C14.5428 3.47613 12.4825 1.66602 9.99935 1.66602C7.51622 1.66602 5.45586 3.47613 5.0658 5.84882C3.15894 6.02543 1.66602 7.62971 1.66602 9.58268C1.66602 10.8829 2.32769 12.0285 3.33268 12.7012M6.66602 14.9993V16.666M6.66602 9.99935V11.666M13.3327 14.9993V16.666M13.3327 9.99935V11.666M9.99935 16.666V18.3327M9.99935 11.666V13.3327" stroke="#101828" stroke-width="1.5" stroke-linecap="round" stroke-linejoin="round"/>
<path d="M16.666 12.7012C17.671 12.0285 18.3327 10.8829 18.3327 9.58268C18.3327 7.62971 16.8398 6.02543 14.9329 5.84882C14.5428 3.47613 12.4825 1.66602 9.99935 1.66602C7.51622 1.66602 5.45586 3.47613 5.0658 5.84882C3.15894 6.02543 1.66602 7.62971 1.66602 9.58268C1.66602 10.8829 2.32769 12.0285 3.33268 12.7012M6.66602 14.9993V16.666M6.66602 9.99935V11.666M13.3327 14.9993V16.666M13.3327 9.99935V11.666M9.99935 16.666V18.3327M9.99935 11.666V13.3327" stroke="black" stroke-opacity="0.2" stroke-width="1.5" stroke-linecap="round" stroke-linejoin="round"/>
</g>
<defs>
<clipPath id="clip0_9050_36588">
<rect width="20" height="20" fill="white"/>
</clipPath>
</defs>
</svg>
