<svg width="760" height="250" viewBox="0 0 760 250" fill="none" xmlns="http://www.w3.org/2000/svg">
<rect x="19" y="25" width="200" height="200" rx="20" fill="#1457FF"/>
<path d="M111.197 65.8389L111.197 65.8389C107.776 66.2782 101.161 67.995 97.635 69.3572C81.0669 75.7556 68.1018 89.2398 62.4822 105.923C61.2413 109.607 60.4918 112.26 60.0557 115.104C59.6201 117.946 59.5 120.959 59.5 125.362C59.5 132.091 59.5986 133.565 60.3009 136.904L60.3009 136.904C63.2566 150.951 70.2283 162.643 81.0213 171.642L81.3415 171.258L81.0213 171.642C90.7132 179.723 103.405 184.676 115.739 185.186C118.209 185.288 119.713 185.305 120.718 185.062C121.244 184.935 121.656 184.733 122.007 184.428C122.35 184.13 122.609 183.755 122.861 183.329L122.43 183.075L122.861 183.329C123.503 182.241 123.616 180.925 123.326 179.79C123.038 178.661 122.326 177.629 121.23 177.214L121.23 177.214C121.051 177.146 120.783 177.087 120.486 177.034C120.177 176.98 119.801 176.927 119.384 176.877C118.549 176.778 117.534 176.693 116.537 176.644C112.441 176.442 106.085 175.159 102.103 173.728C91.9138 170.068 82.6067 162.827 76.7315 153.995C70.8673 145.18 68.067 135.855 68.0822 125.192C68.0907 119.077 68.9567 113.889 70.9034 108.282L70.4311 108.118L70.9034 108.282C74.105 99.0588 80.6623 90.2047 88.8116 84.1124L88.5123 83.712L88.8117 84.1124C90.3678 82.9491 92.9616 81.3947 95.5797 79.9969C98.2013 78.5972 100.8 77.3796 102.365 76.8735C112.604 73.5631 122.377 73.1674 131.923 75.6618C141.024 78.0402 147.858 81.8833 154.894 88.5841C164.269 97.512 169.78 109.529 170.517 122.659C170.634 124.742 170.698 125.875 170.882 126.613C170.98 127.005 171.116 127.305 171.314 127.587C171.502 127.853 171.741 128.093 172.008 128.361L172.008 128.361C172.469 128.823 172.867 129.155 173.333 129.359C173.803 129.564 174.295 129.618 174.903 129.618C175.516 129.618 176.01 129.565 176.488 129.351C176.959 129.14 177.367 128.795 177.851 128.31C178.407 127.755 178.795 127.364 178.984 126.709C179.157 126.111 179.157 125.303 179.156 123.944C179.148 115.715 176.743 106.015 172.757 98.0983C167.272 87.2065 157.353 77.3106 146.389 71.7891L146.164 72.2357L146.389 71.7891C140.87 69.0102 132.756 66.5266 126.826 65.8033L126.765 66.2997L126.826 65.8033C125.091 65.5919 122.027 65.4935 118.993 65.5003C115.958 65.5072 112.906 65.6195 111.197 65.8389ZM98.8046 96.5656L99.1011 96.9683L98.8046 96.5656C93.7924 100.256 89.5864 105.476 87.0915 111.106L87.5487 111.308L87.0915 111.106C84.1459 117.754 83.4068 126.158 85.1343 133.332C88.1172 145.721 97.9932 155.967 109.858 158.946C114.551 160.124 117.434 160.301 134.536 160.514L149.684 160.702C150.898 160.718 152.066 160.242 152.924 159.384C153.782 158.526 154.261 157.361 154.255 156.148L154.162 138.439L154.081 122.807C154.068 120.261 153.665 117.731 152.888 115.307L152.412 115.459L152.888 115.307C150.844 108.934 148.526 105.017 144.11 100.49C136.487 92.6749 125.529 88.9747 114.328 90.4182C111.937 90.7263 108.99 91.5794 106.186 92.6896C103.383 93.7994 100.685 95.1812 98.8046 96.5656ZM93.7756 131.644L93.2894 131.761L93.7756 131.644C92.9634 128.257 92.8931 122.741 93.62 119.254L93.6201 119.254C94.6032 114.536 97.5695 109.435 101.378 105.936C105.04 102.573 109.111 100.481 114.754 99.0828L114.755 99.0827C114.755 99.0827 114.755 99.0827 114.755 99.0827C114.757 99.0823 114.769 99.0797 114.796 99.076C114.825 99.072 114.863 99.0677 114.911 99.0634C115.007 99.0546 115.133 99.0464 115.287 99.039C115.595 99.0243 116.001 99.0135 116.477 99.0073C117.43 98.9949 118.653 99.0009 119.916 99.0283C123.518 99.1069 124.969 99.2908 126.776 99.8644C135.126 102.517 141.649 108.953 144.468 117.326C145.175 119.425 145.543 121.623 145.559 123.837L145.648 136.378L145.699 143.527C145.732 148.103 142.026 151.827 137.449 151.815C130.325 151.797 124.655 151.68 120.402 151.46C116.131 151.24 113.336 150.919 111.925 150.512C103.032 147.945 95.9068 140.534 93.7756 131.644ZM102.789 121.294L102.789 121.294C101.366 121.913 100.388 123.213 99.9606 124.671C99.5331 126.131 99.6413 127.798 100.448 129.197L100.448 129.197C102.489 132.736 107.419 132.923 109.65 129.517C110.173 128.719 110.383 127.457 110.365 126.288C110.346 125.123 110.099 123.876 109.544 123.12C107.996 121.009 105.188 120.25 102.789 121.294ZM116.142 131.057L116.142 131.057C116.948 131.65 117.865 131.837 119.356 131.837C120.259 131.837 120.879 131.823 121.404 131.614C121.944 131.398 122.337 130.996 122.86 130.424L122.86 130.424C123.533 129.691 124.278 128.443 124.53 127.602L124.53 127.601C124.719 126.968 124.835 126.488 124.749 125.928C124.668 125.399 124.41 124.833 124.002 124L123.561 124.216L124.002 124C123.267 122.497 122.166 121.454 120.851 120.995C119.533 120.535 118.063 120.684 116.639 121.447C114.942 122.357 114.066 124.217 113.973 126.072C113.881 127.928 114.566 129.897 116.142 131.057ZM130.992 121.417L131.22 121.862L130.992 121.417C130.111 121.867 129.418 122.457 128.925 123.214C128.433 123.969 128.158 124.863 128.07 125.891C127.828 128.693 129.436 130.796 131.514 131.619C133.595 132.443 136.158 131.983 137.778 129.709C138.765 128.323 138.955 126.526 138.554 124.943C138.153 123.363 137.14 121.913 135.616 121.276C134.808 120.939 134.039 120.77 133.268 120.792C132.496 120.815 131.752 121.03 130.992 121.417Z" fill="white" stroke="white"/>
<path d="M328.898 90.1818H341.545V135.795C341.545 140.795 340.364 145.193 338 148.989C335.659 152.784 332.364 155.75 328.114 157.886C323.864 160 318.898 161.057 313.216 161.057C307.511 161.057 302.534 160 298.284 157.886C294.034 155.75 290.739 152.784 288.398 148.989C286.057 145.193 284.886 140.795 284.886 135.795V90.1818H297.534V134.739C297.534 137.648 298.17 140.239 299.443 142.511C300.739 144.784 302.557 146.568 304.898 147.864C307.239 149.136 310.011 149.773 313.216 149.773C316.42 149.773 319.193 149.136 321.534 147.864C323.898 146.568 325.716 144.784 326.989 142.511C328.261 140.239 328.898 137.648 328.898 134.739V90.1818ZM396.134 121.477L384.884 122.705C384.565 121.568 384.009 120.5 383.213 119.5C382.44 118.5 381.395 117.693 380.077 117.08C378.759 116.466 377.145 116.159 375.236 116.159C372.668 116.159 370.509 116.716 368.759 117.83C367.031 118.943 366.179 120.386 366.202 122.159C366.179 123.682 366.736 124.92 367.872 125.875C369.031 126.83 370.94 127.614 373.599 128.227L382.531 130.136C387.486 131.205 391.168 132.898 393.577 135.216C396.009 137.534 397.236 140.568 397.259 144.318C397.236 147.614 396.27 150.523 394.361 153.045C392.474 155.545 389.849 157.5 386.486 158.909C383.122 160.318 379.259 161.023 374.895 161.023C368.486 161.023 363.327 159.682 359.418 157C355.509 154.295 353.179 150.534 352.429 145.716L364.463 144.557C365.009 146.92 366.168 148.705 367.94 149.909C369.713 151.114 372.02 151.716 374.861 151.716C377.793 151.716 380.145 151.114 381.918 149.909C383.713 148.705 384.611 147.216 384.611 145.443C384.611 143.943 384.031 142.705 382.872 141.727C381.736 140.75 379.963 140 377.554 139.477L368.622 137.602C363.599 136.557 359.884 134.795 357.474 132.318C355.065 129.818 353.872 126.659 353.895 122.841C353.872 119.614 354.747 116.818 356.52 114.455C358.315 112.068 360.804 110.227 363.986 108.932C367.19 107.614 370.884 106.955 375.065 106.955C381.202 106.955 386.031 108.261 389.554 110.875C393.099 113.489 395.293 117.023 396.134 121.477ZM430.616 161.023C425.366 161.023 420.832 159.932 417.014 157.75C413.219 155.545 410.298 152.432 408.253 148.409C406.207 144.364 405.185 139.602 405.185 134.125C405.185 128.739 406.207 124.011 408.253 119.943C410.321 115.852 413.207 112.67 416.912 110.398C420.616 108.102 424.969 106.955 429.969 106.955C433.196 106.955 436.241 107.477 439.105 108.523C441.991 109.545 444.537 111.136 446.741 113.295C448.969 115.455 450.719 118.205 451.991 121.545C453.264 124.864 453.901 128.818 453.901 133.409V137.193H410.98V128.875H442.071C442.048 126.511 441.537 124.409 440.537 122.568C439.537 120.705 438.139 119.239 436.344 118.17C434.571 117.102 432.503 116.568 430.139 116.568C427.616 116.568 425.401 117.182 423.491 118.409C421.582 119.614 420.094 121.205 419.026 123.182C417.98 125.136 417.446 127.284 417.423 129.625V136.886C417.423 139.932 417.98 142.545 419.094 144.727C420.207 146.886 421.764 148.545 423.764 149.705C425.764 150.841 428.105 151.409 430.787 151.409C432.582 151.409 434.207 151.159 435.662 150.659C437.116 150.136 438.378 149.375 439.446 148.375C440.514 147.375 441.321 146.136 441.866 144.659L453.389 145.955C452.662 149 451.276 151.659 449.23 153.932C447.207 156.182 444.616 157.932 441.457 159.182C438.298 160.409 434.685 161.023 430.616 161.023ZM464.341 160V107.636H476.307V116.364H476.852C477.807 113.341 479.443 111.011 481.761 109.375C484.102 107.716 486.773 106.886 489.773 106.886C490.455 106.886 491.216 106.92 492.057 106.989C492.92 107.034 493.636 107.114 494.205 107.227V118.58C493.682 118.398 492.852 118.239 491.716 118.102C490.602 117.943 489.523 117.864 488.477 117.864C486.227 117.864 484.205 118.352 482.409 119.33C480.636 120.284 479.239 121.614 478.216 123.318C477.193 125.023 476.682 126.989 476.682 129.216V160H464.341ZM540.892 109.375C540.574 106.398 539.233 104.08 536.869 102.42C534.528 100.761 531.483 99.9318 527.733 99.9318C525.097 99.9318 522.835 100.33 520.949 101.125C519.063 101.92 517.619 103 516.619 104.364C515.619 105.727 515.108 107.284 515.085 109.034C515.085 110.489 515.415 111.75 516.074 112.818C516.756 113.886 517.676 114.795 518.835 115.545C519.994 116.273 521.278 116.886 522.688 117.386C524.097 117.886 525.517 118.307 526.949 118.648L533.494 120.284C536.131 120.898 538.665 121.727 541.097 122.773C543.551 123.818 545.744 125.136 547.676 126.727C549.631 128.318 551.176 130.239 552.312 132.489C553.449 134.739 554.017 137.375 554.017 140.398C554.017 144.489 552.972 148.091 550.881 151.205C548.79 154.295 545.767 156.716 541.812 158.466C537.881 160.193 533.119 161.057 527.528 161.057C522.097 161.057 517.381 160.216 513.381 158.534C509.403 156.852 506.29 154.398 504.04 151.17C501.813 147.943 500.608 144.011 500.426 139.375H512.869C513.051 141.807 513.801 143.83 515.119 145.443C516.438 147.057 518.153 148.261 520.267 149.057C522.403 149.852 524.79 150.25 527.426 150.25C530.176 150.25 532.585 149.841 534.653 149.023C536.744 148.182 538.381 147.023 539.562 145.545C540.744 144.045 541.347 142.295 541.369 140.295C541.347 138.477 540.813 136.977 539.767 135.795C538.722 134.591 537.256 133.591 535.369 132.795C533.506 131.977 531.324 131.25 528.824 130.614L520.881 128.568C515.131 127.091 510.585 124.852 507.244 121.852C503.926 118.83 502.267 114.818 502.267 109.818C502.267 105.705 503.381 102.102 505.608 99.0114C507.858 95.9205 510.915 93.5227 514.778 91.8182C518.642 90.0909 523.017 89.2273 527.903 89.2273C532.858 89.2273 537.199 90.0909 540.926 91.8182C544.676 93.5227 547.619 95.8977 549.756 98.9432C551.892 101.966 552.994 105.443 553.062 109.375H540.892ZM590.895 107.636V117.182H560.793V107.636H590.895ZM568.224 95.0909H580.565V144.25C580.565 145.909 580.815 147.182 581.315 148.068C581.838 148.932 582.52 149.523 583.361 149.841C584.202 150.159 585.134 150.318 586.156 150.318C586.929 150.318 587.634 150.261 588.27 150.148C588.929 150.034 589.429 149.932 589.77 149.841L591.849 159.489C591.19 159.716 590.247 159.966 589.02 160.239C587.815 160.511 586.338 160.67 584.588 160.716C581.497 160.807 578.713 160.341 576.236 159.318C573.759 158.273 571.793 156.659 570.338 154.477C568.906 152.295 568.202 149.568 568.224 146.295V95.0909ZM616.284 161.057C612.966 161.057 609.977 160.466 607.318 159.284C604.682 158.08 602.591 156.307 601.045 153.966C599.523 151.625 598.761 148.739 598.761 145.307C598.761 142.352 599.307 139.909 600.398 137.977C601.489 136.045 602.977 134.5 604.864 133.341C606.75 132.182 608.875 131.307 611.239 130.716C613.625 130.102 616.091 129.659 618.636 129.386C621.705 129.068 624.193 128.784 626.102 128.534C628.011 128.261 629.398 127.852 630.261 127.307C631.148 126.739 631.591 125.864 631.591 124.682V124.477C631.591 121.909 630.83 119.92 629.307 118.511C627.784 117.102 625.591 116.398 622.727 116.398C619.705 116.398 617.307 117.057 615.534 118.375C613.784 119.693 612.602 121.25 611.989 123.045L600.466 121.409C601.375 118.227 602.875 115.568 604.966 113.432C607.057 111.273 609.614 109.659 612.636 108.591C615.659 107.5 619 106.955 622.659 106.955C625.182 106.955 627.693 107.25 630.193 107.841C632.693 108.432 634.977 109.409 637.045 110.773C639.114 112.114 640.773 113.943 642.023 116.261C643.295 118.58 643.932 121.477 643.932 124.955V160H632.068V152.807H631.659C630.909 154.261 629.852 155.625 628.489 156.898C627.148 158.148 625.455 159.159 623.409 159.932C621.386 160.682 619.011 161.057 616.284 161.057ZM619.489 151.989C621.966 151.989 624.114 151.5 625.932 150.523C627.75 149.523 629.148 148.205 630.125 146.568C631.125 144.932 631.625 143.148 631.625 141.216V135.045C631.239 135.364 630.58 135.659 629.648 135.932C628.739 136.205 627.716 136.443 626.58 136.648C625.443 136.852 624.318 137.034 623.205 137.193C622.091 137.352 621.125 137.489 620.307 137.602C618.466 137.852 616.818 138.261 615.364 138.83C613.909 139.398 612.761 140.193 611.92 141.216C611.08 142.216 610.659 143.511 610.659 145.102C610.659 147.375 611.489 149.091 613.148 150.25C614.807 151.409 616.92 151.989 619.489 151.989ZM667.591 143.568L667.557 128.67H669.534L688.352 107.636H702.773L679.625 133.409H677.068L667.591 143.568ZM656.341 160V90.1818H668.682V160H656.341ZM689.205 160L672.159 136.17L680.477 127.477L703.966 160H689.205Z" fill="#07090D"/>
</svg>
