<svg width="30" height="30" viewBox="0 0 30 30" fill="none" xmlns="http://www.w3.org/2000/svg">
<rect width="30" height="30" rx="3.58274" fill="#4C6EF5"/>
<path fill-rule="evenodd" clip-rule="evenodd" d="M13.7443 5.86674C13.2219 5.93382 12.2048 6.19771 11.6645 6.40641C9.12284 7.38798 7.13409 9.4566 6.27221 12.0153C5.88937 13.1519 5.81494 13.6374 5.81494 14.9975C5.81494 16.0373 5.83026 16.2587 5.93717 16.767C6.3909 18.9235 7.46036 20.7166 9.11624 22.0972C10.6027 23.3366 12.5498 24.0963 14.4404 24.1745C15.212 24.2064 15.3217 24.1799 15.4722 23.9252C15.6477 23.628 15.5374 23.1963 15.2591 23.0908C15.1779 23.06 14.8618 23.0226 14.5568 23.0076C13.9153 22.976 12.9247 22.7759 12.3016 22.5521C10.7102 21.9803 9.25695 20.8499 8.33872 19.4696C7.42307 18.0932 6.98545 16.6358 6.98783 14.9711C6.98915 14.0169 7.12447 13.2059 7.42851 12.3301C7.92904 10.8882 8.95302 9.50604 10.2255 8.55479C10.7162 8.18789 11.8465 7.58442 12.3445 7.42337C13.9411 6.90715 15.468 6.84477 16.9601 7.23469C18.3811 7.60602 19.4498 8.20717 20.5473 9.25244C22.012 10.6473 22.8728 12.5247 22.9879 14.5752C23.0246 15.2285 23.0267 15.237 23.1961 15.4069C23.335 15.5461 23.4092 15.5786 23.5891 15.5786C23.771 15.5786 23.8434 15.5462 23.9906 15.399C24.1663 15.2233 24.1702 15.2097 24.1697 14.7783C24.1685 13.5183 23.7998 12.0297 23.1881 10.815C22.3472 9.14506 20.8249 7.62625 19.1435 6.77953C18.2975 6.35353 17.051 5.97206 16.1428 5.8613C15.6164 5.79712 14.2629 5.80018 13.7443 5.86674ZM14.2288 9.66888C13.5061 9.76201 12.4307 10.1877 11.8634 10.6054C11.0988 11.1684 10.4568 11.9653 10.0764 12.8237C9.62776 13.8362 9.51483 15.1189 9.77814 16.2124C10.2332 18.1024 11.7403 19.6643 13.5463 20.1177C14.2617 20.2973 14.6975 20.3248 17.3458 20.3579L19.95 20.3903L20.1346 20.2057L20.3192 20.0212L20.3035 17.0208L20.2878 14.0204L20.11 13.4657C19.7973 12.4907 19.4447 11.8954 18.7705 11.2042C17.609 10.0134 15.9383 9.44857 14.2288 9.66888ZM16.1678 10.9797C17.4832 11.3975 18.5106 12.4114 18.9546 13.7298L19.1236 14.2316L19.1411 16.701L19.1588 19.1704L17.7953 19.167C15.59 19.1615 14.2818 19.094 13.8258 18.9624C12.4237 18.5577 11.3007 17.3901 10.9644 15.9874C10.8361 15.4521 10.8251 14.5873 10.9399 14.037C11.0955 13.2902 11.5632 12.487 12.1634 11.9357C12.7409 11.4054 13.3827 11.0762 14.2663 10.8574C14.3244 10.843 14.6928 10.8382 15.085 10.8467C15.6445 10.8589 15.8777 10.8876 16.1678 10.9797ZM12.4649 14.4392C12.0743 14.6092 11.9128 15.1603 12.1388 15.5522C12.4265 16.0509 13.1177 16.0754 13.4306 15.598C13.5673 15.3893 13.5595 14.8915 13.4165 14.6965C13.1983 14.3991 12.8028 14.2921 12.4649 14.4392ZM14.6129 14.4602C14.1483 14.7094 14.1091 15.4952 14.5453 15.8163C14.6501 15.8934 14.7719 15.9219 14.9966 15.9219C15.2835 15.9219 15.3164 15.9088 15.4817 15.7284C15.5792 15.622 15.6878 15.439 15.7229 15.3218C15.7812 15.1273 15.7745 15.0836 15.6459 14.8209C15.4328 14.3852 15.0208 14.2414 14.6129 14.4602ZM16.8318 14.4562C16.5794 14.585 16.4473 14.7877 16.4216 15.0861C16.3532 15.88 17.3273 16.2656 17.7833 15.6251C18.0574 15.2403 17.8977 14.6106 17.4822 14.437C17.2476 14.3389 17.0504 14.3448 16.8318 14.4562Z" fill="white"/>
</svg>
