<svg width="142" height="49" viewBox="0 0 142 49" fill="none" xmlns="http://www.w3.org/2000/svg">
<g clip-path="url(#clip0_1890_234869)">
<mask id="mask0_1890_234869" style="mask-type:luminance" maskUnits="userSpaceOnUse" x="0" y="0" width="142" height="49">
<path d="M142 0H0V48.5989H142V0Z" fill="white"/>
</mask>
<g mask="url(#mask0_1890_234869)">
<path d="M92.1422 21.4276L92.1353 21.4194C92.7808 21.1927 93.2326 20.8198 93.5227 20.4964C94.0543 19.9072 94.3785 19.1224 94.4658 18.2272C94.4757 18.1263 94.4833 18.0233 94.4863 17.9192C94.4894 17.8503 94.4901 17.7813 94.4901 17.7112C94.4901 17.6463 94.4894 17.5825 94.4863 17.5197C94.4476 16.4897 94.1127 15.5955 93.5227 14.9425C93.2045 14.5819 92.7003 14.1782 91.944 13.9433C91.8711 13.9206 91.7974 13.9001 91.72 13.8815C91.6053 13.8526 91.4853 13.8279 91.36 13.8073C91.1087 13.7671 90.8361 13.7445 90.5392 13.7445H86.9915V15.4287H90.5392C91.313 15.4287 91.8939 15.6553 92.2804 16.0766C92.7163 16.5617 92.8127 17.2414 92.8127 17.7112C92.8127 18.1975 92.7163 18.8772 92.2804 19.3624C92.1589 19.4942 92.0199 19.6055 91.8605 19.6961C91.8605 19.6961 91.8574 19.6972 91.8551 19.6992C91.5119 19.9031 91.0707 20.0104 90.5392 20.0104H88.8618V19.9937H86.9915V25.7579H88.8618V21.6944H90.2324L93.2478 25.7579H95.3603L92.1422 21.4276Z" fill="#231F20"/>
<path d="M38.9904 14.9273C38.5061 14.3928 37.5868 13.7449 36.0068 13.7449H32.4587V15.429H36.0068C36.7804 15.429 37.3611 15.6556 37.7479 16.0769C38.184 16.562 38.2804 17.2419 38.2804 17.7116C38.2804 18.1978 38.184 18.8777 37.7479 19.3627C37.3611 19.784 36.7804 19.9941 36.0068 19.9941H32.4587V25.7582H34.3292V21.6947H36.0068C37.5868 21.6947 38.5061 21.0469 38.9904 20.4968C39.6348 19.8005 39.9579 18.8292 39.9579 17.7116C39.9579 16.595 39.6348 15.6391 38.9904 14.9273Z" fill="#231F20"/>
<path d="M41.5059 25.7583H43.3774V13.7448H41.5059V25.7583Z" fill="#231F20"/>
<path d="M45.0862 13.745V15.4292H48.3756V25.7585H50.2624V15.4292H53.553V13.745H45.0862Z" fill="#231F20"/>
<path d="M63.0358 22.6664C62.2622 23.443 61.23 23.8808 60.1331 23.8808C59.0363 23.8808 58.0041 23.443 57.2305 22.6664C56.4559 21.8888 56.0208 20.8524 56.0208 19.7524C56.0208 18.6513 56.4559 17.615 57.2305 16.8374C58.0041 16.0441 59.0363 15.624 60.1331 15.624C61.1006 15.624 62.0036 15.9473 62.7301 16.5459V14.3281C62.649 14.2963 62.5525 14.2468 62.4714 14.2148C61.7297 13.8914 60.9397 13.7451 60.1331 13.7451C59.3267 13.7451 58.5367 13.8914 57.8113 14.2148C57.0848 14.5063 56.4559 14.9431 55.9079 15.4941C55.36 16.0441 54.924 16.6921 54.6172 17.4039C54.3115 18.1495 54.1504 18.9427 54.1504 19.7524C54.1504 20.562 54.3115 21.3551 54.6172 22.0834C54.924 22.8116 55.36 23.443 55.9079 23.9941C56.4559 24.5442 57.0848 24.9819 57.8113 25.289C58.5367 25.597 59.3267 25.7585 60.1331 25.7585C60.9397 25.7585 61.7297 25.597 62.4714 25.289C62.8101 25.1435 63.1332 24.9655 63.439 24.7708V22.2132C63.3097 22.3748 63.1814 22.5201 63.0358 22.6664Z" fill="#231F20"/>
<path d="M71.89 13.745V18.8778H67.1158V13.745H65.2454V25.7585H67.1158V20.5773H71.89V25.7585H73.7605V13.745H71.89Z" fill="#231F20"/>
<path d="M80.8945 19.5257V21.2253H83.1528V23.443H83.1369C82.9273 23.5563 82.7018 23.6377 82.4762 23.7025C82.4762 23.7025 82.4595 23.719 82.4428 23.719C82.4269 23.719 82.395 23.719 82.3783 23.7345C82.3631 23.7345 82.3464 23.7345 82.3304 23.751H82.2818C82.2659 23.7674 82.234 23.7674 82.2173 23.7674C82.2006 23.783 82.2006 23.783 82.1854 23.783C82.073 23.7994 81.9432 23.8323 81.8308 23.8479H81.7974H81.7343C81.7176 23.8479 81.7017 23.8479 81.7017 23.8643H81.4587C81.4435 23.8808 81.4276 23.8808 81.4109 23.8808H81.2977C80.2012 23.8808 79.1692 23.443 78.3954 22.6663C77.8958 22.1648 77.5404 21.5488 77.3468 20.8689C77.267 20.5773 77.2184 20.2703 77.2017 19.9625C77.1858 19.8811 77.1858 19.8161 77.1858 19.7524C77.1858 19.671 77.1858 19.606 77.2017 19.5257V19.3475C77.2184 19.1847 77.2503 19.0231 77.2822 18.8614C77.2822 18.8448 77.2822 18.8448 77.2982 18.8294C77.3946 18.3916 77.5571 17.9868 77.7978 17.5984C77.7978 17.582 77.8145 17.5501 77.8312 17.5335C77.8624 17.4851 77.8958 17.4368 77.9277 17.3884C77.9277 17.3884 77.9436 17.3718 77.9603 17.3554C78.0241 17.2585 78.0887 17.1618 78.1699 17.0638C78.1859 17.0638 78.1859 17.0485 78.1859 17.0485C78.2496 16.9671 78.3309 16.9022 78.3954 16.8373C78.6043 16.6107 78.8465 16.417 79.1054 16.2554C79.1373 16.2388 79.1692 16.2223 79.1852 16.2059C79.8147 15.8175 80.5399 15.6239 81.2977 15.6239H81.4109H81.4435H81.5567C81.5718 15.6239 81.5885 15.6393 81.6045 15.6393H81.7495C81.7662 15.6558 81.7974 15.6558 81.8141 15.6558H81.8467C81.8627 15.6558 81.8953 15.6723 81.9113 15.6723H81.9432C82.0085 15.6878 82.0882 15.6878 82.1527 15.7042C82.1687 15.7208 82.1854 15.7208 82.1854 15.7208C82.2173 15.7208 82.234 15.7208 82.2499 15.7372H82.2985C82.3137 15.7526 82.3304 15.7526 82.3464 15.7526C82.5886 15.8175 82.846 15.9144 83.0883 16.0276C83.3791 16.1739 83.6525 16.3356 83.8947 16.5458V14.3281H83.8788C83.8469 14.3116 83.8142 14.2962 83.7823 14.2797C83.7656 14.2797 83.7656 14.2632 83.7656 14.2632C83.1202 13.9717 82.4428 13.8099 81.7495 13.7615C81.7017 13.745 81.6531 13.745 81.6045 13.745H81.5885H81.2977C80.4913 13.745 79.7015 13.8913 78.9764 14.2148C78.2496 14.5063 77.6217 14.943 77.0726 15.494C76.5251 16.0441 76.0885 16.692 75.7829 17.4038C75.508 18.0517 75.3633 18.748 75.3152 19.4444V19.7524C75.3152 19.9459 75.3315 20.1572 75.3469 20.3508C75.3951 20.9502 75.5573 21.5333 75.7829 22.0833C76.0885 22.8115 76.5251 23.443 77.0726 23.9941C77.4592 24.3989 77.911 24.7388 78.3954 24.9973C78.5731 25.1106 78.766 25.2084 78.9764 25.2889C79.0561 25.3218 79.1373 25.3538 79.2186 25.3867C79.2816 25.4021 79.331 25.4351 79.3955 25.4505H79.4115C80.0083 25.6617 80.6523 25.7585 81.2977 25.7585H81.5885H81.6045C82.3631 25.7101 83.0723 25.5484 83.7489 25.2404L83.7656 25.224C83.7983 25.2084 83.8469 25.192 83.8788 25.1755C83.9114 25.1591 83.9433 25.1435 83.9593 25.1271H83.9912C84.0079 25.1106 84.0079 25.1106 84.0246 25.0951C84.0557 25.0951 84.0876 25.0787 84.1043 25.0622C84.121 25.0457 84.137 25.0457 84.1521 25.0302C84.1856 25.0138 84.2007 25.0138 84.2334 24.9973C84.2501 24.9818 84.2653 24.9818 84.282 24.9653C84.2979 24.9489 84.3139 24.9489 84.3298 24.9324C84.3625 24.9169 84.3784 24.9004 84.3944 24.884C84.427 24.884 84.443 24.8685 84.4589 24.8521C84.4756 24.8521 84.4908 24.8355 84.5075 24.8191C84.5242 24.8191 84.5561 24.8038 84.5721 24.7871C84.5888 24.7707 84.5888 24.7707 84.604 24.7707L85.0239 24.4792V19.5257H80.8945Z" fill="#231F20"/>
<path d="M105.069 22.6664C104.295 23.443 103.263 23.8808 102.166 23.8808C101.071 23.8808 100.038 23.443 99.2633 22.6664C98.4903 21.8888 98.0536 20.8524 98.0536 19.7524C98.0536 18.6513 98.4903 17.615 99.2633 16.8375C100.038 16.0606 101.071 15.624 102.166 15.624C103.263 15.624 104.295 16.0606 105.069 16.8375C105.843 17.615 106.279 18.6513 106.279 19.7524C106.279 20.8524 105.843 21.8888 105.069 22.6664ZM107.682 17.4039C107.376 16.6921 106.956 16.0606 106.407 15.4942C105.843 14.9431 105.214 14.5229 104.505 14.2149C103.763 13.9069 102.973 13.7451 102.166 13.7451C101.361 13.7451 100.569 13.9069 99.8442 14.2149C99.119 14.5229 98.4903 14.9431 97.9413 15.4942C97.393 16.0606 96.9571 16.6921 96.6511 17.4039C96.3443 18.1496 96.1833 18.9428 96.1833 19.7524C96.1833 20.562 96.3443 21.3552 96.6511 22.0834C96.9571 22.8116 97.393 23.443 97.9413 23.9941C98.4903 24.5442 99.119 24.982 99.8442 25.289C100.569 25.597 101.361 25.7585 102.166 25.7585C102.973 25.7585 103.763 25.597 104.505 25.289C105.214 24.982 105.843 24.5442 106.407 23.9941C106.956 23.443 107.376 22.8116 107.682 22.0834C107.989 21.3552 108.15 20.562 108.15 19.7524C108.15 18.9428 107.989 18.1496 107.682 17.4039Z" fill="#231F20"/>
<path d="M117.019 13.745V21.6784C117.019 22.3913 116.777 22.9413 116.294 23.3141C115.826 23.6694 115.166 23.8807 114.472 23.8807C113.762 23.8807 113.101 23.6694 112.65 23.3141C112.166 22.9413 111.907 22.3913 111.907 21.6784V13.745H110.036V21.6784C110.036 22.3428 110.165 22.9578 110.44 23.5079C110.682 24.0095 111.037 24.4472 111.505 24.8036C112.295 25.4185 113.343 25.7585 114.472 25.7585C115.6 25.7585 116.649 25.4185 117.439 24.8036C117.89 24.4472 118.246 24.0095 118.503 23.5079C118.761 22.9578 118.906 22.3428 118.906 21.6784V13.745H117.019Z" fill="#231F20"/>
<path d="M128.809 13.7445V21.4514L121.293 13.178V25.758H123.165V18.0357L130.696 26.308V13.7445H128.809Z" fill="#231F20"/>
<path d="M139.18 22.6977C138.47 23.4754 137.422 23.8803 136.035 23.8803H135.068V15.6233H136.035C137.422 15.6233 138.47 16.0117 139.18 16.8048C139.809 17.5011 140.148 18.5209 140.148 19.7518C140.148 20.9652 139.809 22.0014 139.18 22.6977ZM140.567 15.5419C140.051 14.9589 139.406 14.5058 138.647 14.2142C137.873 13.8908 137.002 13.7445 136.035 13.7445H133.196V25.758H136.035C137.002 25.758 137.873 25.5963 138.647 25.2883C139.406 24.9968 140.051 24.5435 140.567 23.9605C141.518 22.9088 142.018 21.4514 142.018 19.7518C142.018 18.0511 141.518 16.5947 140.567 15.5419Z" fill="#231F20"/>
<path d="M36.2179 35.1069H33.4993V37.9679H32.645V31.4897H36.6584V32.1926H33.4993V34.4084H36.2179V35.1069ZM40.5029 37.4918C40.1826 37.8685 39.7124 38.0569 39.0925 38.0569C38.5793 38.0569 38.1878 37.9086 37.9179 37.6119C37.6509 37.3123 37.5159 36.8704 37.513 36.2861V33.1537H38.3361V36.2638C38.3361 36.9935 38.6327 37.3584 39.2259 37.3584C39.8548 37.3584 40.273 37.124 40.4807 36.6553V33.1537H41.3038V37.9679H40.5207L40.5029 37.4918ZM44.6322 38.0569C43.9797 38.0569 43.4487 37.8433 43.0393 37.4161C42.6301 36.986 42.4253 36.4121 42.4253 35.6943V35.543C42.4253 35.0654 42.5158 34.6398 42.6967 34.266C42.8806 33.8893 43.1358 33.5957 43.4621 33.385C43.7913 33.1715 44.1472 33.0647 44.5299 33.0647C45.1558 33.0647 45.6422 33.2709 45.9893 33.6831C46.3363 34.0955 46.5098 34.6857 46.5098 35.454V35.7966H43.2485C43.2603 36.2712 43.3983 36.6553 43.6622 36.949C43.9292 37.2397 44.2674 37.385 44.6767 37.385C44.9674 37.385 45.2136 37.3257 45.4153 37.207C45.617 37.0884 45.7935 36.9312 45.9448 36.7355L46.4476 37.127C46.0441 37.7469 45.4391 38.0569 44.6322 38.0569ZM44.5299 33.741C44.1977 33.741 43.9188 33.8626 43.6934 34.1059C43.468 34.3461 43.3286 34.6843 43.2752 35.1203H45.6867V35.058C45.663 34.6398 45.5503 34.3164 45.3486 34.088C45.1469 33.8566 44.874 33.741 44.5299 33.741ZM48.4367 37.9679H47.6136V31.1337H48.4367V37.9679ZM54.2749 34.7421L55.9657 31.4897H56.9356L54.702 35.5519V37.9679H53.8477V35.5519L51.6142 31.4897H52.5931L54.2749 34.7421ZM57.2073 35.5163C57.2073 35.0447 57.2993 34.6205 57.4832 34.2438C57.6701 33.8671 57.9281 33.5764 58.2573 33.3717C58.5896 33.167 58.9678 33.0647 59.392 33.0647C60.0475 33.0647 60.577 33.2916 60.9804 33.7455C61.3867 34.1993 61.5899 34.8029 61.5899 35.5563V35.6142C61.5899 36.0829 61.4995 36.5041 61.3185 36.8778C61.1405 37.2485 60.884 37.5378 60.5488 37.7454C60.2166 37.9531 59.8339 38.0569 59.4009 38.0569C58.7483 38.0569 58.2188 37.83 57.8124 37.3761C57.4091 36.9223 57.2073 36.3216 57.2073 35.5742V35.5163ZM58.0349 35.6142C58.0349 36.1481 58.158 36.5767 58.4042 36.9001C58.6533 37.2233 58.9856 37.385 59.4009 37.385C59.8191 37.385 60.1513 37.2219 60.3975 36.8956C60.6437 36.5663 60.7668 36.1066 60.7668 35.5163C60.7668 34.9883 60.6407 34.5612 60.3886 34.2349C60.1395 33.9056 59.8073 33.741 59.392 33.741C58.9856 33.741 58.6578 33.9027 58.4087 34.226C58.1595 34.5493 58.0349 35.012 58.0349 35.6142ZM65.6703 37.4918C65.35 37.8685 64.8798 38.0569 64.2598 38.0569C63.7467 38.0569 63.3551 37.9086 63.0853 37.6119C62.8183 37.3123 62.6833 36.8704 62.6804 36.2861V33.1537H63.5034V36.2638C63.5034 36.9935 63.8001 37.3584 64.3933 37.3584C65.0222 37.3584 65.4404 37.124 65.6481 36.6553V33.1537H66.4712V37.9679H65.6881L65.6703 37.4918ZM70.1288 33.8923C70.0043 33.8715 69.8693 33.8611 69.724 33.8611C69.1841 33.8611 68.8178 34.091 68.625 34.5508V37.9679H67.8019V33.1537H68.6028L68.616 33.7099C68.886 33.2798 69.2686 33.0647 69.764 33.0647C69.9242 33.0647 70.0458 33.0854 70.1288 33.127V33.8923ZM73.4309 37.9679V31.4897H75.5488C76.2518 31.4897 76.7795 31.635 77.1326 31.9257C77.4888 32.2164 77.6665 32.6465 77.6665 33.216C77.6665 33.5185 77.5807 33.7869 77.4083 34.0213C77.2367 34.2527 77.002 34.4322 76.7059 34.5597C77.0559 34.6575 77.3316 34.8444 77.5336 35.1203C77.7378 35.3932 77.8404 35.7195 77.8404 36.0992C77.8404 36.6806 77.652 37.1373 77.2754 37.4696C76.8988 37.8017 76.3657 37.9679 75.6779 37.9679H73.4309ZM74.2852 34.9379V37.2694H75.6956C76.0931 37.2694 76.4059 37.167 76.6345 36.9623C76.8661 36.7547 76.9815 36.4699 76.9815 36.1081C76.9815 35.3279 76.557 34.9379 75.709 34.9379H74.2852ZM74.2852 34.2527H75.5755C75.9496 34.2527 76.2472 34.1593 76.4697 33.9724C76.6952 33.7855 76.8076 33.5319 76.8076 33.2115C76.8076 32.8556 76.7044 32.5975 76.4963 32.4373C76.289 32.2742 75.9731 32.1926 75.5488 32.1926H74.2852V34.2527ZM82.0275 37.4918C81.707 37.8685 81.237 38.0569 80.6166 38.0569C80.104 38.0569 79.7122 37.9086 79.4426 37.6119C79.1753 37.3123 79.0401 36.8704 79.0371 36.2861V33.1537H79.8602V36.2638C79.8602 36.9935 80.1572 37.3584 80.7502 37.3584C81.379 37.3584 81.7974 37.124 82.0054 36.6553V33.1537H82.8286V37.9679H82.0449L82.0275 37.4918ZM86.9618 36.691C86.9618 36.4685 86.8775 36.2964 86.7081 36.1748C86.5426 36.0502 86.2502 35.9434 85.8318 35.8544C85.4165 35.7654 85.0862 35.6587 84.8394 35.5341C84.5964 35.4095 84.4156 35.2612 84.2972 35.0892C84.181 34.9171 84.1233 34.7124 84.1233 34.4751C84.1233 34.0807 84.2896 33.7469 84.6214 33.474C84.9571 33.2012 85.3838 33.0647 85.9032 33.0647C86.4492 33.0647 86.8912 33.2056 87.2291 33.4874C87.57 33.7692 87.7409 34.1296 87.7409 34.5685H86.9132C86.9132 34.3432 86.8167 34.1489 86.6238 33.9857C86.434 33.8226 86.1941 33.741 85.9032 33.741C85.6033 33.741 85.3694 33.8062 85.2001 33.9368C85.0307 34.0673 84.9464 34.2378 84.9464 34.4484C84.9464 34.6472 85.0254 34.797 85.1826 34.8978C85.3398 34.9986 85.623 35.0951 86.0323 35.187C86.4446 35.279 86.778 35.3887 87.0331 35.5163C87.2883 35.6439 87.4766 35.7981 87.5981 35.9791C87.7226 36.157 87.7849 36.375 87.7849 36.6331C87.7849 37.0632 87.6133 37.4088 87.2693 37.6698C86.9246 37.9279 86.4788 38.0569 85.9298 38.0569C85.544 38.0569 85.2031 37.9886 84.9062 37.8522C84.61 37.7158 84.3769 37.5259 84.2076 37.2827C84.042 37.0365 83.9585 36.771 83.9585 36.4862H84.7816C84.7968 36.7621 84.9062 36.9816 85.1112 37.1447C85.3185 37.305 85.5919 37.385 85.9298 37.385C86.2411 37.385 86.4902 37.3227 86.677 37.1981C86.8668 37.0706 86.9618 36.9015 86.9618 36.691ZM89.8276 37.9679H89.0044V33.1537H89.8276V37.9679ZM88.9376 31.8767C88.9376 31.7432 88.9779 31.6305 89.0576 31.5386C89.1411 31.4466 89.2626 31.4007 89.4228 31.4007C89.5831 31.4007 89.7046 31.4466 89.7873 31.5386C89.8709 31.6305 89.9119 31.7432 89.9119 31.8767C89.9119 32.0102 89.8709 32.1214 89.7873 32.2104C89.7046 32.2994 89.5831 32.3439 89.4228 32.3439C89.2626 32.3439 89.1411 32.2994 89.0576 32.2104C88.9779 32.1214 88.9376 32.0102 88.9376 31.8767ZM92.0039 33.1537L92.0305 33.7588C92.398 33.2961 92.8787 33.0647 93.4717 33.0647C94.4893 33.0647 95.0026 33.6386 95.0117 34.7866V37.9679H94.1886V34.7822C94.1855 34.4351 94.105 34.1785 93.9479 34.0124C93.7937 33.8463 93.5522 33.7632 93.2227 33.7632C92.9561 33.7632 92.7215 33.8344 92.5195 33.9768C92.3183 34.1192 92.1611 34.306 92.0479 34.5374V37.9679H91.2248V33.1537H92.0039ZM98.3263 38.0569C97.674 38.0569 97.1432 37.8433 96.7339 37.4161C96.3247 36.986 96.1196 36.4121 96.1196 35.6943V35.543C96.1196 35.0654 96.21 34.6398 96.3915 34.266C96.5752 33.8893 96.8304 33.5957 97.1562 33.385C97.4857 33.1715 97.8419 33.0647 98.2246 33.0647C98.8503 33.0647 99.3363 33.2709 99.6833 33.6831C100.03 34.0955 100.204 34.6857 100.204 35.454V35.7966H96.9428C96.9549 36.2712 97.0924 36.6553 97.3566 36.949C97.6239 37.2397 97.9618 37.385 98.3711 37.385C98.662 37.385 98.908 37.3257 99.11 37.207C99.3112 37.0884 99.4881 36.9312 99.6392 36.7355L100.142 37.127C99.7387 37.7469 99.1335 38.0569 98.3263 38.0569ZM98.2246 33.741C97.892 33.741 97.6133 33.8626 97.3877 34.1059C97.1622 34.3461 97.0233 34.6843 96.9694 35.1203H99.3811V35.058C99.3575 34.6398 99.2444 34.3164 99.0431 34.088C98.8412 33.8566 98.5686 33.741 98.2246 33.741ZM104.04 36.691C104.04 36.4685 103.955 36.2964 103.786 36.1748C103.62 36.0502 103.328 35.9434 102.91 35.8544C102.494 35.7654 102.163 35.6587 101.917 35.5341C101.674 35.4095 101.494 35.2612 101.374 35.0892C101.259 34.9171 101.201 34.7124 101.201 34.4751C101.201 34.0807 101.368 33.7469 101.699 33.474C102.035 33.2012 102.462 33.0647 102.981 33.0647C103.526 33.0647 103.968 33.2056 104.307 33.4874C104.648 33.7692 104.819 34.1296 104.819 34.5685H103.991C103.991 34.3432 103.895 34.1489 103.702 33.9857C103.512 33.8226 103.271 33.741 102.981 33.741C102.681 33.741 102.447 33.8062 102.278 33.9368C102.109 34.0673 102.024 34.2378 102.024 34.4484C102.024 34.6472 102.103 34.797 102.26 34.8978C102.417 34.9986 102.7 35.0951 103.11 35.187C103.523 35.279 103.856 35.3887 104.111 35.5163C104.366 35.6439 104.555 35.7981 104.676 35.9791C104.801 36.157 104.863 36.375 104.863 36.6331C104.863 37.0632 104.691 37.4088 104.347 37.6698C104.003 37.9279 103.556 38.0569 103.008 38.0569C102.622 38.0569 102.281 37.9886 101.984 37.8522C101.687 37.7158 101.455 37.5259 101.286 37.2827C101.119 37.0365 101.036 36.771 101.036 36.4862H101.86C101.875 36.7621 101.984 36.9816 102.189 37.1447C102.396 37.305 102.669 37.385 103.008 37.385C103.319 37.385 103.568 37.3227 103.755 37.1981C103.945 37.0706 104.04 36.9015 104.04 36.691ZM108.815 36.691C108.815 36.4685 108.73 36.2964 108.561 36.1748C108.395 36.0502 108.102 35.9434 107.684 35.8544C107.269 35.7654 106.938 35.6587 106.692 35.5341C106.448 35.4095 106.268 35.2612 106.149 35.0892C106.034 34.9171 105.975 34.7124 105.975 34.4751C105.975 34.0807 106.142 33.7469 106.474 33.474C106.809 33.2012 107.237 33.0647 107.755 33.0647C108.301 33.0647 108.743 33.2056 109.081 33.4874C109.422 33.7692 109.593 34.1296 109.593 34.5685H108.765C108.765 34.3432 108.669 34.1489 108.476 33.9857C108.286 33.8226 108.046 33.741 107.755 33.741C107.456 33.741 107.221 33.8062 107.052 33.9368C106.884 34.0673 106.798 34.2378 106.798 34.4484C106.798 34.6472 106.877 34.797 107.035 34.8978C107.192 34.9986 107.475 35.0951 107.884 35.187C108.297 35.279 108.63 35.3887 108.885 35.5163C109.14 35.6439 109.329 35.7981 109.451 35.9791C109.575 36.157 109.638 36.375 109.638 36.6331C109.638 37.0632 109.465 37.4088 109.121 37.6698C108.777 37.9279 108.331 38.0569 107.782 38.0569C107.396 38.0569 107.055 37.9886 106.759 37.8522C106.462 37.7158 106.229 37.5259 106.06 37.2827C105.894 37.0365 105.811 36.771 105.811 36.4862H106.634C106.649 36.7621 106.759 36.9816 106.963 37.1447C107.171 37.305 107.444 37.385 107.782 37.385C108.093 37.385 108.343 37.3227 108.53 37.1981C108.72 37.0706 108.815 36.9015 108.815 36.691ZM118.034 37.1181C117.814 37.4325 117.508 37.6683 117.113 37.8255C116.722 37.9797 116.265 38.0569 115.742 38.0569C115.214 38.0569 114.746 37.9338 114.337 37.6876C113.927 37.4384 113.61 37.0854 113.384 36.6286C113.162 36.1719 113.048 35.6424 113.042 35.0402V34.4751C113.042 33.4992 113.269 32.7428 113.722 32.206C114.179 31.6691 114.82 31.4007 115.645 31.4007C116.321 31.4007 116.865 31.5742 117.278 31.9212C117.69 32.2653 117.942 32.7547 118.034 33.3895H117.18C117.019 32.5323 116.509 32.1036 115.649 32.1036C115.077 32.1036 114.642 32.3054 114.346 32.7087C114.052 33.1092 113.904 33.6906 113.901 34.4529V34.9824C113.901 35.7091 114.066 36.2875 114.399 36.7176C114.731 37.1447 115.18 37.3584 115.747 37.3584C116.067 37.3584 116.347 37.3227 116.588 37.2515C116.828 37.1804 117.027 37.0602 117.184 36.8911V35.4362H115.684V34.7421H118.034V37.1181ZM121.736 33.8923C121.611 33.8715 121.477 33.8611 121.331 33.8611C120.791 33.8611 120.425 34.091 120.232 34.5508V37.9679H119.409V33.1537H120.21L120.223 33.7099C120.494 33.2798 120.876 33.0647 121.371 33.0647C121.532 33.0647 121.653 33.0854 121.736 33.127V33.8923ZM122.266 35.5163C122.266 35.0447 122.358 34.6205 122.541 34.2438C122.728 33.8671 122.986 33.5764 123.316 33.3717C123.648 33.167 124.026 33.0647 124.451 33.0647C125.106 33.0647 125.636 33.2916 126.039 33.7455C126.445 34.1993 126.649 34.8029 126.649 35.5563V35.6142C126.649 36.0829 126.558 36.5041 126.377 36.8778C126.199 37.2485 125.943 37.5378 125.607 37.7454C125.275 37.9531 124.892 38.0569 124.46 38.0569C123.807 38.0569 123.277 37.83 122.871 37.3761C122.468 36.9223 122.266 36.3216 122.266 35.5742V35.5163ZM123.094 35.6142C123.094 36.1481 123.217 36.5767 123.463 36.9001C123.712 37.2233 124.044 37.385 124.46 37.385C124.878 37.385 125.21 37.2219 125.456 36.8956C125.702 36.5663 125.826 36.1066 125.826 35.5163C125.826 34.9883 125.7 34.5612 125.448 34.2349C125.198 33.9056 124.866 33.741 124.451 33.741C124.044 33.741 123.716 33.9027 123.467 34.226C123.218 34.5493 123.094 35.012 123.094 35.6142ZM132.019 36.8333L132.945 33.1537H133.768L132.366 37.9679H131.699L130.528 34.3194L129.389 37.9679H128.722L127.325 33.1537H128.144L129.092 36.7576L130.213 33.1537H130.875L132.019 36.8333ZM135.801 31.9879V33.1537H136.7V33.7899H135.801V36.7755C135.801 36.9683 135.842 37.1136 135.921 37.2115C136.002 37.3064 136.138 37.3539 136.331 37.3539C136.426 37.3539 136.556 37.3361 136.723 37.3005V37.9679C136.506 38.0272 136.296 38.0569 136.091 38.0569C135.723 38.0569 135.445 37.9456 135.258 37.7231C135.072 37.5007 134.978 37.1848 134.978 36.7755V33.7899H134.102V33.1537H134.978V31.9879H135.801ZM138.565 33.7365C138.93 33.2886 139.405 33.0647 139.989 33.0647C141.006 33.0647 141.519 33.6386 141.528 34.7866V37.9679H140.705V34.7822C140.702 34.4351 140.622 34.1785 140.465 34.0124C140.31 33.8463 140.069 33.7632 139.739 33.7632C139.472 33.7632 139.238 33.8344 139.036 33.9768C138.835 34.1192 138.678 34.306 138.565 34.5374V37.9679H137.742V31.1337H138.565V33.7365Z" fill="#585454"/>
<path d="M22.0895 23.5129C21.3061 24.3657 20.133 24.79 18.5683 24.79H11.3914V33.0422H7.99111C6.42641 33.0422 5.25114 32.5849 4.46988 31.732C3.58734 30.7511 3.39143 29.3767 3.39143 28.4268C3.39143 27.4435 3.58734 26.0671 4.46988 25.0861C5.25114 24.2333 6.42641 23.809 7.99111 23.809H15.168V15.5567H18.5683C20.133 15.5567 21.3061 16.0142 22.0895 16.8669C22.9721 17.8479 23.1657 19.2221 23.1657 20.1722C23.1657 21.1555 22.9721 22.5319 22.0895 23.5129ZM24.6029 14.5404C23.6236 13.46 21.7638 12.1498 18.5683 12.1498H11.3848V20.3689H7.99111C4.7956 20.3689 2.93588 21.6791 1.95653 22.7926C0.653625 24.2 0 26.1664 0 28.4268C0 30.6848 0.653625 32.6181 1.95653 34.0586C2.93588 35.139 4.7956 36.4492 7.99111 36.4492H15.1746V28.23H18.5683C21.7638 28.23 23.6236 26.9199 24.6029 25.8063C25.9058 24.3989 26.5594 22.4347 26.5594 20.1722C26.5594 17.9141 25.9058 15.9809 24.6029 14.5404Z" fill="#ED1C24"/>
</g>
</g>
<defs>
<clipPath id="clip0_1890_234869">
<rect width="142" height="48.5989" fill="white"/>
</clipPath>
</defs>
</svg>
