<svg width="20" height="16" viewBox="0 0 20 16" fill="none" xmlns="http://www.w3.org/2000/svg">
<path d="M1.66699 3.83398L8.47109 8.59685C9.02207 8.98254 9.29756 9.17538 9.59721 9.25007C9.8619 9.31605 10.1387 9.31605 10.4034 9.25007C10.7031 9.17538 10.9786 8.98254 11.5296 8.59685L18.3337 3.83398M5.66699 14.6673H14.3337C15.7338 14.6673 16.4339 14.6673 16.9686 14.3948C17.439 14.1552 17.8215 13.7727 18.0612 13.3023C18.3337 12.7675 18.3337 12.0674 18.3337 10.6673V5.33398C18.3337 3.93385 18.3337 3.23379 18.0612 2.69901C17.8215 2.2286 17.439 1.84615 16.9686 1.60647C16.4339 1.33398 15.7338 1.33398 14.3337 1.33398H5.66699C4.26686 1.33398 3.5668 1.33398 3.03202 1.60647C2.56161 1.84615 2.17916 2.2286 1.93948 2.69901C1.66699 3.23379 1.66699 3.93385 1.66699 5.33398V10.6673C1.66699 12.0674 1.66699 12.7675 1.93948 13.3023C2.17916 13.7727 2.56161 14.1552 3.03202 14.3948C3.5668 14.6673 4.26686 14.6673 5.66699 14.6673Z" stroke="#475467" stroke-width="1.66667" stroke-linecap="round" stroke-linejoin="round"/>
</svg>
