<svg width="20" height="20" viewBox="0 0 20 20" fill="none" xmlns="http://www.w3.org/2000/svg">
<path d="M16.6663 8.74935V5.66602C16.6663 4.26588 16.6663 3.56582 16.3939 3.03104C16.1542 2.56063 15.7717 2.17818 15.3013 1.9385C14.7665 1.66602 14.0665 1.66602 12.6663 1.66602H7.33301C5.93288 1.66602 5.23281 1.66602 4.69803 1.9385C4.22763 2.17818 3.84517 2.56063 3.60549 3.03104C3.33301 3.56582 3.33301 4.26588 3.33301 5.66602V14.3327C3.33301 15.7328 3.33301 16.4329 3.60549 16.9677C3.84517 17.4381 4.22763 17.8205 4.69803 18.0602C5.23281 18.3327 5.93288 18.3327 7.33301 18.3327H9.99967M11.6663 9.16602H6.66634M8.33301 12.4993H6.66634M13.333 5.83268H6.66634M14.9997 17.4993V12.4993M12.4997 14.9993H17.4997" stroke="#344054" stroke-width="1.66667" stroke-linecap="round" stroke-linejoin="round"/>
</svg>
