<svg width="20" height="20" viewBox="0 0 20 20" fill="none" xmlns="http://www.w3.org/2000/svg">
<path d="M3.33398 17.5L3.33398 3.33333M3.33398 10.8333H9.50065C9.96736 10.8333 10.2007 10.8333 10.379 10.7425C10.5358 10.6626 10.6633 10.5351 10.7432 10.3783C10.834 10.2001 10.834 9.96671 10.834 9.5V3.83333C10.834 3.36662 10.834 3.13327 10.7432 2.95501C10.6633 2.79821 10.5358 2.67072 10.379 2.59083C10.2007 2.5 9.96736 2.5 9.50065 2.5H4.66732C4.20061 2.5 3.96725 2.5 3.78899 2.59083C3.63219 2.67072 3.50471 2.79821 3.42481 2.95501C3.33398 3.13327 3.33398 3.36662 3.33398 3.83333V10.8333ZM10.834 4.16667H16.1673C16.634 4.16667 16.8674 4.16667 17.0456 4.25749C17.2024 4.33739 17.3299 4.46487 17.4098 4.62167C17.5007 4.79993 17.5007 5.03329 17.5007 5.5V11.1667C17.5007 11.6334 17.5007 11.8667 17.4098 12.045C17.3299 12.2018 17.2024 12.3293 17.0456 12.4092C16.8674 12.5 16.634 12.5 16.1673 12.5H12.1673C11.7006 12.5 11.4673 12.5 11.289 12.4092C11.1322 12.3293 11.0047 12.2018 10.9248 12.045C10.834 11.8667 10.834 11.6334 10.834 11.1667V4.16667Z" stroke="#101828" stroke-width="1.5" stroke-linecap="round" stroke-linejoin="round"/>
</svg>
