<svg width="20" height="20" viewBox="0 0 20 20" fill="none" xmlns="http://www.w3.org/2000/svg">
<g clip-path="url(#clip0_7186_23872)">
<path d="M13.3331 9.16602L1.66641 9.16602M8.33308 3.33268L6.66641 1.66602M11.6664 18.3327L1.66641 18.3327M18.3331 13.3327C18.3331 14.2532 17.5869 14.9993 16.6664 14.9993C15.7459 14.9993 14.9997 14.2532 14.9997 13.3327C14.9997 12.4122 16.6664 10.8327 16.6664 10.8327C16.6664 10.8327 18.3331 12.4122 18.3331 13.3327ZM7.49975 2.49935L13.2236 8.22321C13.5536 8.55322 13.7186 8.71823 13.7805 8.9085C13.8348 9.07587 13.8348 9.25616 13.7805 9.42353C13.7186 9.6138 13.5536 9.77881 13.2236 10.1088L9.38536 13.9471C8.72534 14.6071 8.39532 14.9371 8.01478 15.0608C7.68004 15.1695 7.31946 15.1695 6.98472 15.0608C6.60417 14.9371 6.27416 14.6071 5.61413 13.9471L2.7187 11.0516C2.05867 10.3916 1.72866 10.0616 1.60501 9.68104C1.49625 9.34631 1.49625 8.98573 1.60501 8.65099C1.72866 8.27044 2.05867 7.94043 2.7187 7.2804L7.49975 2.49935Z" stroke="#344054" stroke-width="1.66667" stroke-linecap="round" stroke-linejoin="round"/>
</g>
<defs>
<clipPath id="clip0_7186_23872">
<rect width="20" height="20" fill="white"/>
</clipPath>
</defs>
</svg>
