<svg width="20" height="20" viewBox="0 0 20 20" fill="none" xmlns="http://www.w3.org/2000/svg">
<g clip-path="url(#clip0_7219_25013)">
<path d="M11.7079 4.99935C12.5218 5.15815 13.2699 5.55623 13.8563 6.14263C14.4427 6.72903 14.8407 7.47707 14.9996 8.29102M11.7079 1.66602C13.399 1.85388 14.9759 2.61116 16.1798 3.81352C17.3836 5.01588 18.1429 6.59186 18.3329 8.28268M8.52204 11.5519C7.52072 10.5506 6.73007 9.41839 6.15007 8.21037C6.10018 8.10647 6.07523 8.05451 6.05607 7.98877C5.98797 7.75514 6.03689 7.46826 6.17856 7.2704C6.21843 7.21472 6.26606 7.16709 6.36132 7.07183C6.65266 6.78049 6.79833 6.63483 6.89356 6.48834C7.25273 5.93593 7.25273 5.22378 6.89356 4.67138C6.79833 4.52489 6.65266 4.37923 6.36132 4.08789L6.19893 3.92549C5.75606 3.48263 5.53462 3.26119 5.29681 3.1409C4.82384 2.90168 4.26529 2.90168 3.79232 3.1409C3.5545 3.26119 3.33307 3.48263 2.8902 3.92549L2.75883 4.05686C2.31748 4.49821 2.09681 4.71889 1.92827 5.01891C1.74125 5.35183 1.60678 5.86891 1.60792 6.25076C1.60894 6.59488 1.67569 6.83007 1.8092 7.30044C2.52668 9.82827 3.8804 12.2136 5.87039 14.2036C7.86037 16.1935 10.2457 17.5473 12.7735 18.2647C13.2439 18.3983 13.4791 18.465 13.8232 18.466C14.205 18.4672 14.7221 18.3327 15.055 18.1457C15.3551 17.9771 15.5757 17.7565 16.0171 17.3151L16.1484 17.1837C16.5913 16.7409 16.8128 16.5194 16.933 16.2816C17.1723 15.8087 17.1723 15.2501 16.933 14.7771C16.8128 14.5393 16.5913 14.3179 16.1484 13.875L15.9861 13.7126C15.6947 13.4213 15.549 13.2756 15.4026 13.1804C14.8502 12.8212 14.138 12.8212 13.5856 13.1804C13.4391 13.2756 13.2934 13.4213 13.0021 13.7126C12.9069 13.8079 12.8592 13.8555 12.8035 13.8954C12.6057 14.0371 12.3188 14.086 12.0852 14.0179C12.0194 13.9987 11.9675 13.9738 11.8636 13.9239C10.6556 13.3439 9.52335 12.5532 8.52204 11.5519Z" stroke="#667085" stroke-width="1.66667" stroke-linecap="round" stroke-linejoin="round"/>
</g>
<defs>
<clipPath id="clip0_7219_25013">
<rect width="20" height="20" fill="white"/>
</clipPath>
</defs>
</svg>
