<svg width="16" height="16" viewBox="0 0 16 16" fill="none" xmlns="http://www.w3.org/2000/svg">
<path d="M13.3327 14C13.3327 13.0696 13.3327 12.6044 13.2179 12.2259C12.9593 11.3736 12.2924 10.7067 11.4401 10.4482C11.0616 10.3333 10.5964 10.3333 9.66601 10.3333H6.33268C5.40231 10.3333 4.93712 10.3333 4.55859 10.4482C3.70632 10.7067 3.03938 11.3736 2.78084 12.2259C2.66602 12.6044 2.66602 13.0696 2.66602 14M10.9993 5C10.9993 6.65685 9.6562 8 7.99935 8C6.34249 8 4.99935 6.65685 4.99935 5C4.99935 3.34315 6.34249 2 7.99935 2C9.6562 2 10.9993 3.34315 10.9993 5Z" stroke="#344054" stroke-width="1.5" stroke-linecap="round" stroke-linejoin="round"/>
</svg>
