<svg width="16" height="16" viewBox="0 0 16 16" fill="none" xmlns="http://www.w3.org/2000/svg">
<path d="M2.66732 9.3323L3.71708 13.5313C3.74661 13.6494 3.76137 13.7085 3.77883 13.76C3.94943 14.2637 4.403 14.6178 4.933 14.6612C4.98725 14.6656 5.04812 14.6656 5.16985 14.6656C5.32228 14.6656 5.39849 14.6656 5.4627 14.6594C6.09731 14.5979 6.59954 14.0956 6.66109 13.461C6.66732 13.3968 6.66732 13.3206 6.66732 13.1682V3.66563M12.334 8.99896C13.6227 8.99896 14.6673 7.9543 14.6673 6.66563C14.6673 5.37697 13.6227 4.3323 12.334 4.3323M6.83398 3.66563H4.33398C2.67713 3.66563 1.33398 5.00878 1.33398 6.66563C1.33399 8.32249 2.67713 9.66563 4.33398 9.66563H6.83399C8.0116 9.66563 9.45215 10.2969 10.5635 10.9027C11.2119 11.2562 11.536 11.4329 11.7484 11.4069C11.9453 11.3828 12.0941 11.2944 12.2095 11.133C12.334 10.9591 12.334 10.611 12.334 9.91477V3.41649C12.334 2.72029 12.334 2.3722 12.2095 2.19822C12.0941 2.0369 11.9453 1.9485 11.7484 1.92438C11.536 1.89838 11.2119 2.0751 10.5635 2.42853C9.45215 3.03437 8.0116 3.66563 6.83398 3.66563Z" stroke="#344054" stroke-width="1.5" stroke-linecap="round" stroke-linejoin="round"/>
</svg>
