<svg width="16" height="16" viewBox="0 0 16 16" fill="none" xmlns="http://www.w3.org/2000/svg">
<path d="M14 5.33203H2M10.6667 1.33203V3.33203M5.33333 1.33203V3.33203M5.2 14.6654H10.8C11.9201 14.6654 12.4802 14.6654 12.908 14.4474C13.2843 14.2556 13.5903 13.9497 13.782 13.5733C14 13.1455 14 12.5855 14 11.4654V5.86536C14 4.74526 14 4.18521 13.782 3.75738C13.5903 3.38106 13.2843 3.0751 12.908 2.88335C12.4802 2.66536 11.9201 2.66536 10.8 2.66536H5.2C4.0799 2.66536 3.51984 2.66536 3.09202 2.88335C2.71569 3.0751 2.40973 3.38106 2.21799 3.75738C2 4.18521 2 4.74526 2 5.86536V11.4654C2 12.5855 2 13.1455 2.21799 13.5733C2.40973 13.9497 2.71569 14.2556 3.09202 14.4474C3.51984 14.6654 4.0799 14.6654 5.2 14.6654ZM7.99817 8.21909C7.46501 7.6131 6.57593 7.45009 5.90792 8.005C5.23991 8.55991 5.14586 9.48769 5.67045 10.144C6.05133 10.6205 7.10618 11.5585 7.65555 12.0366C7.77465 12.1403 7.8342 12.1921 7.90398 12.2127C7.96442 12.2305 8.03192 12.2305 8.09237 12.2127C8.16215 12.1921 8.2217 12.1403 8.34079 12.0366C8.89017 11.5585 9.94502 10.6205 10.3259 10.144C10.8505 9.48769 10.7679 8.55407 10.0884 8.005C9.40893 7.45592 8.53133 7.6131 7.99817 8.21909Z" stroke="#344054" stroke-width="1.5" stroke-linecap="round" stroke-linejoin="round"/>
</svg>
