<svg width="11" height="10" viewBox="0 0 11 10" fill="none" xmlns="http://www.w3.org/2000/svg">
<path d="M2.8999 0.5V2.2C2.8999 2.48003 2.8999 2.62004 2.9544 2.727C3.00234 2.82108 3.07883 2.89757 3.17291 2.9455C3.27986 3 3.41988 3 3.6999 3H7.0999C7.37993 3 7.51994 3 7.6269 2.9455C7.72098 2.89757 7.79747 2.82108 7.84541 2.727C7.8999 2.62004 7.8999 2.48003 7.8999 2.2V1M7.8999 9.5V6.3C7.8999 6.01997 7.8999 5.87996 7.84541 5.773C7.79747 5.67892 7.72098 5.60243 7.6269 5.5545C7.51994 5.5 7.37993 5.5 7.0999 5.5H3.6999C3.41988 5.5 3.27986 5.5 3.17291 5.5545C3.07883 5.60243 3.00234 5.67892 2.9544 5.773C2.8999 5.87996 2.8999 6.01997 2.8999 6.3V9.5M9.8999 3.66274V7.1C9.8999 7.94008 9.8999 8.36012 9.73641 8.68099C9.5926 8.96323 9.36313 9.1927 9.08089 9.33651C8.76002 9.5 8.33998 9.5 7.4999 9.5H3.2999C2.45982 9.5 2.03978 9.5 1.71892 9.33651C1.43667 9.1927 1.2072 8.96323 1.06339 8.68099C0.899902 8.36012 0.899902 7.94008 0.899902 7.1V2.9C0.899902 2.05992 0.899902 1.63988 1.06339 1.31901C1.2072 1.03677 1.43667 0.8073 1.71892 0.66349C2.03978 0.5 2.45982 0.5 3.2999 0.5H6.73716C6.98175 0.5 7.10405 0.5 7.21913 0.52763C7.32117 0.552127 7.41871 0.592531 7.50819 0.64736C7.6091 0.709202 7.69558 0.795677 7.86853 0.968629L9.43127 2.53137C9.60422 2.70432 9.6907 2.7908 9.75254 2.89172C9.80737 2.98119 9.84778 3.07873 9.87227 3.18077C9.8999 3.29586 9.8999 3.41815 9.8999 3.66274Z" stroke="white" stroke-linecap="round" stroke-linejoin="round"/>
</svg>
