<svg width="20" height="20" viewBox="0 0 20 20" fill="none" xmlns="http://www.w3.org/2000/svg">
<g clip-path="url(#clip0_6323_14617)">
<path d="M9.99984 12.5003C11.3805 12.5003 12.4998 11.381 12.4998 10.0003C12.4998 8.61961 11.3805 7.50033 9.99984 7.50033C8.61913 7.50033 7.49984 8.61961 7.49984 10.0003C7.49984 11.381 8.61913 12.5003 9.99984 12.5003Z" stroke="#667085" stroke-width="1.67" stroke-linecap="round" stroke-linejoin="round"/>
<path d="M15.6059 12.2731C15.5051 12.5016 15.475 12.755 15.5195 13.0008C15.5641 13.2465 15.6812 13.4733 15.8559 13.6518L15.9014 13.6973C16.0422 13.838 16.154 14.0051 16.2302 14.1891C16.3065 14.373 16.3457 14.5702 16.3457 14.7693C16.3457 14.9684 16.3065 15.1655 16.2302 15.3495C16.154 15.5334 16.0422 15.7005 15.9014 15.8412C15.7606 15.9821 15.5935 16.0939 15.4096 16.1701C15.2257 16.2464 15.0285 16.2856 14.8294 16.2856C14.6303 16.2856 14.4331 16.2464 14.2492 16.1701C14.0652 16.0939 13.8981 15.9821 13.7574 15.8412L13.712 15.7958C13.5334 15.6211 13.3066 15.504 13.0609 15.4594C12.8151 15.4149 12.5617 15.4449 12.3332 15.5458C12.1091 15.6418 11.918 15.8013 11.7834 16.0045C11.6488 16.2078 11.5766 16.4459 11.5756 16.6897V16.8185C11.5756 17.2204 11.416 17.6057 11.1318 17.8899C10.8477 18.174 10.4623 18.3337 10.0604 18.3337C9.6586 18.3337 9.27322 18.174 8.98907 17.8899C8.70492 17.6057 8.54529 17.2204 8.54529 16.8185V16.7503C8.53943 16.4996 8.45826 16.2564 8.31235 16.0524C8.16643 15.8484 7.96252 15.693 7.72711 15.6064C7.49861 15.5055 7.24515 15.4755 6.99939 15.52C6.75364 15.5646 6.52687 15.6817 6.34832 15.8564L6.30287 15.9018C6.16215 16.0427 5.99505 16.1545 5.81111 16.2307C5.62717 16.307 5.43001 16.3462 5.2309 16.3462C5.03178 16.3462 4.83462 16.307 4.65069 16.2307C4.46675 16.1545 4.29965 16.0427 4.15893 15.9018C4.01805 15.7611 3.9063 15.594 3.83005 15.4101C3.7538 15.2261 3.71455 15.029 3.71455 14.8299C3.71455 14.6308 3.7538 14.4336 3.83005 14.2497C3.9063 14.0657 4.01805 13.8986 4.15893 13.7579L4.20438 13.7124C4.37903 13.5339 4.49619 13.3071 4.54075 13.0614C4.58531 12.8156 4.55523 12.5622 4.45438 12.3337C4.35835 12.1096 4.19889 11.9185 3.99564 11.7839C3.79239 11.6493 3.55422 11.5771 3.31044 11.5761H3.18166C2.77981 11.5761 2.39443 11.4165 2.11028 11.1323C1.82614 10.8482 1.6665 10.4628 1.6665 10.0609C1.6665 9.65909 1.82614 9.2737 2.11028 8.98956C2.39443 8.70541 2.77981 8.54578 3.18166 8.54578H3.24984C3.50059 8.53991 3.74378 8.45875 3.94779 8.31283C4.1518 8.16692 4.3072 7.963 4.39378 7.7276C4.49462 7.4991 4.5247 7.24563 4.48014 6.99988C4.43558 6.75413 4.31843 6.52736 4.14378 6.34881L4.09832 6.30336C3.95745 6.16264 3.84569 5.99554 3.76944 5.8116C3.69319 5.62766 3.65395 5.4305 3.65395 5.23139C3.65395 5.03227 3.69319 4.83511 3.76944 4.65117C3.84569 4.46724 3.95745 4.30013 4.09832 4.15942C4.23904 4.01854 4.40614 3.90679 4.59008 3.83054C4.77402 3.75429 4.97118 3.71504 5.17029 3.71504C5.36941 3.71504 5.56657 3.75429 5.7505 3.83054C5.93444 3.90679 6.10154 4.01854 6.24226 4.15942L6.28772 4.20487C6.46626 4.37952 6.69303 4.49668 6.93879 4.54124C7.18454 4.5858 7.43801 4.55572 7.6665 4.45487H7.72711C7.95118 4.35884 8.14228 4.19938 8.27688 3.99613C8.41148 3.79288 8.48371 3.55471 8.48469 3.31093V3.18214C8.48469 2.7803 8.64432 2.39492 8.92846 2.11077C9.21261 1.82662 9.59799 1.66699 9.99984 1.66699C10.4017 1.66699 10.7871 1.82662 11.0712 2.11077C11.3554 2.39492 11.515 2.7803 11.515 3.18214V3.25033C11.516 3.4941 11.5882 3.73228 11.7228 3.93553C11.8574 4.13878 12.0485 4.29823 12.2726 4.39427C12.5011 4.49511 12.7545 4.52519 13.0003 4.48063C13.246 4.43607 13.4728 4.31891 13.6514 4.14427L13.6968 4.09881C13.8375 3.95794 14.0046 3.84618 14.1886 3.76993C14.3725 3.69368 14.5697 3.65444 14.7688 3.65444C14.9679 3.65444 15.1651 3.69368 15.349 3.76993C15.5329 3.84618 15.7 3.95794 15.8407 4.09881C15.9816 4.23953 16.0934 4.40663 16.1696 4.59057C16.2459 4.7745 16.2851 4.97167 16.2851 5.17078C16.2851 5.36989 16.2459 5.56706 16.1696 5.75099C16.0934 5.93493 15.9816 6.10203 15.8407 6.24275L15.7953 6.2882C15.6206 6.46675 15.5035 6.69352 15.4589 6.93927C15.4144 7.18503 15.4444 7.4385 15.5453 7.66699V7.7276C15.6413 7.95167 15.8008 8.14276 16.004 8.27737C16.2073 8.41197 16.4455 8.4842 16.6892 8.48517H16.818C17.2199 8.48517 17.6052 8.64481 17.8894 8.92895C18.1735 9.2131 18.3332 9.59848 18.3332 10.0003C18.3332 10.4022 18.1735 10.7876 17.8894 11.0717C17.6052 11.3558 17.2199 11.5155 16.818 11.5155H16.7498C16.5061 11.5164 16.2679 11.5887 16.0646 11.7233C15.8614 11.8579 15.7019 12.049 15.6059 12.2731Z" stroke="#667085" stroke-width="1.67" stroke-linecap="round" stroke-linejoin="round"/>
</g>
<defs>
<clipPath id="clip0_6323_14617">
<rect width="20" height="20" fill="white"/>
</clipPath>
</defs>
</svg>
