<svg width="34" height="34" viewBox="0 0 34 34" fill="none" xmlns="http://www.w3.org/2000/svg">
<path d="M30.1253 15.7495C31.851 15.7495 33.25 14.3505 33.25 12.6247C33.25 10.899 31.8509 9.5 30.1251 9.5C28.3992 9.5 27 10.8991 27 12.625V15.7495H30.1253ZM21.375 15.7495C23.1009 15.7495 24.5 14.3504 24.5 12.6245V3.875C24.5 2.14911 23.1009 0.75 21.375 0.75C19.6491 0.75 18.25 2.14911 18.25 3.875V12.6245C18.25 14.3504 19.6491 15.7495 21.375 15.7495Z" fill="#2EB67D"/>
<path d="M3.87473 18.2505C2.14899 18.2505 0.750003 19.6495 0.750003 21.3753C0.750003 23.101 2.14913 24.5 3.87487 24.5C5.60076 24.5 7 23.1009 7 21.375V18.2505H3.87473ZM12.625 18.2505C10.8991 18.2505 9.5 19.6496 9.5 21.3755V30.125C9.5 31.8509 10.8991 33.25 12.625 33.25C14.3509 33.25 15.75 31.8509 15.75 30.125V21.3755C15.75 19.6496 14.3509 18.2505 12.625 18.2505Z" fill="#E01E5A"/>
<path d="M18.2505 30.1253C18.2505 31.851 19.6495 33.25 21.3753 33.25C23.101 33.25 24.5 31.8509 24.5 30.1251C24.5 28.3992 23.1009 27 21.375 27L18.2505 27L18.2505 30.1253ZM18.2505 21.375C18.2505 23.1009 19.6496 24.5 21.3755 24.5L30.125 24.5C31.8509 24.5 33.25 23.1009 33.25 21.375C33.25 19.6491 31.8509 18.25 30.125 18.25L21.3755 18.25C19.6496 18.25 18.2505 19.6491 18.2505 21.375Z" fill="#ECB22E"/>
<path d="M15.7495 3.87473C15.7495 2.14899 14.3505 0.750002 12.6247 0.750001C10.899 0.750001 9.5 2.14913 9.5 3.87487C9.5 5.60076 10.8991 7 12.625 7L15.7495 7L15.7495 3.87473ZM15.7495 12.625C15.7495 10.8991 14.3504 9.5 12.6245 9.5L3.875 9.5C2.14911 9.5 0.75 10.8991 0.75 12.625C0.75 14.3509 2.14911 15.75 3.875 15.75L12.6245 15.75C14.3504 15.75 15.7495 14.3509 15.7495 12.625Z" fill="#36C5F0"/>
</svg>
