<svg width="16" height="16" viewBox="0 0 16 16" fill="none" xmlns="http://www.w3.org/2000/svg">
<path d="M1 5.8C1 4.11984 1 3.27976 1.32698 2.63803C1.6146 2.07354 2.07354 1.6146 2.63803 1.32698C3.27976 1 4.11984 1 5.8 1H10.2C11.8802 1 12.7202 1 13.362 1.32698C13.9265 1.6146 14.3854 2.07354 14.673 2.63803C15 3.27976 15 4.11984 15 5.8V10.2C15 11.8802 15 12.7202 14.673 13.362C14.3854 13.9265 13.9265 14.3854 13.362 14.673C12.7202 15 11.8802 15 10.2 15H5.8C4.11984 15 3.27976 15 2.63803 14.673C2.07354 14.3854 1.6146 13.9265 1.32698 13.362C1 12.7202 1 11.8802 1 10.2V5.8Z" fill="url(#paint0_linear_6912_19452)"/>
<path d="M12.1376 5.01333C11.3807 4.37333 10.4725 4.05333 9.51376 4L9.36239 4.16C10.2202 4.37333 10.9771 4.8 11.6835 5.38667C10.8257 4.90667 9.86697 4.58667 8.8578 4.48C8.55505 4.42667 8.30275 4.42667 8 4.42667C7.69725 4.42667 7.44495 4.42667 7.1422 4.48C6.13303 4.58667 5.17431 4.90667 4.31651 5.38667C5.02294 4.8 5.77982 4.37333 6.63761 4.16L6.48624 4C5.52752 4.05333 4.61927 4.37333 3.86239 5.01333C3.00459 6.72 2.55046 8.64 2.5 10.6133C3.25688 11.4667 4.31651 12 5.42661 12C5.42661 12 5.77982 11.5733 6.03211 11.2C5.37615 11.04 4.77064 10.6667 4.36697 10.08C4.72018 10.2933 5.07339 10.5067 5.42661 10.6667C5.88073 10.88 6.33486 10.9867 6.78899 11.0933C7.19266 11.1467 7.59633 11.2 8 11.2C8.40367 11.2 8.80734 11.1467 9.21101 11.0933C9.66514 10.9867 10.1193 10.88 10.5734 10.6667C10.9266 10.5067 11.2798 10.2933 11.633 10.08C11.2294 10.6667 10.6239 11.04 9.96789 11.2C10.2202 11.5733 10.5734 12 10.5734 12C11.6835 12 12.7431 11.4667 13.5 10.6133C13.4495 8.64 12.9954 6.72 12.1376 5.01333ZM6.33486 9.65333C5.83028 9.65333 5.37615 9.17333 5.37615 8.58667C5.37615 8 5.83028 7.52 6.33486 7.52C6.83945 7.52 7.29358 8 7.29358 8.58667C7.29358 9.17333 6.83945 9.65333 6.33486 9.65333ZM9.66514 9.65333C9.16055 9.65333 8.70642 9.17333 8.70642 8.58667C8.70642 8 9.16055 7.52 9.66514 7.52C10.1697 7.52 10.6239 8 10.6239 8.58667C10.6239 9.17333 10.1697 9.65333 9.66514 9.65333Z" fill="white"/>
<defs>
<linearGradient id="paint0_linear_6912_19452" x1="8" y1="1" x2="8" y2="15" gradientUnits="userSpaceOnUse">
<stop stop-color="#687EC9"/>
<stop offset="1" stop-color="#5971C3"/>
</linearGradient>
</defs>
</svg>
