<svg width="20" height="20" viewBox="0 0 20 20" fill="none" xmlns="http://www.w3.org/2000/svg">
<path d="M16.6663 15.8337V13.3337H5.83301C4.4523 13.3337 3.33301 14.4529 3.33301 15.8337M7.33301 18.3337H13.9997C14.9331 18.3337 15.3998 18.3337 15.7563 18.152C16.0699 17.9922 16.3249 17.7372 16.4847 17.4236C16.6663 17.0671 16.6663 16.6004 16.6663 15.667V4.33366C16.6663 3.40024 16.6663 2.93353 16.4847 2.57701C16.3249 2.2634 16.0699 2.00844 15.7563 1.84865C15.3998 1.66699 14.9331 1.66699 13.9997 1.66699H7.33301C5.93288 1.66699 5.23281 1.66699 4.69803 1.93948C4.22763 2.17916 3.84517 2.56161 3.60549 3.03202C3.33301 3.5668 3.33301 4.26686 3.33301 5.66699V14.3337C3.33301 15.7338 3.33301 16.4339 3.60549 16.9686C3.84517 17.439 4.22763 17.8215 4.69803 18.0612C5.23281 18.3337 5.93288 18.3337 7.33301 18.3337Z" stroke="#667085" stroke-width="1.66667" stroke-linecap="round" stroke-linejoin="round"/>
</svg>
