<svg width="17" height="14" viewBox="0 0 17 14" fill="none" xmlns="http://www.w3.org/2000/svg">
<path d="M5.63117 13.75C3.81148 13.75 2.11522 13.2207 0.6875 12.3075C1.89968 12.386 4.03891 12.1981 5.36951 10.9289C3.36786 10.8371 2.46515 9.30191 2.3474 8.64585C2.51748 8.71146 3.32861 8.79019 3.7865 8.60649C1.48394 8.02916 1.13071 6.00849 1.20921 5.3918C1.64094 5.69359 2.37357 5.79855 2.66139 5.77231C0.515821 4.23713 1.2877 1.9278 1.6671 1.4292C3.20684 3.56237 5.51443 4.76045 8.36921 4.82709C8.31539 4.59101 8.28696 4.34524 8.28696 4.0928C8.28696 2.28114 9.75129 0.8125 11.5576 0.8125C12.5014 0.8125 13.3519 1.21342 13.9488 1.85472C14.5795 1.70693 15.5287 1.36098 15.9927 1.0618C15.7588 1.90156 15.0307 2.60209 14.5902 2.86173C14.5866 2.85286 14.5939 2.87056 14.5902 2.86173C14.9771 2.80321 16.0239 2.60202 16.4375 2.32144C16.233 2.7932 15.461 3.5776 14.8275 4.01674C14.9453 9.21516 10.968 13.75 5.63117 13.75Z" fill="#47ACDF"/>
</svg>
