<svg width="238" height="99" viewBox="0 0 238 99" fill="none" xmlns="http://www.w3.org/2000/svg">
<rect width="237.667" height="99" fill="#F8F9FA"/>
<rect x="97" y="9" width="45" height="81" rx="2.94737" fill="#E9ECEF"/>
<g clip-path="url(#clip0_1532_212712)">
<path d="M133 40.4969C131.937 40.9719 130.783 41.2886 129.584 41.4356C130.817 40.7005 131.756 39.5355 132.197 38.1443C131.043 38.8229 129.777 39.3206 128.419 39.592C127.333 38.4384 125.784 37.7145 124.076 37.7145C120.796 37.7145 118.127 40.3838 118.127 43.6638C118.127 44.1275 118.172 44.58 118.285 45.0211C113.342 44.7722 108.954 42.4083 106.025 38.8003C105.516 39.6825 105.222 40.7005 105.222 41.7976C105.222 43.8561 106.273 45.6771 107.868 46.7516C106.895 46.7176 105.979 46.4462 105.176 46.0051V46.0729C105.176 48.9571 107.223 51.3662 109.949 51.9091C109.452 52.0449 108.92 52.124 108.377 52.124C107.993 52.124 107.619 52.0901 107.257 52.0222C108.015 54.3861 110.209 56.1053 112.811 56.1505C110.775 57.7453 108.207 58.6954 105.425 58.6954C104.95 58.6954 104.475 58.6728 104 58.6162C106.635 60.3015 109.757 61.2855 113.116 61.2855C124.065 61.2855 130.048 52.2145 130.048 44.3537C130.048 44.0936 130.048 43.8335 130.037 43.5846C131.202 42.7363 132.208 41.6958 133 40.4969Z" fill="#ADB5BD"/>
</g>
<defs>
<clipPath id="clip0_1532_212712">
<rect width="29" height="29" fill="white" transform="translate(104 35)"/>
</clipPath>
</defs>
</svg>
