<svg width="238" height="99" viewBox="0 0 238 99" fill="none" xmlns="http://www.w3.org/2000/svg">
<rect width="237.667" height="99" fill="#F8F9FA"/>
<rect x="97" y="9" width="45" height="81" rx="2.94737" fill="#E9ECEF"/>
<path d="M126.458 51.6638C126.402 51.6367 124.288 50.5956 123.912 50.4604C123.759 50.4053 123.594 50.3515 123.42 50.3515C123.134 50.3515 122.894 50.4938 122.708 50.7733C122.496 51.0872 121.857 51.8345 121.66 52.0577C121.634 52.0872 121.599 52.1224 121.577 52.1224C121.559 52.1224 121.231 51.9877 121.132 51.9447C118.864 50.9595 117.143 48.5905 116.907 48.191C116.873 48.1335 116.872 48.1074 116.871 48.1074C116.88 48.077 116.956 48.0006 116.995 47.9611C117.111 47.8472 117.235 47.697 117.356 47.5517C117.413 47.4829 117.47 47.414 117.527 47.349C117.702 47.1453 117.78 46.9871 117.87 46.8039L117.917 46.7087C118.138 46.2702 117.95 45.9001 117.889 45.7807C117.839 45.6807 116.946 43.5262 116.851 43.2998C116.623 42.7536 116.321 42.4993 115.902 42.4993C115.863 42.4993 115.902 42.4993 115.739 42.5062C115.541 42.5146 114.459 42.6569 113.981 42.9583C113.474 43.278 112.616 44.297 112.616 46.0889C112.616 47.7017 113.64 49.2245 114.079 49.8037C114.09 49.8183 114.11 49.8479 114.139 49.8905C115.822 52.3481 117.92 54.1695 120.047 55.019C122.094 55.8369 123.064 55.9314 123.615 55.9314H123.615C123.847 55.9314 124.032 55.9132 124.195 55.8971L124.299 55.8873C125.007 55.8245 126.561 55.0191 126.914 54.0366C127.193 53.2628 127.266 52.4172 127.081 52.1104C126.954 51.9017 126.735 51.7967 126.458 51.6638Z" fill="#ADB5BD"/>
<path d="M119.757 35C111.903 35 105.514 41.3418 105.514 49.1368C105.514 51.6581 106.188 54.126 107.466 56.2859L105.02 63.5025C104.974 63.637 105.008 63.7858 105.108 63.8871C105.18 63.9605 105.277 64 105.377 64C105.415 64 105.453 63.9943 105.491 63.9823L113.016 61.5911C115.075 62.6913 117.402 63.2721 119.757 63.2721C127.611 63.2722 134 56.9311 134 49.1368C134 41.3418 127.611 35 119.757 35ZM119.757 60.3274C117.541 60.3274 115.394 59.6874 113.549 58.4765C113.487 58.4358 113.415 58.4149 113.343 58.4149C113.304 58.4149 113.266 58.4207 113.228 58.4326L109.459 59.6308L110.676 56.0407C110.715 55.9245 110.695 55.7964 110.623 55.6973C109.218 53.7773 108.475 51.5088 108.475 49.1368C108.475 42.9656 113.536 37.9448 119.757 37.9448C125.978 37.9448 131.038 42.9656 131.038 49.1368C131.038 55.3073 125.978 60.3274 119.757 60.3274Z" fill="#ADB5BD"/>
</svg>
