<svg width="20" height="20" viewBox="0 0 20 20" fill="none" xmlns="http://www.w3.org/2000/svg">
<path d="M5.76453 2.82072C7.00553 2.08705 8.45327 1.66602 9.99935 1.66602C14.6017 1.66602 18.3327 5.39698 18.3327 9.99935C18.3327 10.027 18.3325 10.0545 18.3323 10.0821M2.81697 5.77089C2.08562 7.01047 1.66602 8.45591 1.66602 9.99935C1.66602 13.8823 4.32179 17.1451 7.91602 18.0701M17.2557 14.0998C16.1554 16.0429 14.2971 17.5002 12.0827 18.0701M11.7404 5.31083C11.1982 5.10941 10.6117 4.99935 9.99935 4.99935C7.23793 4.99935 4.99935 7.23793 4.99935 9.99935C4.99935 10.615 5.11061 11.2046 5.31412 11.7493M14.6869 8.25574C14.8889 8.79863 14.9993 9.3861 14.9993 9.99935C14.9993 12.7608 12.7608 14.9993 9.99935 14.9993C9.39113 14.9993 8.80828 14.8908 8.26913 14.6919M9.99935 8.33268V11.666" stroke="#101828" stroke-width="1.5" stroke-linecap="round" stroke-linejoin="round"/>
<path d="M5.76453 2.82072C7.00553 2.08705 8.45327 1.66602 9.99935 1.66602C14.6017 1.66602 18.3327 5.39698 18.3327 9.99935C18.3327 10.027 18.3325 10.0545 18.3323 10.0821M2.81697 5.77089C2.08562 7.01047 1.66602 8.45591 1.66602 9.99935C1.66602 13.8823 4.32179 17.1451 7.91602 18.0701M17.2557 14.0998C16.1554 16.0429 14.2971 17.5002 12.0827 18.0701M11.7404 5.31083C11.1982 5.10941 10.6117 4.99935 9.99935 4.99935C7.23793 4.99935 4.99935 7.23793 4.99935 9.99935C4.99935 10.615 5.11061 11.2046 5.31412 11.7493M14.6869 8.25574C14.8889 8.79863 14.9993 9.3861 14.9993 9.99935C14.9993 12.7608 12.7608 14.9993 9.99935 14.9993C9.39113 14.9993 8.80828 14.8908 8.26913 14.6919M9.99935 8.33268V11.666" stroke="black" stroke-opacity="0.2" stroke-width="1.5" stroke-linecap="round" stroke-linejoin="round"/>
</svg>
