<svg width="16" height="16" viewBox="0 0 16 16" fill="none" xmlns="http://www.w3.org/2000/svg">
<g clip-path="url(#clip0_6912_12980)">
<path d="M8.00065 9.9987C9.10522 9.9987 10.0007 9.10327 10.0007 7.9987C10.0007 6.89413 9.10522 5.9987 8.00065 5.9987C6.89608 5.9987 6.00065 6.89413 6.00065 7.9987C6.00065 9.10327 6.89608 9.9987 8.00065 9.9987Z" stroke="#344054" stroke-width="1.5" stroke-linecap="round" stroke-linejoin="round"/>
<path d="M12.4855 9.81688C12.4048 9.99968 12.3808 10.2025 12.4164 10.3991C12.4521 10.5957 12.5458 10.7771 12.6855 10.9199L12.7219 10.9563C12.8346 11.0688 12.924 11.2025 12.985 11.3497C13.046 11.4968 13.0774 11.6546 13.0774 11.8139C13.0774 11.9731 13.046 12.1309 12.985 12.278C12.924 12.4252 12.8346 12.5589 12.7219 12.6714C12.6093 12.7841 12.4756 12.8735 12.3285 12.9345C12.1813 12.9955 12.0236 13.0269 11.8643 13.0269C11.705 13.0269 11.5473 12.9955 11.4001 12.9345C11.253 12.8735 11.1193 12.7841 11.0067 12.6714L10.9703 12.6351C10.8275 12.4953 10.6461 12.4016 10.4495 12.366C10.2529 12.3303 10.0501 12.3544 9.86732 12.4351C9.68806 12.5119 9.53519 12.6395 9.4275 12.8021C9.31982 12.9647 9.26204 13.1552 9.26126 13.3502V13.4532C9.26126 13.7747 9.13355 14.083 8.90623 14.3103C8.67892 14.5377 8.37061 14.6654 8.04914 14.6654C7.72766 14.6654 7.41935 14.5377 7.19204 14.3103C6.96472 14.083 6.83701 13.7747 6.83701 13.4532V13.3987C6.83232 13.1981 6.76739 13.0035 6.65066 12.8403C6.53393 12.6771 6.37079 12.5528 6.18247 12.4835C5.99967 12.4029 5.7969 12.3788 5.60029 12.4145C5.40369 12.4501 5.22227 12.5438 5.07944 12.6835L5.04308 12.7199C4.9305 12.8326 4.79682 12.922 4.64967 12.983C4.50252 13.044 4.34479 13.0754 4.1855 13.0754C4.02621 13.0754 3.86848 13.044 3.72133 12.983C3.57418 12.922 3.4405 12.8326 3.32792 12.7199C3.21523 12.6073 3.12582 12.4737 3.06482 12.3265C3.00382 12.1794 2.97242 12.0216 2.97242 11.8623C2.97242 11.703 3.00382 11.5453 3.06482 11.3982C3.12582 11.251 3.21523 11.1173 3.32792 11.0048L3.36429 10.9684C3.50401 10.8256 3.59773 10.6441 3.63338 10.4475C3.66903 10.2509 3.64496 10.0482 3.56429 9.86536C3.48746 9.68611 3.3599 9.53323 3.1973 9.42555C3.0347 9.31787 2.84416 9.26008 2.64914 9.2593H2.54611C2.22463 9.2593 1.91632 9.1316 1.68901 8.90428C1.46169 8.67697 1.33398 8.36866 1.33398 8.04718C1.33398 7.72571 1.46169 7.4174 1.68901 7.19008C1.91632 6.96277 2.22463 6.83506 2.54611 6.83506H2.60065C2.80125 6.83037 2.99581 6.76544 3.15901 6.6487C3.32222 6.53197 3.44654 6.36884 3.5158 6.18052C3.59648 5.99772 3.62054 5.79494 3.5849 5.59834C3.54925 5.40174 3.45552 5.22032 3.3158 5.07749L3.27944 5.04112C3.16674 4.92855 3.07734 4.79487 3.01634 4.64772C2.95534 4.50057 2.92394 4.34284 2.92394 4.18355C2.92394 4.02425 2.95534 3.86653 3.01634 3.71938C3.07734 3.57223 3.16674 3.43854 3.27944 3.32597C3.39201 3.21327 3.5257 3.12387 3.67284 3.06287C3.81999 3.00187 3.97772 2.97047 4.13701 2.97047C4.29631 2.97047 4.45404 3.00187 4.60118 3.06287C4.74833 3.12387 4.88202 3.21327 4.99459 3.32597L5.03095 3.36233C5.17379 3.50205 5.35521 3.59578 5.55181 3.63143C5.74841 3.66708 5.95119 3.64301 6.13398 3.56233H6.18247C6.36172 3.48551 6.5146 3.35794 6.62228 3.19534C6.72997 3.03274 6.78775 2.84221 6.78853 2.64718V2.54415C6.78853 2.22268 6.91624 1.91437 7.14355 1.68705C7.37087 1.45974 7.67918 1.33203 8.00065 1.33203C8.32213 1.33203 8.63043 1.45974 8.85775 1.68705C9.08507 1.91437 9.21277 2.22268 9.21277 2.54415V2.5987C9.21355 2.79372 9.27134 2.98426 9.37902 3.14686C9.4867 3.30946 9.63958 3.43702 9.81883 3.51385C10.0016 3.59453 10.2044 3.61859 10.401 3.58294C10.5976 3.5473 10.779 3.45357 10.9219 3.31385L10.9582 3.27749C11.0708 3.16479 11.2045 3.07538 11.3516 3.01438C11.4988 2.95338 11.6565 2.92199 11.8158 2.92199C11.9751 2.92199 12.1328 2.95338 12.28 3.01438C12.4271 3.07538 12.5608 3.16479 12.6734 3.27749C12.7861 3.39006 12.8755 3.52374 12.9365 3.67089C12.9975 3.81804 13.0289 3.97577 13.0289 4.13506C13.0289 4.29435 12.9975 4.45208 12.9365 4.59923C12.8755 4.74638 12.7861 4.88006 12.6734 4.99264L12.637 5.029C12.4973 5.17184 12.4036 5.35325 12.3679 5.54986C12.3323 5.74646 12.3563 5.94923 12.437 6.13203V6.18052C12.5138 6.35977 12.6414 6.51265 12.804 6.62033C12.9666 6.72801 13.1571 6.7858 13.3522 6.78658H13.4552C13.7767 6.78658 14.085 6.91428 14.3123 7.1416C14.5396 7.36892 14.6673 7.67722 14.6673 7.9987C14.6673 8.32017 14.5396 8.62848 14.3123 8.8558C14.085 9.08311 13.7767 9.21082 13.4552 9.21082H13.4007C13.2056 9.2116 13.0151 9.26938 12.8525 9.37707C12.6899 9.48475 12.5623 9.63763 12.4855 9.81688Z" stroke="#344054" stroke-width="1.5" stroke-linecap="round" stroke-linejoin="round"/>
</g>
<defs>
<clipPath id="clip0_6912_12980">
<rect width="16" height="16" fill="white"/>
</clipPath>
</defs>
</svg>
