<svg width="33" height="32" viewBox="0 0 33 32" fill="none" xmlns="http://www.w3.org/2000/svg">
<rect x="0.314453" y="-0.0927734" width="32.1855" height="32.1855" rx="3.21855" fill="black"/>
<g clip-path="url(#clip0_6103_17874)">
<path d="M15.8903 24.2583C14.1956 24.2583 12.5009 24.2564 10.8062 24.261C10.6052 24.2614 10.4925 24.1864 10.4129 24.0007C10.1311 23.3456 9.83626 22.6962 9.54484 22.0454C9.43181 21.7935 9.53638 21.6286 9.81435 21.6286C13.2229 21.6275 16.6315 21.6271 20.0401 21.6221C20.2289 21.6221 20.3331 21.6955 20.4061 21.8639C20.6949 22.5263 20.9909 23.1857 21.2858 23.8454C21.3911 24.0814 21.29 24.251 21.0324 24.2518C20.1897 24.2548 19.3473 24.2544 18.5046 24.2548C17.633 24.2548 16.7619 24.2548 15.8903 24.2548V24.2583Z" fill="white"/>
<path d="M18.0657 10.6374C16.3837 10.6374 14.7017 10.6374 13.02 10.6374C12.9785 10.6374 12.9366 10.6358 12.8951 10.6374C12.7602 10.6412 12.6744 10.5774 12.6202 10.4551C12.3576 9.86154 12.0924 9.26909 11.8282 8.67626C11.7867 8.58284 11.7452 8.48903 11.7041 8.39522C11.6126 8.18685 11.7164 8.01692 11.9428 8.0123C12.17 8.00769 12.3976 8.01 12.6252 8.01C15.8062 8.00731 18.9876 8.00654 22.169 8C22.3835 7.99962 22.5069 8.07382 22.593 8.27527C22.8729 8.93116 23.1697 9.57974 23.4604 10.231C23.5645 10.4648 23.4565 10.6328 23.1982 10.6328C21.4873 10.6331 19.7765 10.6328 18.066 10.6328V10.6374H18.0657Z" fill="white"/>
<path d="M11.2404 20.9676C10.8433 20.9676 10.4461 20.9688 10.049 20.9672C9.8579 20.9665 9.73988 20.8507 9.7664 20.6862C9.77563 20.6293 9.80716 20.5712 9.84137 20.5236C10.5553 19.5274 11.2716 18.5325 11.987 17.5371C12.6518 16.6121 13.3176 15.6875 13.9797 14.7606C14.0639 14.6425 14.1665 14.5891 14.3107 14.5899C15.0892 14.5925 15.8674 14.5906 16.6459 14.591C16.8531 14.591 16.9719 14.6902 16.9538 14.8578C16.9473 14.9174 16.9158 14.9801 16.88 15.0301C16.2414 15.9228 15.6005 16.8139 14.96 17.7051C14.228 18.7239 13.4937 19.7412 12.7663 20.7631C12.6621 20.9096 12.5418 20.9722 12.3649 20.9688C11.9905 20.9615 11.6153 20.9665 11.2408 20.9665V20.9676H11.2404Z" fill="white"/>
<path d="M17.5234 17.6719C17.1359 17.6719 16.7483 17.6719 16.3608 17.6719C16.252 17.6719 16.1478 17.6581 16.0801 17.5581C16.0171 17.4655 16.0286 17.3555 16.1132 17.2379C16.4361 16.7881 16.7595 16.3386 17.0824 15.8892C17.7902 14.9046 18.4976 13.9196 19.205 12.9347C19.5579 12.4437 19.9132 11.9539 20.263 11.4607C20.343 11.348 20.4418 11.2976 20.5783 11.298C21.331 11.2992 22.0838 11.2973 22.8366 11.2969C22.8846 11.2969 22.9327 11.2969 22.9807 11.3007C23.2091 11.3169 23.3098 11.5114 23.183 11.7032C23.0665 11.8789 22.9385 12.0473 22.8154 12.2188C21.975 13.3879 21.135 14.5571 20.2945 15.7262C19.8686 16.3187 19.4411 16.9099 19.0185 17.5047C18.9336 17.6247 18.8294 17.6746 18.686 17.6735C18.2984 17.67 17.9109 17.6723 17.5234 17.6723V17.6719Z" fill="white"/>
<path d="M15.9418 11.2988C16.951 11.2988 17.9598 11.2988 18.969 11.2988C19.1009 11.2988 19.2327 11.3027 19.3008 11.4403C19.3665 11.5737 19.2916 11.6791 19.217 11.7829C18.7364 12.4503 18.2554 13.1173 17.7772 13.7863C17.7053 13.887 17.6145 13.9308 17.4923 13.9308C15.5831 13.9308 13.6739 13.932 11.7647 13.9327C11.7424 13.9327 11.7197 13.9327 11.6974 13.9316C11.4717 13.9208 11.3648 13.7444 11.4709 13.5433C11.8377 12.8509 12.2099 12.1612 12.5778 11.4695C12.6454 11.3423 12.7496 11.3023 12.8857 11.3023C13.9045 11.3038 14.923 11.3031 15.9418 11.3031V11.2988Z" fill="white"/>
<path d="M17.0559 20.9662C16.0371 20.9662 15.0183 20.9662 13.9995 20.9662C13.8065 20.9662 13.7015 20.9077 13.6854 20.767C13.6769 20.6951 13.6988 20.604 13.7408 20.5452C14.2332 19.8505 14.7323 19.1607 15.2286 18.4691C15.2936 18.3784 15.3762 18.3357 15.4889 18.3357C17.4173 18.3357 19.3461 18.3338 21.2746 18.333C21.5268 18.333 21.6398 18.5133 21.5241 18.7302C21.1612 19.4103 20.7952 20.0884 20.4345 20.7701C20.363 20.9054 20.2638 20.9615 20.112 20.9612C19.0932 20.9581 18.0743 20.9596 17.0555 20.9596C17.0555 20.9619 17.0555 20.9642 17.0555 20.9665L17.0559 20.9662Z" fill="white"/>
<path d="M10.7045 13.3272C10.5672 13.3049 10.498 13.2322 10.4515 13.1284C10.3485 12.8977 10.2454 12.6675 10.1428 12.4368C9.95439 12.0135 9.76831 11.589 9.57685 11.1669C9.52956 11.0623 9.52495 10.9682 9.57993 10.8655C9.95208 10.1727 10.3223 9.47877 10.6933 8.7852C10.7444 8.68986 10.8244 8.63334 10.9324 8.63796C11.0405 8.64257 11.1158 8.70678 11.1597 8.8052C11.4545 9.468 11.7475 10.1316 12.0439 10.7936C12.0935 10.9047 12.0762 11.0035 12.022 11.1042C11.6833 11.7351 11.3454 12.3668 11.0066 12.9977C10.9705 13.0654 10.9409 13.1403 10.8905 13.1953C10.8402 13.2499 10.7675 13.2837 10.7045 13.3264V13.3272Z" fill="white"/>
<path d="M20.9131 21.3273C20.9319 21.2777 20.9465 21.2216 20.9731 21.172C21.3368 20.4892 21.702 19.8072 22.0665 19.1248C22.1195 19.0252 22.1941 18.9537 22.3137 18.9572C22.4332 18.9602 22.5044 19.0344 22.5505 19.1382C22.845 19.801 23.1395 20.4642 23.4355 21.1266C23.479 21.2239 23.4643 21.3123 23.4163 21.4015C23.0484 22.0893 22.6808 22.7775 22.3133 23.4653C22.2614 23.5622 22.1845 23.6283 22.0707 23.626C21.9507 23.6237 21.8808 23.5468 21.8346 23.4434C21.5409 22.7837 21.2468 22.1239 20.9542 21.4638C20.9362 21.4234 20.9285 21.3788 20.9131 21.3273Z" fill="white"/>
</g>
<defs>
<clipPath id="clip0_6103_17874">
<rect width="14" height="16.2614" fill="white" transform="translate(9.5 8)"/>
</clipPath>
</defs>
</svg>
