<svg width="30" height="30" viewBox="0 0 30 30" fill="none" xmlns="http://www.w3.org/2000/svg">
<path d="M29.9999 2.30768L23.8083 8.49935H20.8879L21.2627 8.12463L22.7745 6.61278L22.9533 6.43618L26.8298 2.5575L27.0796 2.30768H29.9999Z" fill="#25262B"/>
<path d="M24.1615 2.30769L20.033 6.4362H11.3518C9.45999 6.433 7.64287 7.17408 6.2929 8.49937C6.27465 8.51479 6.25739 8.53133 6.24121 8.54891C5.56984 9.2199 5.03726 10.0166 4.6739 10.8935C4.31054 11.7704 4.12352 12.7103 4.12352 13.6595C4.12352 14.6087 4.31054 15.5485 4.6739 16.4254C5.03726 17.3023 5.56984 18.099 6.24121 18.77C6.4852 19.0139 6.74647 19.2399 7.02298 19.4463L2.61666 23.844L1.458 25.0026L0 26.4606V13.6595C0 13.3149 0.0172293 12.9703 0.04738 12.6279C0.110468 11.9293 0.237342 11.238 0.426417 10.5625C0.627334 9.85001 0.897839 9.15896 1.23403 8.49937C1.6077 7.76356 2.06203 7.07159 2.58866 6.4362C2.81694 6.15838 3.0603 5.89133 3.32089 5.63074C4.37456 4.57505 5.62647 3.73801 7.00469 3.16773C8.3829 2.59745 9.86023 2.30517 11.3518 2.30769H24.1615Z" fill="#25262B"/>
<path d="M24.7237 14.691C24.6723 15.3861 24.5658 16.076 24.4049 16.7542C23.7129 19.6949 22.0465 22.3151 19.6766 24.1887C17.3068 26.0624 14.3729 27.0794 11.3518 27.0744H5.2312L7.29653 25.0112H11.3518C12.9293 25.0108 14.4894 24.6817 15.9326 24.0448C17.3758 23.4079 18.6704 22.4771 19.7338 21.312C20.7972 20.1468 21.6062 18.7728 22.109 17.2776C22.6118 15.7824 22.7974 14.1988 22.654 12.6278H24.7237C24.7797 13.3144 24.7797 14.0044 24.7237 14.691Z" fill="#25262B"/>
<path d="M22.6539 14.691H6.28637C6.14641 14.0104 6.14641 13.3084 6.28637 12.6278H22.6539C22.7164 13.3141 22.7164 14.0047 22.6539 14.691Z" fill="#25262B"/>
<path d="M9.53625 22.7672L5.229 27.0744H2.31299L4.30294 25.0845L4.37616 25.0112L5.81263 23.5748L7.34817 22.0414C8.0437 22.3754 8.779 22.6192 9.53625 22.7672V22.7672Z" fill="#25262B"/>
<path d="M20.1105 16.7542C19.3639 18.8593 17.8845 20.6254 15.9429 21.7294C14.0013 22.8335 11.7271 23.2019 9.53623 22.7672C8.77888 22.6186 8.04358 22.3739 7.34814 22.0392L8.92245 20.4628C9.72431 20.75 10.5711 20.8915 11.4228 20.8806V20.8806C12.7787 20.8684 14.1038 20.4748 15.2464 19.7446C16.3891 19.0145 17.303 17.9774 17.8837 16.7521L20.1105 16.7542Z" fill="#25262B"/>
<path d="M16.4105 8.49933H11.3129C9.95671 8.50591 8.65795 9.0477 7.69913 10.0069C7.52717 10.1787 7.36809 10.363 7.22318 10.5582C6.76292 11.1681 6.44635 11.8741 6.29712 12.6235H8.43352C8.58541 12.1879 8.83432 11.7924 9.16144 11.467C9.44864 11.1787 9.78998 10.95 10.1659 10.794C10.5417 10.638 10.9447 10.5579 11.3517 10.5582H21.7451L23.8083 8.49503L16.4105 8.49933Z" fill="#25262B"/>
</svg>
